<svg xmlns="http://www.w3.org/2000/svg" viewBox="0 0 460 100"><defs><style>.cls-1{fill:#00040c;}</style></defs><title>5e Dungeons &amp;amp; Dragons logo</title><g id="D_D_Logos" data-name="D&amp;D Logos"><g id="Dungeons_Dragons" data-name="Dungeons &amp; Dragons"><path class="cls-1" d="M224,35.83a9,9,0,0,1,2.54-7.49c2-2,4.68-3.27,8.65-3.06,6.28.34,9.29,4.64,9.29,9.29a13.83,13.83,0,0,1-3,7.75l-.33-.33a31.81,31.81,0,0,1-4-4c2.11-3.13,1.21-8-2.61-8-2.4,0-4.36,2.49-3.59,5.58A10.46,10.46,0,0,0,230.7,40a8,8,0,0,1-4.22-5.07,7.45,7.45,0,0,0-.59,5.27A6.78,6.78,0,0,1,224,35.83m1.57,7.62c.25-1-1.65-2.6-2.36-2.91a11,11,0,0,1,3.91.39,4.59,4.59,0,0,1-.52-3.75c1.43,3.4,6.5,4,7.76,6.78a5.5,5.5,0,0,0-2.67-3.39c-.72-1.85-.18-5.28.69-6.22-.3,4.92,6.72,7.73,8.17,11.31-.85-3.07-4.12-5-5.67-6.84a5,5,0,0,1,.43-4c-.16,3.3,3.39,5.87,5.29,7.71,2.24,2.16,2.88,4.08,2.57,5.65a1.32,1.32,0,0,1,1.05,1.41,2.7,2.7,0,0,0,1.62-1.49c.35,2.45-1.08,5-2.69,5.81a2.25,2.25,0,0,0-.31-2.06C242.09,51,240,51,239.34,51c0,0,.85-1.26.51-1.9s-4.44-.44-6.24.21a7.69,7.69,0,0,1,2.57.31c-.28.42-1,2.19-.49,2.72s1.13-.36,1.13-.36-.63,1.94-.18,2.39,1.42.13,1.42.13c-.6,1.52-2.94,2.57-4.58,2.57a3.54,3.54,0,0,0,1.7-1.85,4.67,4.67,0,0,1-2,.25,3,3,0,0,0,1.26-3.1c-.48-2.24-3.6-2.52-5.17-1.44a6.17,6.17,0,0,1,3.22-3.37,16.61,16.61,0,0,0-2.39-.61,9.14,9.14,0,0,1,4.78-1.41c-2-.5-5.51.13-7.14,2a12.38,12.38,0,0,1,2.38.42A14.68,14.68,0,0,0,224,51.5c.24-1.29.6-2.38.3-3.17-.43-1.09-1.76-1.55-4.42-1,1.79-1.79,5.46-2.9,5.7-3.87m12.2,1.73c.36,1.25.83,2.39,2.34,2.39a4,4,0,0,0-2.34-2.39m24.09-1.71c-2.63,0-4.12,1.29-4.5.71-.48-.75,1.78-1.85,1.78-1.85-3.11.13-5.37,3.79-6.31,3.34-.56-.27.84-2,.84-2a13.65,13.65,0,0,0-5.73,7.28c2.62-3.2,7.71-5.5,11-5-5.83.29-10.82,5.44-13.18,8.8a3.78,3.78,0,0,1,1.31.69l2.21,1.8a30.34,30.34,0,0,1,4.67-7.56c2.09-2.4,5.74-2.62,7.65-1.17,1.23-1.11,5.47-2.16,7.7-1.52a10.93,10.93,0,0,0-7.45-3.46m-1.77,15.45a3.42,3.42,0,0,1,2.74,3.14c0,2.82-3.52,3.69-5.47,3.25,2.07-1.44,1.79-5.56-.69-7,.84,2.31-1.69,4.61-4.14,2.59-1.36-1.12-4.53-3.75-5.93-4.88s-3.06-.47-3.71-1-.27-2.14-1.28-2.74c-.85-.49-1.68-.21-2.67-.54a1.85,1.85,0,0,1-1.45-1.93,2.43,2.43,0,0,0,.28,2.63c.67.78,1.8,1.26,2.26,2.12.6,1.11-.41,2.65,2.26,4.74,1.28,1,3.26,2.64,4.56,3.78,2.17,1.91,1,4.29,1.29,6.38a5.06,5.06,0,0,0,3.59,4.11,3.78,3.78,0,0,1,0-5.16,6.79,6.79,0,0,0,4.88,6.1c3.55.94,7.33-1.07,8.11-2.49-1.37.62-4-.05-5-1,4.17.59,7.86-2.31,7.86-6s-3.51-6.42-7.51-6m-17.85,1.32c-1.29,2.47-4.52,6-7.77,6-5.77,0-8.62-8.33-1.78-14.93a3,3,0,0,0-1.22-.24,5,5,0,0,0-3.27,1.61A6.42,6.42,0,0,1,229.38,49,18.93,18.93,0,0,0,223,53.41c0-2.66,1-4.21.38-5a.52.52,0,0,0-.1-.11s-4.71,3.11-5.17,8.21a3.59,3.59,0,0,1,1.16-1.08c.35-.14.66,0,.32,1.08-.12.41-3.22,8.77,2.86,14.55,0,0-.67-1.7-.27-2.22.2-.25.45-.27.81.18s.53.68.82,1h0a13,13,0,0,0,1.66,1.58,12.5,12.5,0,0,0,7.09,2.29c7.79,0,11.79-5.56,13.94-10l-.24-.24c-1.13-1-2.83-2.41-4.09-3.41"/><path class="cls-1" d="M146.57,37.5c-8.1,0-14,5.66-14,13.46s5.91,13.25,14,13.25,14.18-5.77,14.18-13.42S154.69,37.5,146.57,37.5m-.07,6.3c4.16,0,6.85,2.74,6.85,7S150.62,58,146.71,58c-4.06,0-6.69-2.75-6.69-7,0-4.42,2.49-7.16,6.48-7.16"/><path class="cls-1" d="M21.77,39.43a14.13,14.13,0,0,0-6.38-1.56v0H10.18c-4.12,0-6.08-.06-7.51-.39a9,9,0,0,1-2.36-1L0,36.25l0,.37c0,.12.3,2.92,3.64,5.36.64.46,1.09.92,1.09,2.56v15c0,1.6-.31,2.05-1,2.5L1.25,63.46l-.58.34H14.23c3.8,0,6.16-.64,8.74-2.36a12.13,12.13,0,0,0,2.78-2.54,13.19,13.19,0,0,0,2.71-8.13,12.51,12.51,0,0,0-6.69-11.34M14.91,57.49H12V44.15h2.91c3.82,0,6,2.44,6,6.69s-2.19,6.65-6,6.65"/><path class="cls-1" d="M57.26,37.87l-.56.34s-1.42.87-2.29,1.44-1.08.87-1.08,2.56v10.9a12.13,12.13,0,0,1-.8,5.15C51,62,47.13,64.21,42.2,64.21A11.62,11.62,0,0,1,33.62,61a8.3,8.3,0,0,1-1.84-2.56A14.75,14.75,0,0,1,31,52.91V42.21c0-1.69-.3-2-1.09-2.56s-2.27-1.43-2.28-1.44L27,37.87H38a2.53,2.53,0,0,1,1.07.32l.18.11-.12.16s-.39.52-.61.87a1.84,1.84,0,0,0-.28,1.14V53.68c0,2.87,1.35,4.33,4,4.33s3.86-1.41,3.9-4.2v-.12h0V40.47a1.76,1.76,0,0,0-.29-1.14c-.22-.35-.6-.86-.6-.87l-.12-.16.18-.11a2.53,2.53,0,0,1,1.07-.32Z"/><path class="cls-1" d="M208.81,56.3c-.12,4.85-4.28,8-10.6,8-.47,0-1,0-1.43-.05-1.46-.11-4.32-.61-5.19-.8s-1.16-.29-1.18-.29l-.09,0-.5-.17-.55-9.71,1.35,1,1.31,1,.2.16a11.35,11.35,0,0,0,5.67,2.77c.41,0,.79,0,1.13,0,2.37,0,2.68-.84,2.78-1.63.2-1.51-1.26-2.29-2.51-2.68l-.46-.14a31.47,31.47,0,0,1-6.62-2.59A6.69,6.69,0,0,1,189,45c.37-5,3.74-7.72,9.52-7.71.48,0,1,0,1.5.05a44.47,44.47,0,0,1,4.72.8,10.52,10.52,0,0,1,1.18.3l.09,0,.51.17.42,7.66a16.83,16.83,0,0,0-7.62-3l-.13,0h-.07l-.62,0A3.73,3.73,0,0,0,196,44a1.12,1.12,0,0,0-.32.84c0,1.06,1.62,1.52,4.08,2.1l.1,0,1.05.25c5.39,1.37,8.07,4.44,7.95,9.12"/><path class="cls-1" d="M131.65,55.14l-1.93,8.66H108.2l.59-.35s1.65-1,2.45-1.44,1.05-.8,1.05-2.5V42.21c0-1.68-.29-2-1.08-2.56s-2.26-1.43-2.28-1.44l-.55-.34h20.76l.79,8.22-1.51-1.15a3.65,3.65,0,0,0-2.79-.77h-6.11V47.4h6.09a3.7,3.7,0,0,0,1.62-.16,5.56,5.56,0,0,0,.65-.34l.22-.13,0,8.31-.27-.4a2.5,2.5,0,0,0-.87-.79,5.25,5.25,0,0,0-2-.19h-5.5v3.8h5.88c2.31,0,3.06-.21,4-.8.5-.31,2.23-1.56,2.23-1.56"/><path class="cls-1" d="M85,37.87l-.67.35s-1.62.84-2.49,1.43-1.09.89-1.09,2.56V64.63L65,49.2V59.51c0,1.66.32,2,1.06,2.5s2.42,1.44,2.44,1.44l.59.35H54.39l.59-.35s1.63-.93,2.46-1.44,1.06-.82,1.06-2.5V42.42c0-1.69-.36-2.24-1.12-2.79s-2.08-1.42-2.09-1.42l-.52-.34H63.4L74.25,48.49V42.21c0-1.68-.29-2-1.08-2.56s-2.26-1.43-2.28-1.44l-.55-.34Z"/><path class="cls-1" d="M190.15,37.87l-.67.35A27.38,27.38,0,0,0,187,39.65c-.81.55-1.08.89-1.08,2.56V64.63L170.14,49.2V59.51c0,1.66.33,2,1.07,2.5s2.42,1.44,2.44,1.44l.59.35H159.5l.59-.35s1.63-.93,2.46-1.44,1-.82,1-2.5V42.42c0-1.69-.35-2.24-1.1-2.79s-2.09-1.42-2.1-1.42l-.52-.34h8.64l10.85,10.62V42.21c0-1.68-.3-2-1.09-2.56S176,38.22,176,38.21l-.55-.34Z"/><path class="cls-1" d="M108.23,62.29s-.39-.52-.61-.87a2.64,2.64,0,0,1-.31-1.64v-7c0-1.05.09-1.25.29-1.57s.6-.86.6-.86l.13-.17-.19-.1a3,3,0,0,0-1-.32h-11l.56.33L99,51.54c.72.45,1.08,1,1.08,2.5v3.81a8.63,8.63,0,0,1-2.68.38c-4.44,0-6.7-2.41-6.7-7.14,0-4.51,2.47-7.11,6.78-7.11a14.1,14.1,0,0,1,9,3.23l0-.18-.79-7.51-.05-.55-.55-.13-.52-.12a36.78,36.78,0,0,0-4.59-.85,15.09,15.09,0,0,0-2.26-.15h-.44c-8.12,0-14,5.68-14,13.5s5.92,13.3,14.08,13.3a36,36,0,0,0,5.91-.62l.78-.18.17,0c1-.23,2-.48,3-.79l1.27-.4Z"/><path class="cls-1" d="M294.59,39.43a14.13,14.13,0,0,0-6.38-1.56v0H283c-4.12,0-6.08-.06-7.51-.39a9,9,0,0,1-2.36-1l-.31-.21,0,.37c0,.12.3,2.92,3.64,5.36.64.46,1.09.92,1.09,2.56v15c0,1.6-.31,2.05-1.05,2.5s-2.46,1.45-2.46,1.45l-.58.34h13.56c3.8,0,6.17-.64,8.74-2.36a12.13,12.13,0,0,0,2.78-2.54,13.19,13.19,0,0,0,2.71-8.13,12.51,12.51,0,0,0-6.69-11.34m-6.86,18.06h-2.92V44.15h2.92c3.82,0,6,2.44,6,6.69s-2.19,6.65-6,6.65"/><path class="cls-1" d="M444.26,47.18l-1.06-.25-.09,0c-2.46-.59-4.08-1-4.08-2.11a1.1,1.1,0,0,1,.32-.84,3.7,3.7,0,0,1,2.54-.68l.62,0h.21a17,17,0,0,1,7.62,3l-.43-7.65-.5-.17-.09,0c-.05,0-.33-.11-1.19-.29a44,44,0,0,0-4.72-.8c-.51,0-1-.06-1.5-.06-5.77,0-9.15,2.75-9.52,7.72a6.71,6.71,0,0,0,3.12,6.18,31.47,31.47,0,0,0,6.62,2.59l.46.14c1.26.39,2.71,1.17,2.51,2.68-.1.79-.41,1.63-2.78,1.63-.34,0-.72,0-1.13,0a11.32,11.32,0,0,1-5.66-2.77l-.2-.16-1.31-1-1.35-1,.54,9.71.5.17.1,0s.29.1,1.17.29,3.74.69,5.2.8c.47,0,.95.05,1.43.05,6.31,0,10.47-3.14,10.59-8,.12-4.68-2.55-7.75-7.94-9.12"/><path class="cls-1" d="M390,37.52c-8.09,0-14,5.66-14,13.46s5.9,13.25,14,13.25,14.18-5.77,14.18-13.42S398.09,37.52,390,37.52M390.1,58c-4.06,0-6.68-2.75-6.68-7s2.48-7.16,6.47-7.16c4.17,0,6.86,2.74,6.86,7S394,58,390.1,58"/><path class="cls-1" d="M349.54,60.6a5.51,5.51,0,0,1-.55-1h0c-.06-.13-8.57-21.71-8.57-21.71H330.2L332,39.54c.38.36.38.51.38.65a2.47,2.47,0,0,1,0,.35s-7.77,18.75-7.85,18.91c-1.33-1.46-3.47-4.16-6.18-7.78a7,7,0,0,0,2.38-2.21A7.19,7.19,0,0,0,322,45.3a6.93,6.93,0,0,0-5.15-6.89,14.77,14.77,0,0,0-4.64-.5H299.88l.54.34,2.29,1.44c.73.45,1.08,1,1.08,2.55V59.51c0,1.66-.41,2.05-1.07,2.5s-3,1.79-3,1.79h15.17A31.13,31.13,0,0,1,311.76,62c-.77-.59-1.08-.89-1.08-2.51V54a2,2,0,0,1,.4.12,6,6,0,0,1,1.75,1.79v0l6.53,7.87H333.6s-1.4-1.13-2-1.68-.61-.77-.22-1.7c.09-.22.24-.64.43-1.15h9.4c.19.53.34,1,.42,1.15a1.42,1.42,0,0,1-.35,1.74c-.52.54-1.67,1.65-1.67,1.65h13.56L351,62.08a5.16,5.16,0,0,1-1.45-1.48m-38-11.5h-.87v-6h.88c2.49,0,3.35.9,3.35,2.23,0,3.46-1.72,3.83-3.36,3.83m22.6,4,2.54-6.37L339,53.1Z"/><path class="cls-1" d="M433.54,37.87h-14.7l.56.34s1.42.87,2.28,1.44,1.08.88,1.08,2.56v6.28L411.91,37.87h-8.63l.51.33s1.34.87,2.1,1.43,1.11,1.1,1.11,2.79V59.51c0,1.68-.31,2-1.06,2.5s-2.44,1.44-2.45,1.44l-.59.35h14.74l-.6-.35s-1.65-.94-2.44-1.44-1.06-.85-1.06-2.5V49.2L429.3,64.63V42.21c0-1.67.28-2,1.08-2.56s2.48-1.43,2.49-1.43Z"/><path class="cls-1" d="M374.51,62.06s-.38-.52-.6-.87-.32-.57-.32-1.64v-7c0-1.06.1-1.26.3-1.58s.6-.86.6-.86l.13-.18-.19-.09a3.14,3.14,0,0,0-1.05-.32h-11l.55.34,2.36,1.45c.71.45,1.07,1,1.07,2.5v3.81a8.61,8.61,0,0,1-2.67.38c-4.45,0-6.7-2.4-6.7-7.14,0-4.51,2.47-7.1,6.77-7.1a14.1,14.1,0,0,1,9,3.22l0-.18-.79-7.51-.06-.55-.54-.13-.53-.12a36.7,36.7,0,0,0-4.58-.85,15.14,15.14,0,0,0-2.27-.15h-.43c-8.12,0-14,5.68-14,13.5s5.93,13.3,14.09,13.3a36,36,0,0,0,5.91-.62l.77-.18.17,0c1-.23,2-.48,3-.79l1.26-.4Z"/><path class="cls-1" d="M460,41.1a3.21,3.21,0,1,1-3.21-3.23A3.07,3.07,0,0,1,460,41.1m-3.21,2.57a2.57,2.57,0,1,0-2.43-2.57,2.37,2.37,0,0,0,2.43,2.57m.78-2.12c1.2-.27,1-2.1-.5-2.1h-1.58v3.3h.88v-1h.3l.79,1h.93v-.19Zm-.5-1.32a.38.38,0,1,1,0,.75h-.7v-.75Z"/></g></g></svg>