<svg id="Adventurers_League_Season_Icons" data-name="Adventurers League Season Icons" xmlns="http://www.w3.org/2000/svg" viewBox="0 0 100 100"><defs><style>.cls-1{fill:#00040c;}</style></defs><title>AL02 Elemental Evil</title><path id="_02_Elemental_Evil" data-name="02 Elemental Evil" class="cls-1" d="M50,9.76,0,38.63,30.29,58.41v19L50,90.24,69.7,77.43v-19L100,38.63ZM65.89,56.34v19L50,85.69,34.11,75.36v-19L7.29,38.83,50,14.17,92.71,38.83Zm-5.26-7.25c0,.3,0,.6,0,.88s0,.57,0,.87,0,.35-.05.52,0,.27-.07.41,0,.27-.07.41C58.89,60.51,50,75.92,50,75.92S41.11,60.51,39.56,52.18c0-.14-.05-.27-.07-.41s-.05-.28-.07-.41,0-.34-.05-.52,0-.6,0-.87,0-.58,0-.88,0-.35.05-.52,0-.27.07-.41,0-.28.07-.41C41.11,39.41,50,24,50,24s8.89,15.41,10.44,23.75c0,.13.05.27.07.41s.05.27.07.41,0,.34.05.52"/></svg>