<svg id="Adventurers_League_Season_Icons" data-name="Adventurers League Season Icons" xmlns="http://www.w3.org/2000/svg" viewBox="0 0 100 100"><defs><style>.cls-1{fill:#00040c;}.cls-2{fill:#791f00;}</style></defs><title>AL01 Tyranny of Dragons</title><g id="_01_Tyranny_of_Dragons" data-name="01 Tyranny of Dragons"><path class="cls-1" d="M58.88,9h-.61c0,.22-.73,12.33-1.35,23.39,1-.14,2.13-.25,3.3-.31C59.61,21.09,58.9,9.2,58.88,9M49.56,0c0,.29-.94,19.05-1.58,33.6a14.71,14.71,0,0,1,3.17-1.78l.51-.19C51,17.41,50.19.28,50.17,0Zm7.51,70.34c.58,10.24,1.19,20.48,1.2,20.67h.61c0-.21.74-12.39,1.36-23.48a12.3,12.3,0,0,0-3.17,2.81M49.56,100h.61c0-.23.61-12.42,1.18-24.75a10.48,10.48,0,0,0-2.9,1.54c.55,11.79,1.1,23,1.11,23.21M65.89,65.19c.5,8.07,1.06,16.39,1.1,17h.61c.06-1,1.31-19.85,1.76-28.39l-.3.13c-.18.12-2,.68-3.17,11.23m3.34-21.48-.71.48a2.09,2.09,0,0,0-.66,2.4c.19.64,1,3.26,1.61,5.1,0-.78,0-1.36,0-1.69,0-.8-.11-3.17-.29-6.29M43,35.36C42.33,23.62,41.47,9.22,41.45,9h-.6c0,.25-1,17.34-1.69,29.47l1.25-.6A12.46,12.46,0,0,1,43,35.36M67.6,17.78H67c0,.57-.48,7.24-.93,14.4.84.08,1.67.18,2.49.31-.46-7.27-.91-14.13-1-14.71M38.7,52.27c.37,9.06,2.13,38.41,2.15,38.74h.6c0-.11.23-3.72.52-8.76-2.29-3.73-.91-9.17.84-14.66.42-7.62.8-14.74.85-17.12a4.29,4.29,0,0,0-1.78-.74,3.88,3.88,0,0,0-3.18,2.54M32.13,82.22h.61c.06-.91,1.16-17.46,1.67-26.59a11.83,11.83,0,0,0-3.81,2.45c.55,9.35,1.48,23.31,1.53,24.14m.22-44-1.62,1.68c.55-9.22,1.35-21.3,1.4-22.07h.61c0,.78.87,13.19,1.43,22.45a2.86,2.86,0,0,1-1.5,1.37l-.12,0a7.56,7.56,0,0,1-.2-3.48"/><path class="cls-2" d="M44.35,39.27c-1.57,0-4.52,1.8-4.52,1.8a27.41,27.41,0,0,0-3.56,3.71,5.13,5.13,0,0,1,2.08-1.13,7.65,7.65,0,0,0,2.36-.77l.61-1.49c.25-.62,3-2.12,3-2.12M73.4,33.34s-.91,1.46-5,1.9a21.46,21.46,0,0,0-9.9,4.27l-.28.29s1.82-3.2,4-4.06a15,15,0,0,0-4,2.42C54,42.74,61.1,46.8,61.1,46.8a22.63,22.63,0,0,0-5.19-.69c-3.12,0-1.59,2.35-1.59,2.35a11.77,11.77,0,0,0-2.26-.25c-2.88,0-3.8,1.5-4.08,2.24a3.78,3.78,0,0,0-.11.41c-1.22-3.06-5-3.67-5-3.67s1.53-2.89,8.94-7c0,0-10.37,3.06-11,8.33a9,9,0,0,0-4.38-1.16,8.16,8.16,0,0,0-3.65.87l-.92,1.66s-.38-.63-.75-.63a.33.33,0,0,0-.24.11,4,4,0,0,0-.67,1L26.6,51.84s1.34-7.36,4.67-10.8c0,0,.08,1.84.6,2.05l.92.38.9-1.31a3,3,0,0,0,1.12.19c1,0,2.45-.39,3.95-2.32,0,0,.88-.47,2.44-1.19a11.81,11.81,0,0,1,4.23-3.54s-1,1.54-.13,1.81l.92-.37h0A17.17,17.17,0,0,1,51.59,33s-.88,1.22-.12,1.82A39.07,39.07,0,0,1,62.4,33.23c1,0,2,0,3,.11h0c1.07.09,2.18.23,3.31.42.51,0,1,.06,1.55.06a8,8,0,0,0,3.11-.48M61.82,38.67A23.13,23.13,0,0,1,65.24,47,114.17,114.17,0,0,1,66,59c.15-4.93,2.51-6.11,2.51-6.11s-1.08-3.46-1.81-5.94a3.33,3.33,0,0,1,1.13-3.75,6,6,0,0,1,2.49-7H70a18.35,18.35,0,0,0-8.21,2.46M60.76,39s-5.62,2,.86,7.4a7.44,7.44,0,0,1,1,1.14,32.1,32.1,0,0,0-4.85-.5c-2.16,0-3.76.51-1.5,2.54a13.86,13.86,0,0,0-2.71-.27c-2.14,0-4.87.56-5.52,3.28-.18-.23-.37-.48-.55-.74-.06-.11-1.65-3.54-4.74-3.54a4.48,4.48,0,0,0-1.22.17S47.1,48.57,47,56,39,76.14,43.27,82c0,0,2.26-7.76,10.68-8.59a13.77,13.77,0,0,1,11-8.87s-.08-13-.83-17.45A22.56,22.56,0,0,0,60.76,39M37.08,48.46a4.83,4.83,0,0,1,2.65.67c-3.25,2.42-2.5,5.27-2.5,5.27a8.34,8.34,0,0,0-1.52-.14,6.08,6.08,0,0,0-5,2.29c-1.36,1.14-2.95,2.59-2.95,2.59,1.64-4.26,0-6.48,0-6.48a8.33,8.33,0,0,0,2.67-1.15,1.28,1.28,0,0,1,.81-.48c.51,0,.57.86.57.86a9,9,0,0,0,1.57-2.51,8.5,8.5,0,0,1,3.68-.92"/></g></svg>