<svg xmlns="http://www.w3.org/2000/svg" viewBox="0 0 100 100"><defs><style>.cls-1{fill:#1d1d1b;}</style></defs><title>Faction -The Zhentarim - Icon</title><g id="Faction_Icons" data-name="Faction Icons"><path id="Zhentarim" class="cls-1" d="M51.8,97a3,3,0,1,1-3-3A3,3,0,0,1,51.8,97ZM88,42.85c-.95,2.25-2.37,5.65-3.25,7.9.3-.29.4-.76.77-1-.35,1.38-4.31,7.42-5.37,9.08C78.45,61.46,75.84,64,74.87,67c.3,0,.67.15.91,0,.4.26-11.32,8-13,8.76-1,.46-4.68,2.84-5.73,2.18,1.49-1.18-1.81-3.77-3.19-3.61a1.14,1.14,0,0,0-1.18,1.08l-.11,1.74s-.45,3.36-.47,3.45a7.21,7.21,0,0,0,0,2.7,2.15,2.15,0,0,1,0,1.28c-.38.84-.68.85-.92,1.43a4.59,4.59,0,0,0-.14.45,4,4,0,0,0,1,2.89s.18-.1.2-.56a4.76,4.76,0,0,1,0,3.52,4.07,4.07,0,0,0-.14-.53c-.34-.26.16,0-1-.22a1.11,1.11,0,0,1,.32-.17.93.93,0,0,0,.2-.07c.1-.09,0-.27,0-.35s-.64,0-.78-.06c.06-.1.47-.31.53-.4-.38-.25-.09-.06-.33-.46a.38.38,0,0,0-.44-.14c.37-.39,0-.52-.2-.58.16-.17.16-.17.15-.41-1.52-2.14-2.07-1-2.79-.5-.13.21-.36,0-.48.57s-.2.85-.39,1.3c-.7,1.61,0,1.84,1,2.51a4.35,4.35,0,0,1-2-.61,1.48,1.48,0,0,1-1.17.28,11.28,11.28,0,0,1-.39-3A6.57,6.57,0,0,1,45.31,87c1.19-1.45,1.39-3.37,2-5.13.15-.44.53-2.87.53-2.87.09-.6.08-2.38.07-3.65-.2-.81-.72-1-1.82-1.1-1.37-.19-5.5,2.22-4,3.45-1.07.63-4.66-1.84-5.67-2.33-1.7-.81-13.24-8.81-12.83-9.07a3.27,3.27,0,0,0,1.24.34c-.89-3-3.78-5.88-5.38-8.55-1-1.68-4.82-7.82-5.15-9.2.37.24.46.7.75,1-.82-2.28-2.19-5.71-3.09-8a15.57,15.57,0,0,0-3-5.25c1.83.39,5.22,6.81,5.23,6.72a12.19,12.19,0,0,0,6,5.22c0-1-.87-2.21-.47-2.37,1,2.39,5.49,5.78,5.45,5.81.93.8,4.68,3,5.33,2.49a4.36,4.36,0,0,0,.27-.79c0-.09,0-.16,0-.23s2.34,7.63,6.26,10.63c.42-.28.41-.8.63-1.12a4.78,4.78,0,0,1-.11,1.77c.27.7,1.17,3.47,2.41,4.77.47.5,1.67.82,1.93,1.39l-.59-.08c-1.29,1.35,1.59,3,2.51.25,1.41.29.8-2.26.88-2.63A10.6,10.6,0,0,0,47.2,70c-.14-.45-.3-.94-.5-1.52-2-5.79-3.6-10.63-3.2-17.26.49-7.87,9.65-18.33,8.56-24.7s-3.15-8.76-3.13-14.27c0-3.84,3.45-7.16,3.14-12.26,2.41,4.62-.57,6.9-.46,11.78.1,4.47,2.35,6.21,4.11,12.66C58,32.83,50,44.5,49.56,51.26c-.47,8,1.8,10.68,2.92,17.25a12.42,12.42,0,0,1,.15,1.37A25.54,25.54,0,0,0,54.5,68c.07.36-.6,3.54.82,3.28.85,2.78,3.77,1.19,2.51-.18l-.59.06c.28-.56,1.48-.86,2-1.35,1.28-1.26,2.24-4,2.53-4.7a4.82,4.82,0,0,1-.07-1.78c.22.33.19.85.61,1.14a20.5,20.5,0,0,0,6.38-10,3.59,3.59,0,0,1,.12-.47,3.1,3.1,0,0,0,.29,1c.63.56,4.43-1.59,5.38-2.36,0,0,4.55-3.31,5.59-5.68.39.17-.52,1.39-.53,2.36a12.24,12.24,0,0,0,6.16-5.07c0,.09,3.55-6.25,5.39-6.6A15.76,15.76,0,0,0,88,42.85ZM45.53,89.59l-.15-.45a4.23,4.23,0,0,1-.1-.68,1.72,1.72,0,0,0-.51,1.16,2.56,2.56,0,0,0,.18.68l.14.11c0-.09.06-.21.06-.21C45.43,90.08,45.53,89.59,45.53,89.59Z"/></g></svg>