<svg xmlns="http://www.w3.org/2000/svg" viewBox="0 0 100 100"><defs><style>.cls-1{fill:#00205c;}.cls-2{fill:#898a8d;}</style></defs><title>Faction -The Harpers - Symbol</title><g id="Faction_Symbols" data-name="Faction Symbols"><g id="The_Harpers" data-name="The Harpers"><path class="cls-1" d="M50,1.15A48.85,48.85,0,1,0,98.85,50,48.85,48.85,0,0,0,50,1.15M83.41,40.71l0,.33-.16.29A165.27,165.27,0,0,0,69.52,73.89a.9.9,0,0,0,.13.19A.64.64,0,0,0,69.5,74l1.2,2.54a29,29,0,0,0,5.48-3.2,2.32,2.32,0,0,1,3.14.34,2.35,2.35,0,0,1-.12,3.15A37.93,37.93,0,0,1,24.75,24a38,38,0,0,1,53.61-1.76l.56.54a2.32,2.32,0,0,1-1.62,4,2.27,2.27,0,0,1-1.36-.45,29,29,0,0,0-17.12-5.56,29.33,29.33,0,0,0-14.3,3.74l.83,1.63c2.42,4.69,5.84,6.75,11.43,6.85l1.76,0a42.32,42.32,0,0,0,8.93-1.59,24.62,24.62,0,0,1,6.39-1c3.26,0,5.77,1,7.46,2.92a10.17,10.17,0,0,1,2.09,7.41M64.58,77.51h3.71A29.15,29.15,0,0,1,42,26.08L41,35.81l.76.61a10.58,10.58,0,0,0,1.07.78,1.57,1.57,0,0,1-.16,1.16l-.26.35-.06.44C42.2,40,39.48,59.43,52.9,74l0,.06s0,0,.06,0l.12.13-.93,3.34h5.82l.37-1.35H64.2Z"/><path class="cls-2" d="M50,4A46,46,0,1,0,96,50,46,46,0,0,0,50,4m0,91.23A45.23,45.23,0,1,1,95.23,50,45.28,45.28,0,0,1,50,95.23M50,0a50,50,0,1,0,50,50A50.06,50.06,0,0,0,50,0m0,97.69A47.69,47.69,0,1,1,97.69,50,47.75,47.75,0,0,1,50,97.69M73.86,32.18A22.85,22.85,0,0,0,68,33.1a40.9,40.9,0,0,1-10.74,1.7h-.08v0l-.11,0c-7.42,0-11-3.45-13.26-7.83L42.88,35a17.25,17.25,0,0,0,1.5,1,3.67,3.67,0,0,1-.28,3.34s-3,20,10.87,34.18c0,0-.35,1.76-1.4,2.11h3l.38-1.35h8.64L66,75.71h3c-.74-.25-1.14-1.19-1.31-1.73a167,167,0,0,1,14-33.51s1.13-8.29-7.76-8.29M57.78,71.33S46.53,62.08,50.18,42l8.09,28.07c-.16.41-.33.83-.49,1.25M58.7,69,50.48,40.51c.11-.55.24-1.1.38-1.66.4.09.82.19,1.25.27l7.83,27.15c-.42.91-.84,1.83-1.24,2.77m1.7-3.72L52.88,39.23a17.49,17.49,0,0,0,2.08.18L61.7,62.78c-.44.83-.88,1.68-1.3,2.54m1.78-3.43L55.7,39.41a17.14,17.14,0,0,0,2-.15l5.84,20.26q-.69,1.15-1.35,2.37M64,58.69,58.39,39.15a17.44,17.44,0,0,0,1.91-.44l5.11,17.75c-.46.73-.93,1.47-1.39,2.23m1.9-3L61,38.5l.84-.31,1-.38,4.55,15.77c-.47.68-.95,1.38-1.43,2.11m2-2.84L63.46,37.56l1.86-.63,4,13.92c-.48.64-1,1.31-1.46,2m2-2.69L66,36.73c.64-.2,1.27-.37,1.89-.52l3.47,12.06c-.48.59-1,1.22-1.49,1.89m2-2.56L68.56,36.05c.67-.16,1.31-.28,1.93-.37L73.41,45.8c-.48.56-1,1.16-1.52,1.8M74,45.18l-2.77-9.6a18.17,18.17,0,0,1,2-.15l2.31,8c-.46.5-1,1.07-1.54,1.71m4.16-4.36s-.78.72-2.06,2.06l-2.14-7.44c3.49.16,5.32,1.82,4.2,5.38m-.17,34a.51.51,0,0,1,0,.7,36.11,36.11,0,1,1-.8-52l.53.52a.51.51,0,0,1,0,.7.55.55,0,0,1-.39.18.47.47,0,0,1-.3-.1,31,31,0,1,0,.25,49.89.55.55,0,0,1,.32-.1.49.49,0,0,1,.38.18"/></g></g></svg>