<svg xmlns="http://www.w3.org/2000/svg" viewBox="0 0 100 100"><defs><style>.cls-1{fill:#00040c;}</style></defs><title>Faction -Emerald Enclave - Icon</title><g id="Faction_Icons" data-name="Faction Icons"><path id="Emerald_Enclave" data-name="Emerald Enclave" class="cls-1" d="M72.79,17.78c-.29-1.09.39-.51,0-1.45S68.91,9.74,68,9c.1.88.61,1.31-.49,2.07-1.29.11-1.74-.31-3.12-1S62.05,7,62,6.24a9.21,9.21,0,0,0-.63-2.39,13.14,13.14,0,0,1-2.91,2.07c-1.74,1-6,1-8.72.34C46.83,5.6,40,1.82,38.64,0c.51,2.71,4.71,6.78,6.85,7.85a27.31,27.31,0,0,0,3.9,1.46,17.58,17.58,0,0,1-2.93-.4c-2.87-.67-9.7-4.44-11.06-6.26.52,2.71,4.71,6.78,6.86,7.85,3.26,1.63,10.68,3.21,13.45,4.23,1.85.68,7.89,4.95,8.31,7.29A2.94,2.94,0,0,1,64,23.39c-1.2.27-3.21,0-3.46-.62s-.16-.46.37-1.46c-2,.55-2.43,2.29-3.18,4.24a2.93,2.93,0,0,0-.43-.22c-.61-.37-.61-.37-.07-1.38-2.46,1.17-2,3.91-4,6.64-1.62.8-2.53.7-3.16.1s-.86-2.66-.75-4.37c-2.15,1.49-3.78.4-5.16-.76-1.57-1.33-1-3.52-.84-5.15-1.94,1.47-1.64,4.94-1.24,6.09a8.6,8.6,0,0,0,2.46,3.14c-1.42.26-2.59-.56-3.62-1.43-1.57-1.33-1-3.52-.83-5.15-2,1.47-1.64,4.94-1.25,6.09.91,2.67,4.87,4.13,4.73,7v.05l-.43,0a24,24,0,0,1-3.6.47c-2-.12-1.75-.14-2.9,1.36s-2.55,1.22-3.7,2.63c-1.43,1.74-5.25,1.57-5.3,2.66-.07,1.72-1.46,3.88-1.34,4.29s.22.34.47.53c1.07.81.48.27,6.49,3.48A7.69,7.69,0,0,1,37.05,48a5.13,5.13,0,0,1,1.75-.61c1.44.14,1.66.63,1.66.63s5.57.42,3.66,4.23c2.27.75-2.49,12.11-4.83,15.83-1.55,2.46-2.37,2.33-3.25,2.46-.26,1.41,5.11,13.11,8.67,15.93S51,94,51.73,100c.93-5.31,1.47-9,5.07-11.86a26.89,26.89,0,0,0,10-18,2,2,0,0,1-2.79-.75c-3.78-5.39-3.62-11.89-4-18-.3-4.9-.1-8.7.5-10.56l3.66-1.26s2.09-.55,2.09-1.2c0-.46-3.26-1.2-3.26-1.2S59,36.49,56,36a48.74,48.74,0,0,0,4.5-5.54c.12-.18.29-.41.49-.66a7.17,7.17,0,0,1,5.68-.39c1.67.57.91,1.34,1.47,1.34a1.58,1.58,0,0,0,1.46-1.34c.27-1,.46-1.8.6-2.53,1.28.55.65,1.22,1.18,1.22a1.58,1.58,0,0,0,1.46-1.34C74.62,20.24,73.2,19.31,72.79,17.78Zm-32,22.74a12.76,12.76,0,0,0-2.29,1.11,3.82,3.82,0,0,1,1.41-2.7c.86-.5,3.29-.73,3.27.4S41.43,40.35,40.77,40.52Z"/></g></svg>