<svg xmlns="http://www.w3.org/2000/svg" viewBox="0 0 100 100"><defs><style>.cls-1{fill:#878f95;}.cls-2{fill:#c3cfdb;}.cls-3{fill:#c0cdd8;}.cls-4{fill:#fff;}</style></defs><title>Faction -Order of the Gauntlet - Banner</title><g id="Faction_Banners" data-name="Faction Banners"><g id="Order_of_the_Gauntlet" data-name="Order of the Gauntlet"><path class="cls-1" d="M78.94,75.37,50,92.08,21.06,75.37V0H78.94Z"/><path class="cls-2" d="M30.6,31.61a1.85,1.85,0,0,1-.35-1.1,1.8,1.8,0,0,1,.35-1.09h0a7,7,0,0,0,1.1-2,7,7,0,0,0,1.1,2h0a1.8,1.8,0,0,1,.36,1.09,1.86,1.86,0,0,1-.36,1.1h0a6.84,6.84,0,0,0-1.1,2,6.84,6.84,0,0,0-1.1-2ZM21.06,67.8v2.94a2.68,2.68,0,0,0,0-2.94ZM24.41,53a7.15,7.15,0,0,1-1.1,2h0a1.86,1.86,0,0,0-.36,1.1,1.8,1.8,0,0,0,.36,1.09h0a7.26,7.26,0,0,1,1.1,2,7,7,0,0,1,1.1-2h0a1.74,1.74,0,0,0,.36-1.09,1.79,1.79,0,0,0-.36-1.1h0A6.84,6.84,0,0,1,24.41,53Zm-1.05.09a4.71,4.71,0,0,0,0-5.51h0a20.43,20.43,0,0,1-2.3-3.88V57a20.11,20.11,0,0,1,2.3-3.87ZM78.94,75.37V73.66a17.75,17.75,0,0,1-1.29,2.45Zm-.71-12.1h0a1.69,1.69,0,0,1-.29-.67,20.54,20.54,0,0,0-2.32,4.78,22.72,22.72,0,0,0-3.57-6.6h0a5.55,5.55,0,0,1-1-2.05,39.74,39.74,0,0,0-2,4.47,11,11,0,0,1,.38,2.34,20.21,20.21,0,0,0,2.08-4.39,22.51,22.51,0,0,0,3.56,6.6h0a5.2,5.2,0,0,1,.61,1,2,2,0,0,1,.12-.19h0a10.18,10.18,0,0,0,1.61-3,10,10,0,0,0,1.51,2.83v3.5a10.11,10.11,0,0,0-1.51,2.84,9.65,9.65,0,0,0-1.26-2.49,5.87,5.87,0,0,1-1.08,2.57h0a25.79,25.79,0,0,0-2.61,4.25l-.61.35L71,80a25.42,25.42,0,0,0-2.51-4.43,5.73,5.73,0,0,0,.4-2.13,5.56,5.56,0,0,0-1.09-3.36h0A21.16,21.16,0,0,1,64.4,63.8,21.16,21.16,0,0,1,61,70h0a5.72,5.72,0,0,0,0,6.72h0A21.27,21.27,0,0,1,64.4,83a21.09,21.09,0,0,1,3.13-5.91c.23.36.49.73.77,1.11h0A4.69,4.69,0,0,1,69.21,81L50,92.08l-7.53-4.35a12.64,12.64,0,0,1,1.24-2h0a2.89,2.89,0,0,0,0-3.39h0A10.69,10.69,0,0,1,42,79.18a11,11,0,0,1-1.71,3.16,2.58,2.58,0,0,0-.45,1,13.76,13.76,0,0,1-1.15-2.6,15.75,15.75,0,0,1-1.85,3.78l-8-4.63a9.18,9.18,0,0,1,.67-1h0a2.49,2.49,0,0,0,0-2.91h0l-.34-.47a34.44,34.44,0,0,0,2.93-6.58,26.73,26.73,0,0,0,1.15,3A5.57,5.57,0,0,1,34,70.6h0c.42-.56.79-1.11,1.13-1.63a39.22,39.22,0,0,0-1.87-3.8,5.65,5.65,0,0,1-.85,1.68h0a22.58,22.58,0,0,0-3.57,6.6,22.28,22.28,0,0,0-3.57-6.6h0a5.93,5.93,0,0,1-1.16-3.56,5.87,5.87,0,0,1,1.16-3.54h0c.35-.45.65-.89.94-1.32a1.69,1.69,0,0,0,.25.48h0a6.68,6.68,0,0,1,1.06,2,6.58,6.58,0,0,1,1.07-2h0a1.75,1.75,0,0,0,.35-1.06,1.71,1.71,0,0,0-.35-1.06h0a7.14,7.14,0,0,1-1.05-1.9c-.08-.43-.14-.87-.18-1.33a6.66,6.66,0,0,0-.8,1.62,7,7,0,0,0-1.1-2h0A1.8,1.8,0,0,1,25.06,52a1.86,1.86,0,0,1,.36-1.1h0a6.84,6.84,0,0,0,1.1-2,6.77,6.77,0,0,0,.94,1.81,11.32,11.32,0,0,1,.8-2.63,25.07,25.07,0,0,0-2.67-4.38h0a6.05,6.05,0,0,1,0-7.1h0A22.58,22.58,0,0,0,29.16,30a22.28,22.28,0,0,0,3.57,6.6h0a5.83,5.83,0,0,1,1.08,2.56,32.12,32.12,0,0,0,2.3-5.42,24,24,0,0,0,.9,2.43,7.81,7.81,0,0,1,.53-.83h0c.77-1,1.42-2,2-2.92A7.5,7.5,0,0,1,38.78,30a6.41,6.41,0,0,0-.84,1.67,7.29,7.29,0,0,0-1.1-2h0a1.86,1.86,0,0,1-.36-1.1,1.83,1.83,0,0,1,.36-1.09h0a7.26,7.26,0,0,0,1.1-2,6.73,6.73,0,0,0,1,1.83,7.3,7.3,0,0,1,1.17-2.65,3.44,3.44,0,0,1-.35-1.53V22.7l.05-1.11,1,.49.33.16.46.17a26.21,26.21,0,0,0,3.09-6.28A24,24,0,0,0,46.88,21l.11-.17.42.37a6.89,6.89,0,0,0-.11-.73,16.51,16.51,0,0,1,.75-7.41,1.48,1.48,0,0,1-.46-1.61,35.45,35.45,0,0,1,1.76-3.89l.25-.29.76-.89.48,1.06.16.35c.45,1,1.51,3.36,1.61,3.66a1.82,1.82,0,0,1-.19,1.69l-.07.1-.09.12a18.33,18.33,0,0,1,.8,5.18,6.87,6.87,0,0,0,.72-1.48,6.84,6.84,0,0,0,1.1,2h0a1.85,1.85,0,0,1,.35,1.1,1.8,1.8,0,0,1-.35,1.09h0a8.34,8.34,0,0,0-.6.92l.21.11c.12-.31.18-.49.18-.49a6.07,6.07,0,0,0,.24.67l.1,0a4.19,4.19,0,0,1,.63-1.27h0a16.49,16.49,0,0,0,2.62-4.85,16.69,16.69,0,0,0,2.63,4.85h0a4.45,4.45,0,0,1,0,5.23h0a16.69,16.69,0,0,0-2.63,4.85,14.55,14.55,0,0,0-1.41-3,2.87,2.87,0,0,1-.34.62h0c-.17.22-.32.44-.46.65l.26.36h0A5.81,5.81,0,0,1,57.44,33,9.24,9.24,0,0,1,56,35.61h0a2.4,2.4,0,0,0,0,2.85h0a11.94,11.94,0,0,1,.72,1.09,3.32,3.32,0,0,1,1.18.45,10.12,10.12,0,0,1,1-1.54h0a2.44,2.44,0,0,0,0-2.85h0l-.28-.4a15.77,15.77,0,0,0,1.87-3.77,16.49,16.49,0,0,0,2.62,4.85h0a5.14,5.14,0,0,1,.32.49l.44-.66a19,19,0,0,0-1.44-2.24h0a4.11,4.11,0,0,1,0-4.82h0a15.19,15.19,0,0,0,2.42-4.48,15.49,15.49,0,0,0,2.42,4.48h0a2.06,2.06,0,0,1,.25.4,26.43,26.43,0,0,0,1.16-3,36.4,36.4,0,0,0,3.63,7.8A16.22,16.22,0,0,1,70.64,37h0a3.75,3.75,0,0,0-.72,2.22,3.93,3.93,0,0,0,.23,1.29,6.88,6.88,0,0,1-.77,1.26h0a1.63,1.63,0,0,0-.33,1,1.65,1.65,0,0,0,.33,1h0a6.22,6.22,0,0,1,1,1.87,6.31,6.31,0,0,1,1-1.87h0a1.72,1.72,0,0,0,.3-.75,11.76,11.76,0,0,1,1.15,2.49,14.19,14.19,0,0,1,2.22-4.11h0a3.59,3.59,0,0,0,.7-2,11.09,11.09,0,0,1,1.67,5.06,10.82,10.82,0,0,1-1.62,3h0a2.81,2.81,0,0,0,0,3.31h0a10.4,10.4,0,0,1,1.66,3.08,8.68,8.68,0,0,1,.69-1.57c.23.36.49.72.76,1.09V64.4A8.21,8.21,0,0,0,78.23,63.27ZM59.7,49.68h0a8.05,8.05,0,0,1-1.07-1.9h0a2.4,2.4,0,0,1-.07,1.36A3.12,3.12,0,0,1,57,51.08a2,2,0,0,0,.36.93h0a7.47,7.47,0,0,1,1.17,2.17A7.47,7.47,0,0,1,59.7,52h0a2,2,0,0,0,0-2.33ZM44.79,60a6.68,6.68,0,0,1-1.06-2,6.68,6.68,0,0,1-1.06,2A1.75,1.75,0,0,0,42.32,61a1.71,1.71,0,0,0,.35,1.06,6.68,6.68,0,0,1,1.06,2,6.68,6.68,0,0,1,1.06-2A1.71,1.71,0,0,0,45.14,61,1.75,1.75,0,0,0,44.79,60Zm2.57-10.78a2.76,2.76,0,0,0-.53,1.66v.06l.5.22c0,.46,0,.9,0,1.33,0,0,0,0,0,0h0A10.61,10.61,0,0,1,49,55.58a10.4,10.4,0,0,1,1.66-3.08h0a2.81,2.81,0,0,0,0-3.31h0A10.4,10.4,0,0,1,49,46.11a10.61,10.61,0,0,1-1.67,3.08ZM41.45,31.52a2.28,2.28,0,0,0-.3.58,1.45,1.45,0,0,0-.17.7,1.56,1.56,0,0,0,.15.66,2.32,2.32,0,0,0,.32.65h0a9.41,9.41,0,0,1,.54.8L42,35a3,3,0,0,0-.06.52,2.2,2.2,0,0,0,.43,1.33h0a8.9,8.9,0,0,1,1.08,1.81H44a9.53,9.53,0,0,1,1.07-1.8h0a2.2,2.2,0,0,0,.43-1.33,2.23,2.23,0,0,0-.43-1.34h0a9.7,9.7,0,0,1-.63-.95,2.56,2.56,0,0,0,0-.39,2.17,2.17,0,0,0-.42-1.3h0a8.27,8.27,0,0,1-1.3-2.4,7.12,7.12,0,0,1-.56,1.26.84.84,0,0,0,0-.1,3.37,3.37,0,0,1-.2.51,8,8,0,0,1-.5.73ZM32.59,47a10.4,10.4,0,0,1,2,1.4,1.61,1.61,0,0,0-.27-.52h0a7.19,7.19,0,0,1-1.14-2.12A6.1,6.1,0,0,1,32.59,47Zm5.2,4.94A11,11,0,0,1,42,50.57l0,.89.28-.06a12.12,12.12,0,0,1,2-.2l.54,0v-.09A4.48,4.48,0,0,0,44,48.44h0a17,17,0,0,1-2.7-5,17,17,0,0,1-2.7,5h0a4.48,4.48,0,0,0-.87,2.69A4,4,0,0,0,37.79,51.91ZM47,69.77c.19,1.87,1.32,6.64,2.12,9.83l.3-.42h0a4.28,4.28,0,0,0,0-5h0A16.81,16.81,0,0,1,47,69.77ZM57.36,49.68a2.13,2.13,0,0,0-.23.42,2.48,2.48,0,0,0,.69-1.1c-.13.21-.28.44-.46.68Zm-4.42-17V31.08a2,2,0,0,0-.18.82A2.08,2.08,0,0,0,52.94,32.7Zm4.27,7.76a5.57,5.57,0,0,1,.25.66s0-.16.16-.44A2.32,2.32,0,0,0,57.21,40.46Zm-1.4-8.56a1.93,1.93,0,0,0-.37-1.15h0l-.06-.08a9.78,9.78,0,0,0-.71,1.65,10.71,10.71,0,0,0-1-2.1v3.63a6.54,6.54,0,0,1,.61,1.32A7.2,7.2,0,0,1,55.44,33h0A1.87,1.87,0,0,0,55.81,31.9ZM47,22.18a2.61,2.61,0,0,1-1.37,1,2.5,2.5,0,0,0-.24,1.06,2.39,2.39,0,0,0,.46,1.42h0l0,0a3.91,3.91,0,0,0,1.1-.27,1.08,1.08,0,0,1,.48-.13c.27,0,.31.19.31.19,0,.48-.34.62-1.43.88a8.45,8.45,0,0,1,.95,2,9,9,0,0,1,1.43-2.64h0a2.34,2.34,0,0,0,.45-1.2l0,0h0a7.34,7.34,0,0,1,1.38,3.46,20.2,20.2,0,0,0,2.2-4.6,14,14,0,0,0,.5,1.32A12.86,12.86,0,0,0,54.19,23a1.71,1.71,0,0,1-.23-.13,3.71,3.71,0,0,0-.18.47,5.42,5.42,0,0,0-.42-1,2.09,2.09,0,0,1-.14-.17l-.15-.24-.22.19a1.27,1.27,0,0,1-.62.36,3.2,3.2,0,0,1,0-2.16,15.8,15.8,0,0,0-.8-7.24c0-.1-.05-.17,0-.2s.17-.09.28-.09h.13l.07-.1a1.12,1.12,0,0,0,.09-1c-.1-.29-1.44-3.26-1.6-3.6l-.15-.35-.25.3a38.92,38.92,0,0,0-1.63,3.65c-.19.54.31.93.64,1.07a1.45,1.45,0,0,1-.1.33A15.82,15.82,0,0,0,48,20.33,3.05,3.05,0,0,1,48,22.48a1.12,1.12,0,0,1-.62-.35l-.21-.19Zm-6.54.93a2.35,2.35,0,0,0,.13.77c.21-.28.4-.56.59-.84l-.37-.14-.33-.16ZM30.07,38.8a2.24,2.24,0,0,0,0,2.61h0a8.26,8.26,0,0,1,1.31,2.42,8.26,8.26,0,0,1,1.31-2.42,2.24,2.24,0,0,0,0-2.61h0a8.26,8.26,0,0,1-1.31-2.42,8.26,8.26,0,0,1-1.31,2.42ZM34.3,50.13h0a1.68,1.68,0,0,0,.31-.66,8.82,8.82,0,0,0-2.42-1.86l-.18.25h0a1.89,1.89,0,0,0,0,2.27h0a7.12,7.12,0,0,1,1.15,2.11A7.22,7.22,0,0,1,34.3,50.13Zm2.16,30.34a1.82,1.82,0,0,0,.35-1.06,1.77,1.77,0,0,0-.35-1.06h0a6.68,6.68,0,0,1-1.06-2,6.58,6.58,0,0,1-1.07,2h0A1.71,1.71,0,0,0,34,79.41a1.75,1.75,0,0,0,.35,1.06h0a6.58,6.58,0,0,1,1.07,2,6.68,6.68,0,0,1,1.06-2ZM44,53.82h0a4.46,4.46,0,0,0,.8-1.86l-.47,0a12.24,12.24,0,0,0-1.89.19l-.27.06-.84.17,0-.85v-.1A11.07,11.07,0,0,0,38,52.65a4.41,4.41,0,0,0,.61,1.16h0a17,17,0,0,1,2.7,5A17,17,0,0,1,44,53.82Zm-1.57,17.1h0a7.72,7.72,0,0,1,1.23,2.28,7.72,7.72,0,0,1,1.23-2.28h0a2,2,0,0,0,.4-1.22,2,2,0,0,0-.4-1.23h0a7.74,7.74,0,0,1-1.23-2.27,7.74,7.74,0,0,1-1.23,2.27A2,2,0,0,0,42,69.7,2,2,0,0,0,42.42,70.92Zm4.45,12.93a14.62,14.62,0,0,1,1.67-3.42c-.74-3-1.85-7.53-2.21-9.94a14.64,14.64,0,0,1-1.65,2.8h0a3.06,3.06,0,0,0-.52,1.14,4.15,4.15,0,0,0-.63,2.23,4.2,4.2,0,0,0,.82,2.52h0A15.81,15.81,0,0,1,46.87,83.85Zm12.84-5.51h0a10.31,10.31,0,0,1-1.67-3.08,10.4,10.4,0,0,1-1.66,3.08h0A2.73,2.73,0,0,0,55.85,80a2.7,2.7,0,0,0,.54,1.65h0a10.3,10.3,0,0,1,1.66,3.07,10.21,10.21,0,0,1,1.67-3.07h0A2.7,2.7,0,0,0,60.25,80,2.73,2.73,0,0,0,59.71,78.34Zm3.08-14.58a4.59,4.59,0,0,0,0-5.38h0a17,17,0,0,1-2.7-5,17,17,0,0,1-2.7,5h0a4.55,4.55,0,0,0,0,5.38h0a17,17,0,0,1,2.7,5,17,17,0,0,1,2.7-5ZM66,33.66A2.85,2.85,0,0,0,66,37h0a10.6,10.6,0,0,1,1.68,3.1A10.39,10.39,0,0,1,69.31,37h0a2.85,2.85,0,0,0,0-3.34h0a10.39,10.39,0,0,1-1.67-3.1A10.6,10.6,0,0,1,66,33.66ZM64.69,44h0a7.19,7.19,0,0,1,1.14,2.12A7.1,7.1,0,0,1,67,44h0a2,2,0,0,0,0-2.27h0a7.23,7.23,0,0,1-1.15-2.12,7.33,7.33,0,0,1-1.14,2.12h0a1.93,1.93,0,0,0,0,2.27Zm5.63,12a2.85,2.85,0,0,0,0-3.34h0a10.6,10.6,0,0,1-1.68-3.1,10.25,10.25,0,0,1-1.29,2.56,2,2,0,0,0-.28-.58,7.12,7.12,0,0,1-1.15-2.11,7.22,7.22,0,0,1-1.14,2.11h0a1.92,1.92,0,0,0-.37,1.14,1.9,1.9,0,0,0,.37,1.14h0A7.19,7.19,0,0,1,65.92,56a6.84,6.84,0,0,1,.54-1.19A2.79,2.79,0,0,0,67,56h0a10.39,10.39,0,0,1,1.67,3.1A10.6,10.6,0,0,1,70.32,56ZM26.76,71.6h0A12.24,12.24,0,0,1,24.82,68a12.24,12.24,0,0,1-1.94,3.59h0a3.2,3.2,0,0,0-.62,1.93,1.5,1.5,0,0,0,0,.22,8.75,8.75,0,0,1-1-2,4.66,4.66,0,0,1-.26.67v2.91l2.11,1.22a2.5,2.5,0,0,0,.09-.61c.25.36.46.71.64,1l1.42.82a13.37,13.37,0,0,1,1.44-2.37h0a3.27,3.27,0,0,0,0-3.86Zm48,6.16.2-.12-.08-.23Z"/><polygon class="cls-3" points="50.49 93.42 50 93.7 49.51 93.42 28.65 81.37 28.65 87.67 50 100 71.35 87.67 71.35 81.37 50.49 93.42"/><path class="cls-4" d="M58.91,45.58v-.31c0-1-.45-1.35-.84-1.52a1.23,1.23,0,0,0,.34-.65,3,3,0,0,0-.7-2.36,2.94,2.94,0,0,0-1.44-.52,4.72,4.72,0,0,1-.53-.12L55.55,40a3.69,3.69,0,0,0-.7-.18,1.75,1.75,0,0,0-.92-2.14h0l-1-.15,0-8a2.94,2.94,0,0,1,1.39-2.68l.56-.31-.62-.14c-1.42-.32-1.82-.44-1.82-1,0,0,0-.19.31-.19a1.15,1.15,0,0,1,.48.13,14.48,14.48,0,0,0,4.1.49l1.4.07.44,0L59,25.59c-.06-.1.16-.57.29-.85a3.72,3.72,0,0,0,.48-1.63v-.37l-.34.16a7.09,7.09,0,0,1-2.85.56,3.91,3.91,0,0,1-3.34-1.28l-.15-.24-.22.19a1.27,1.27,0,0,1-.62.36,3.2,3.2,0,0,1,0-2.16,15.8,15.8,0,0,0-.8-7.24c0-.1-.05-.17,0-.2s.17-.09.28-.09h.13l.07-.1a1.12,1.12,0,0,0,.09-1c-.1-.29-1.44-3.26-1.6-3.6l-.15-.35-.25.3a38.92,38.92,0,0,0-1.63,3.65c-.19.54.31.93.64,1.07a1.45,1.45,0,0,1-.1.33A15.82,15.82,0,0,0,48,20.33,3.05,3.05,0,0,1,48,22.48a1.12,1.12,0,0,1-.62-.35l-.21-.19-.16.24a3.89,3.89,0,0,1-3.33,1.28,7.14,7.14,0,0,1-2.86-.56l-.33-.16,0,.37a4,4,0,0,0,.48,1.63c.13.28.35.75.3.85L41,26l.43,0,1.41-.07a14.48,14.48,0,0,0,4.1-.49,1.08,1.08,0,0,1,.48-.13c.27,0,.31.19.31.19,0,.53-.41.65-1.82,1l-.62.14.56.31a3,3,0,0,1,1.39,2.7l0,9c-.52.34-1.19.76-1.7,1.07a.78.78,0,0,1,0-.09l.12-.47-.44.18a5.27,5.27,0,0,1-1.71.16c-1,0-1.93-.07-1.93-.07l-.28,0,0,.86a5.4,5.4,0,0,1-3.11-2.07L38,37.64l-.15.49c0,.06-1.74,5.49-6.79,7.66l-.53.23.53.22c3.26,1.34,5.09,3.21,5.78,5.9l.09.35.29-.22A10.56,10.56,0,0,1,42,50.57l0,.89.28-.06a12.12,12.12,0,0,1,2-.2,4,4,0,0,1,1.39.19l.41.16L46,51.11a5.5,5.5,0,0,1-.1-.59l1.4.61c0,8.14.06,12.36.07,12.92,0,.26,0,.55,0,.85.07,1.45.16,3.43-.44,4.17l0,.07v.07c-.1,1.79,2.8,13,2.92,13.44l.23.9.24-.9c.5-1.94,3-11.7,2.92-13.44v-.07l0-.07c-.6-.74-.5-2.72-.43-4.17,0-.3,0-.59,0-.85,0-.67.05-6.52.07-11.42h.42a1.77,1.77,0,0,0,.65-.07l.37-.09c1-.23.91-1.23.87-1.76,0-.05,0-.11,0-.17a3.28,3.28,0,0,0,.53,0h0a.88.88,0,0,0,.28,0,1.43,1.43,0,0,0,.64-.17,2.43,2.43,0,0,0,1.22-1.53,1.56,1.56,0,0,0-.22-1.52,2.09,2.09,0,0,0,.95-.5A1.68,1.68,0,0,0,58.91,45.58Z"/></g></g></svg>