<svg xmlns="http://www.w3.org/2000/svg" viewBox="0 0 100 100"><defs><style>.cls-1{fill:#00040c;}</style></defs><title>Faction -Lords&amp;apos; Alliance - Icon</title><g id="Faction_Icons" data-name="Faction Icons"><path id="Lords_Alliance" data-name="Lords Alliance" class="cls-1" d="M98.57,65.06c-1-2-2.84-5.72-3.11-9.07a9.59,9.59,0,0,1,.36-4.22L97.55,47s-4.19-9.34-6.64-11.34A30.13,30.13,0,0,1,88.5,43a3.43,3.43,0,0,1-5.06,1.49c-1.1-.62-2.62-3.48-1.92-6.26.47-1.92.58-5.83,2.7-9.68,0,0-6.57-7.42-10.27-9.52-.6,6.82-1.18,12.38-2,15.24-.63,2.21-2.08,5.24-5.23,4.58s-4.47-5.12-4.26-8.24c.26-3.85,1.09-14.42,3.92-17C63.27,12.68,50.38,4,50,3.76c-.41.28-13.24,8.92-16.36,9.79,3.08,3.29,3.45,13.94,3.91,17s-1.11,7.57-4.26,8.24-4.6-2.37-5.23-4.58c-.8-2.86-1.38-8.42-2-15.24-3.7,2.1-10.27,9.52-10.27,9.52,2.12,3.85,2.22,7.76,2.7,9.68.7,2.78-.82,5.64-1.92,6.26a3.42,3.42,0,0,1-5-1.49,29.23,29.23,0,0,1-2.42-7.29C6.64,37.68,2.45,47,2.45,47l1.73,4.75A9.78,9.78,0,0,1,4.54,56c-.28,3.35-2.15,7-3.11,9.07A15.94,15.94,0,0,0,.09,73.49c.26,2.57,2.74,7.37,4,8.89a28.81,28.81,0,0,0,8.17,6.53,2.61,2.61,0,0,0,1.7.28,2.1,2.1,0,0,1,2.79,1.31c.2.48,2.27,5.74,2.27,5.74L17.7,69.63a11,11,0,0,0-3.82,1.24c.38,1.45.31,4.66-.78,5-.68.22-2.82.38-4.26-3.28a10.26,10.26,0,0,1-.68-5.33C15.52,59.39,30.84,52.82,50,52.76s34.5,6.63,41.86,14.52a10.15,10.15,0,0,1-.68,5.33c-1.44,3.66-3.59,3.5-4.26,3.28-1.1-.36-1.16-3.57-.78-5a11,11,0,0,0-3.82-1.24L81,96.24s2-5.26,2.26-5.74a2.1,2.1,0,0,1,2.79-1.31,2.61,2.61,0,0,0,1.7-.28A28.81,28.81,0,0,0,96,82.38c1.22-1.52,3.7-6.32,4-8.89A15.94,15.94,0,0,0,98.57,65.06Z"/></g></svg>