<svg xmlns="http://www.w3.org/2000/svg" viewBox="0 0 100 100"><defs><style>.cls-1{fill:#1d4a33;}.cls-2{fill:#988312;}</style></defs><title>Faction -Emerald Enclave - Symbol</title><g id="Faction_Symbols" data-name="Faction Symbols"><g id="Emerald_Enclave" data-name="Emerald Enclave"><path class="cls-1" d="M56.8,88.14a26.83,26.83,0,0,0,10-18,2,2,0,0,1-1,.32,2.18,2.18,0,0,1-1.73-1.07c-3.78-5.39-3.62-11.89-4-18-.3-4.9-.1-8.7.5-10.56l3.66-1.26s2.09-.55,2.09-1.2c0-.46-3.26-1.2-3.26-1.2S59,36.49,56,36a47.68,47.68,0,0,0,4.5-5.54,7.31,7.31,0,0,1,.49-.66,7.21,7.21,0,0,1,3.27-.8,7.39,7.39,0,0,1,2.41.41c1.66.56.92,1.33,1.46,1.33h0a1.56,1.56,0,0,0,1.47-1.33c.26-1,.45-1.8.59-2.54,1.27.55.66,1.23,1.17,1.23h0a1.58,1.58,0,0,0,1.46-1.34c1.8-6.56.38-7.49,0-9-.29-1.09.39-.51,0-1.45S68.91,9.74,68,9c.1.88.61,1.31-.49,2.07l-.38,0c-1,0-1.51-.4-2.74-1C62.94,9.41,62.05,7,62,6.24a9.21,9.21,0,0,0-.63-2.39,13.14,13.14,0,0,1-2.91,2.07,10,10,0,0,1-4.48.79,19.22,19.22,0,0,1-4.24-.45C46.83,5.6,40,1.82,38.64,0c.51,2.71,4.71,6.78,6.85,7.85a27.31,27.31,0,0,0,3.9,1.46,17.58,17.58,0,0,1-2.93-.4c-2.87-.67-9.7-4.44-11.06-6.26.52,2.71,4.71,6.78,6.86,7.85,3.26,1.63,10.68,3.21,13.45,4.23,1.85.68,7.89,4.95,8.31,7.29A3,3,0,0,1,64,23.39a5.62,5.62,0,0,1-1.13.11c-1,0-2.15-.25-2.33-.72-.29-.75-.16-.47.37-1.47-2,.55-2.43,2.29-3.18,4.23a4.19,4.19,0,0,0-.43-.21c-.61-.37-.61-.37-.07-1.38-2.46,1.17-2,3.91-4,6.64a4.55,4.55,0,0,1-1.95.57,1.67,1.67,0,0,1-1.21-.47c-.7-.67-.86-2.66-.75-4.37a3.6,3.6,0,0,1-2.07.72,5,5,0,0,1-3.09-1.48c-1.57-1.33-1-3.52-.84-5.15-1.94,1.47-1.64,4.94-1.24,6.09a8.71,8.71,0,0,0,2.46,3.15,3.12,3.12,0,0,1-.52,0,5,5,0,0,1-3.1-1.48c-1.57-1.33-1-3.52-.83-5.15-2,1.47-1.64,4.94-1.25,6.09.91,2.67,4.87,4.13,4.73,7a.13.13,0,0,1,0,.06l-.42,0a27.15,27.15,0,0,1-3.45.48h-.15c-.45,0-.79-.06-1.06-.06-.89,0-.95.26-1.84,1.41-1.08,1.41-2.54,1.22-3.7,2.63-1.43,1.74-5.25,1.57-5.3,2.66-.07,1.72-1.46,3.88-1.34,4.29s.21.34.47.54c1.07.8.48.26,6.49,3.47A7.63,7.63,0,0,1,37.05,48a5.13,5.13,0,0,1,1.75-.61c1.44.14,1.66.63,1.66.63s5.57.42,3.66,4.23c2.27.75-2.5,12.12-4.83,15.83-1.55,2.46-2.37,2.33-3.26,2.46-.25,1.41,5.12,13.11,8.69,15.93S51,94,51.73,100c.93-5.3,1.47-9,5.07-11.86m-16-47.61a12.25,12.25,0,0,0-2.29,1.1,3.82,3.82,0,0,1,1.41-2.7,4.08,4.08,0,0,1,1.85-.41c.76,0,1.43.22,1.42.81,0,1-1.74,1-2.39,1.2M89.39,50A39.32,39.32,0,0,0,74.8,19.42a9.33,9.33,0,0,0-.4-1.17,40,40,0,0,1-17,71.11l.23-.18c.29-.23.57-.48.85-.72A39.45,39.45,0,0,0,89.39,50M10.61,50a39.44,39.44,0,0,0,35,39.14c.18.23.36.47.53.73A40.06,40.06,0,0,1,40.6,11.06c.29.2.56.36.81.5A39.46,39.46,0,0,0,10.61,50M47.07,91.43c.36.65.71,1.35,1,2.07A43.54,43.54,0,0,1,37.43,8.31a22.72,22.72,0,0,0,1.69,1.6,41.54,41.54,0,0,0,8,81.52M93.55,50A43.6,43.6,0,0,1,54.93,93.26,16.72,16.72,0,0,1,56,91.1,41.52,41.52,0,0,0,74.18,16.25a4.31,4.31,0,0,0-.15-.43c-.19-.44-1-1.82-1.92-3.32A43.56,43.56,0,0,1,93.55,50"/><path class="cls-2" d="M41.41,11.56l.25.14a58.63,58.63,0,0,0,9.1,3c1.8.49,3.51,1,4.49,1.32a22.94,22.94,0,0,1,5.62,3.93l-.34.09a4.6,4.6,0,0,0-2.92,2.26l-1,.47c-2,.93-2.55,2.57-3.11,4.16a12.18,12.18,0,0,1-1.18,2.63,2.81,2.81,0,0,1-1,.29.34.34,0,0,1-.28-.1,7,7,0,0,1-.35-3.31l.18-2.77-2.27,1.58a2.38,2.38,0,0,1-1.31.48A3.76,3.76,0,0,1,45,24.53c-.76-.63-.67-1.72-.45-3.31,0-.23.06-.44.08-.65L45,17.46l-2.49,1.89a4.39,4.39,0,0,0-.87.85L39.28,22c-2.55,1.93-2.24,6-1.71,7.59a9.48,9.48,0,0,0,2.68,3.56,9.2,9.2,0,0,1,1.72,2,17,17,0,0,1-2.28.29H39.5c-.41,0-.74,0-1,0a2.86,2.86,0,0,0-2.62,1.56l-.28.37a3.36,3.36,0,0,1-1.35.93,5.93,5.93,0,0,0-2.33,1.66A5.74,5.74,0,0,1,29.23,41c-1.34.37-2.86.78-2.92,2.26a8.76,8.76,0,0,1-.84,2.63c-.4.92-.64,1.47-.46,2.1a1.87,1.87,0,0,0,.92,1.22l0,0a8.15,8.15,0,0,0,1.72,1c.74.36,2.11,1,4.94,2.55l1.35.73.54-1.45a6.49,6.49,0,0,1,3.14-2.89,4.79,4.79,0,0,1,1.16-.45,2.09,2.09,0,0,1,.54.12l.19.44.8.06c.9.07,2.39.48,2.75,1.11a1.35,1.35,0,0,1-.18,1.18l-.7,1.39,1.16.38c.23,1.8-2.56,9.71-5.23,13.95-1.06,1.69-1.49,1.74-2,1.81l-.28,0-1,.15-.17.94c-.43,2.36,5.66,14.45,9.16,17.22a6.07,6.07,0,0,1,1.71,1.58,39.39,39.39,0,0,1-4.18-77.58M58.5,88.46a39.37,39.37,0,0,0,16.3-69c.36,1.39.47,3.54-.69,7.74a2.9,2.9,0,0,1-2.76,2.32,1.57,1.57,0,0,1-.37-.05c0,.12-.07.25-.1.37a2.9,2.9,0,0,1-2.77,2.32,1.56,1.56,0,0,1-1.56-1.26,2.08,2.08,0,0,0-.33-.14,6,6,0,0,0-2-.34,5.93,5.93,0,0,0-2.41.53,3.84,3.84,0,0,0-.22.32,48.44,48.44,0,0,1-3,3.86l4.62.73h.08c3.26.74,4.3,1.35,4.3,2.51s-1,1.95-3,2.48l-2.94,1a39,39,0,0,0-.27,9.44l.12,2.25c.26,5.23.54,10.63,3.64,15,.16.24.42.5.63.5a.9.9,0,0,0,.38-.13l2.34-1.38-.33,2.7A28.32,28.32,0,0,1,58.5,88.46M46.12,89.87A40.06,40.06,0,0,1,40.6,11.06c-.46-.32-1-.71-1.48-1.15a41.54,41.54,0,0,0,8,81.52c-.31-.56-.62-1.08-1-1.56M74.18,16.25a1.71,1.71,0,0,1-.08,1.23,6.06,6.06,0,0,0,.23.61,1.11,1.11,0,0,0,.07.16,40,40,0,0,1-17,71.11A6.7,6.7,0,0,0,56,91.1,41.52,41.52,0,0,0,74.18,16.25"/></g></g></svg>