<svg xmlns="http://www.w3.org/2000/svg" viewBox="0 0 100 100"><defs><style>.cls-1{fill:#00040c;}</style></defs><title>Faction -Order of the Gauntlet - Icon</title><g id="Faction_Icons" data-name="Faction Icons"><path id="Order_of_the_Gauntlet" data-name="Order of the Gauntlet" class="cls-1" d="M60.23,22.82c1.09.55,4.47.57,6.91.72-.3-.58,1-2.22,1-3.48C66,21.12,61.31,21.41,59.79,19c-.78.74-1.18.54-1.18.54-.5-.64-.44-1.92-.19-3.26a22.06,22.06,0,0,0-1-9.55c-.33-.86.62-.84.62-.84a1.21,1.21,0,0,0,.06-1.05c-.13-.39-2-4.81-2-4.81-.29.36-1.89,4.42-2,4.81-.22.65.68,1.05.68,1.05s.33,0,0,.84a22.06,22.06,0,0,0-1,9.55c.25,1.34.31,2.62-.19,3.26,0,0-.4.2-1.18-.54-1.51,2.44-6.21,2.15-8.3,1.09,0,1.26,1.25,2.9,1,3.48,2.45-.15,5.82-.17,6.91-.72s1.45.13,1.45.37c0,1-.8,1.21-2.55,1.63a4.47,4.47,0,0,1,1.93,3.91s0,5.24,0,12.2c-.82.59-2,1.37-2.85,1.88A4.43,4.43,0,0,1,50,42c-1,.44-4.79.14-4.79.14l.06,1.22a7.29,7.29,0,0,1-4.55-3s-2.18,7.48-8.83,10.5c4.66,2,6.74,4.83,7.55,8.15A12.83,12.83,0,0,1,46,56.64L46,57.76s2.95-.64,4.54,0c-.07-.38-.14-.85-.2-1.4l2.47,1.14c0,8.93.07,16.69.1,17.57.05,2.16.42,5.66-.58,7-.13,2.37,3.71,18,3.71,18,.37-1.48,3.84-15.59,3.72-18-1-1.31-.64-4.81-.59-7,0-.81.06-7.56.09-15.66h.37a4,4,0,0,0,1.71-.23c1.36-.33.72-2.19.89-2.64a4.86,4.86,0,0,0,1,.1,1.06,1.06,0,0,0,1-.13,2.87,2.87,0,0,0,1.41-1.86A1.72,1.72,0,0,0,65,52.52a3.11,3.11,0,0,0,1.67-.71c.42-.47.34-1,.34-2,0-1.75-.94-1.67-1.44-2,1.52-.45.65-3.31,0-3.84a6.28,6.28,0,0,0-2.41-.8,5.89,5.89,0,0,0-1.44-.37c.68-2.19-.89-2.83-.89-2.83l-1.47-.24c0-6.37,0-11,0-11a4.46,4.46,0,0,1,1.94-3.91c-1.76-.42-2.56-.62-2.56-1.63C58.78,23,59.13,22.26,60.23,22.82Z"/></g></svg>