<svg xmlns="http://www.w3.org/2000/svg" viewBox="0 0 100 100"><defs><style>.cls-1{fill:#949498;}.cls-2{fill:#232962;}.cls-3{fill:#fff;}</style></defs><title>Faction -The Harpers - Banner</title><g id="Faction_Banners" data-name="Faction Banners"><g id="The_Harpers" data-name="The Harpers"><polygon class="cls-1" points="50.49 93.42 50 93.7 49.51 93.42 28.65 81.37 28.65 87.67 50 100 71.35 87.67 71.35 81.37 50.49 93.42"/><polygon class="cls-2" points="78.94 75.37 50 92.08 21.06 75.37 21.06 0 78.94 0 78.94 75.37"/><path class="cls-1" d="M34.29,13.94a2.37,2.37,0,0,0-.78-.32,4.91,4.91,0,0,1,1.42-1.53,1.41,1.41,0,0,1-.3-2.13,4.52,4.52,0,0,0,.79-1.71,11.82,11.82,0,0,1,0,5.23c.32-.19.66-.71.93-1.92l.33-.59L37.11,12,37.48,11l.33.59c.29,1.33.68,1.83,1,2A20.92,20.92,0,0,0,40,11.67s1.9,3.62,3.62,4.53A2.56,2.56,0,0,0,43,20.09c.14.19.26.4.39.6a23.72,23.72,0,0,0-8.19,5.42,8.87,8.87,0,0,1,1-5A4.36,4.36,0,0,0,35,19.8a1.52,1.52,0,0,0,.32-2.31,5.25,5.25,0,0,1-1-3.55M32.63,35.81a1.93,1.93,0,0,1-.57.64c1,.56,2.2,2.76,2.2,2.76s1.16-2.2,2.2-2.76a1.56,1.56,0,0,1-.33-2.37c1.11-1.43,1.27-3.63.78-4.35,0,0-1.22,1.49-1.93-1.71l-.19-.34c-.14.15-.27.31-.4.47l-.13.37,0-.15a22.74,22.74,0,0,0-2.94,4.76,3.54,3.54,0,0,1-.67,1.7l-.09.15-.18.51v0a1.6,1.6,0,0,1,2.3.27M62.11,53.19l-.55-1L60.93,54,60.3,52.2l-.55,1C58.58,58.44,56.59,56,56.59,56a3.64,3.64,0,0,0-.43,2,.64.64,0,0,0,1,0,1.5,1.5,0,0,1,.15.38h3.24l.24.86h1.9c-.47-.16-.72-.76-.83-1.1.12-.43.41-1.43.88-2.88a9.45,9.45,0,0,1-.65-2M41.13,30c1-4.52,2.63-3.34,3.06-2.92.08-.07.18-.13.27-.2a4.5,4.5,0,0,0,.27-1.69.65.65,0,0,0-1,0A3.76,3.76,0,0,1,44.09,22c-.09-.23-.2-.45-.31-.67a23,23,0,0,0-8.33,5.61,1.57,1.57,0,0,0,.16.29s2-2.44,3.17,2.81l.54,1L40,29.23l.56,1.6c.19-.25.39-.5.59-.74Zm26,30.28c.45-.39.89-.78,1.32-1.21a.32.32,0,0,0,0-.44.33.33,0,0,0-.25-.12l-.07,0a3,3,0,0,1-.27.43,5.92,5.92,0,0,0-.75,1.32M57.31,67c1.72.9,3.62,4.52,3.62,4.52a21.39,21.39,0,0,1,1.12-1.85c.34.14.73.63,1,2l.32.6.38-1.08.37,1.08.33-.6c.27-1.21.61-1.73.94-1.91a11.75,11.75,0,0,0,0,5.22,4.63,4.63,0,0,1,.79-1.7,1.4,1.4,0,0,0-.3-2.13,4.84,4.84,0,0,0,1.42-1.54,2.16,2.16,0,0,1-.78-.31,5.23,5.23,0,0,0-1-3.55,1.53,1.53,0,0,1,.32-2.32,3.19,3.19,0,0,1-.79-.68,23.81,23.81,0,0,1-6.79,3,3.24,3.24,0,0,1-1,1.25M63,58.51l2.57.86.07,0A5,5,0,0,0,65.27,56a1.25,1.25,0,0,1-2,.06c-.28.9-.48,1.59-.6,2a.84.84,0,0,0,.29.43M53,65.34l-.18.51h.45Zm1.88,8.4a2,2,0,0,0,.41,3c-1.32.7-2.77,3.47-2.77,3.47S51,77.42,49.71,76.72a2,2,0,0,0,.42-3c-1.39-1.8-1.6-4.58-1-5.48,0,0,1.39,1.7,2.3-1.67h1l.05.13,0-.13,1,0c.91,3.39,2.31,1.69,2.31,1.69a1.93,1.93,0,0,1,.27.79,8.63,8.63,0,0,0,1.11-1.6,6.09,6.09,0,0,0,1.6,2,1.13,1.13,0,0,0-.24,1.71,3.36,3.36,0,0,1,.56,3.15s-.88-1.07-1.4,1.24l-.24.44-.28-.8-.28.8-.24-.44c-.51-2.31-1.39-1.24-1.39-1.24a1.64,1.64,0,0,1-.19-.92l-.25.36m1.21-2.95a1,1,0,0,0,.07-.57,4,4,0,0,1-.07.57M52,65.34l-.28.52h.46ZM22.57,1a2.44,2.44,0,0,1-.83-1h-.68V2.45A5.52,5.52,0,0,1,22.57,1M48.4,3s1.45,2.78,2.77,3.47a2,2,0,0,0-.41,3c1.38,1.81,1.59,4.58,1,5.49,0,0-1.53-1.88-2.43,2.15l-.42.76L48.4,16.5l-.49,1.39-.42-.76c-.9-4-2.42-2.15-2.42-2.15a2,2,0,0,1-.28-.79,8.29,8.29,0,0,0-1.11,1.6,6.16,6.16,0,0,0-1.59-2,1.13,1.13,0,0,0,.23-1.72,3.38,3.38,0,0,1-.55-3.15S42.64,10,43.16,7.7l.24-.44.28.8.28-.8.24.44c.52,2.31,1.39,1.23,1.39,1.23a1.68,1.68,0,0,1,.19.93c.08-.13.17-.25.26-.37a2,2,0,0,0-.42-3C46.94,5.82,48.4,3,48.4,3m-3.58,9.41a1,1,0,0,0-.07.57,5.54,5.54,0,0,1,.07-.57m-16,26.17c.06-.34.12-.67.2-1a3.57,3.57,0,0,0-1.1-1.2,1,1,0,0,0,.22-1.58,3.09,3.09,0,0,1-.51-2.89s.81,1,1.28-1.14l.22-.4.26.73.26-.73.21.4c.35,1.54.86,1.45,1.12,1.28a23.45,23.45,0,0,1,1.6-2.73q-.18-.53-.42-1.05a4.41,4.41,0,0,1,1.27-1.17,1.92,1.92,0,0,1-.41-2.9c1.35-1.74,1.55-4.43.94-5.31,0,0-1.47,1.82-2.35-2.08l-.4-.74-.47,1.34-.29-.83c.65-1.74,1.38-2.55,2-2.86A5.07,5.07,0,0,0,31,12.09,1.4,1.4,0,0,0,31.26,10c-1-1.29-1.13-3.27-.69-3.92,0,0,1.09,1.34,1.73-1.53L32.6,4,33,5l.34-1,.3.55c.39,1.71.93,1.92,1.3,1.82a13.89,13.89,0,0,0-2-3.89,6.11,6.11,0,0,1-.63-1,25.6,25.6,0,0,1,4.09,5.7s.46-.87,1.17-2A1.09,1.09,0,0,1,37.4,6.6a3.48,3.48,0,0,0-.57,3.22s.9-1.1,1.43,1.26l.24.44.28-.81.29.81.24-.44c.53-2.36,1.42-1.26,1.42-1.26a3.44,3.44,0,0,0-.56-3.22,1.15,1.15,0,0,1,.24-1.75A5.22,5.22,0,0,1,38.94,3.1c.34-.43.69-.85,1.05-1.23a3.61,3.61,0,0,0,.3,2.21s1.55-1.9,2.47,2.19l.43.78.49-1.41.49,1.41.43-.78c.91-4.09,2.47-2.19,2.47-2.19.48-.69.47-2.46-.16-4.08H31.78l0,0V0H25.23a1.24,1.24,0,0,0,.43.56A5.33,5.33,0,0,0,24.27,2.3a7.57,7.57,0,0,0-1-1.39,5.53,5.53,0,0,1-.88,1.53,13.78,13.78,0,0,0-1.37,2.28V17.3a1.42,1.42,0,0,1,1.09.52c.51-.73.56-2.49,0-4.23A2.51,2.51,0,0,1,24.09,15a1.35,1.35,0,0,0-.32-2,7.23,7.23,0,0,0,1.9-2.38A7.16,7.16,0,0,0,27.58,13a1.35,1.35,0,0,0-.29,2c.95,1.24,1.1,3.14.67,3.76,0,0-1.05-1.29-1.67,1.48L26,20.8l-.34-.95-.33.95-.28-.52a5.09,5.09,0,0,0-.39-1.17,8.28,8.28,0,0,1-2.41,2.29A3.37,3.37,0,0,1,23,26.51,10.89,10.89,0,0,0,21.25,30l-.19-.32v12l.17.47.36-.66c.79-3.5,2.11-1.87,2.11-1.87.5-.72.39-2.81-.57-4.36.78.26,1.66,1.34,2.33,4.35l.72,1.31L27,38.5l.83,2.37.71-1.31c.08-.33.15-.65.24-.94M62.71,59.94H60.25l-.15-.53L60,59.09H57.4a4.72,4.72,0,0,1-.61,2.15c.07.18.17.35.25.52a18.7,18.7,0,0,0,7.37-1.82Zm16.23-4.89V43c-.78,1.9-1.76.69-1.76.69-.5.72-.38,2.81.57,4.37-.77-.27-1.65-1.34-2.33-4.36l-.71-1.31-.83,2.38-.83-2.38-.72,1.31a15.82,15.82,0,0,1-.51,1.83A4.11,4.11,0,0,0,73,46.83a1,1,0,0,0-.22,1.57,3.11,3.11,0,0,1,.51,2.9s-.8-1-1.28,1.13l-.22.4-.26-.73-.25.73-.22-.4c-.48-2.12-1.28-1.13-1.28-1.13a3.11,3.11,0,0,1,.51-2.9,1.15,1.15,0,0,0,.27-.7,1.61,1.61,0,0,1-2.3-.27,2,2,0,0,1,.58-.65,4.88,4.88,0,0,1-1.43-1.49c-1.39,3.11-2.45,5.85-3.21,8,.37-.27,1.18-.49,1.72,1.89l.33.61.38-1.1.39,1.1.33-.61a3.66,3.66,0,0,1,.81-1.85,10.39,10.39,0,0,0,.61,1.57,4.75,4.75,0,0,1-1.27,1.18,2.05,2.05,0,0,1,.9,1.72,1,1,0,0,1,.64.36,1.06,1.06,0,0,1,0,1.44,24,24,0,0,1-2.22,2A4,4,0,0,0,67,64.31s1.48-1.81,2.35,2.09l.4.74.48-1.35.29.83c-.66,1.74-1.38,2.55-2.06,2.86a5.21,5.21,0,0,0,1.5,1.67,1.4,1.4,0,0,0-.29,2.13c1,1.29,1.14,3.27.69,3.91,0,0-1.09-1.34-1.73,1.54l-.3.54-.35-1-.34,1-.3-.54C66.91,77,66.37,76.8,66,76.9a13.41,13.41,0,0,0,2,3.89q.24.33.42.63l10.49-6V65.61a2.26,2.26,0,0,1-.21-.2c-.51.73-.56,2.5,0,4.23a2.48,2.48,0,0,1-1.91-1.4,1.35,1.35,0,0,0,.32,2,7.33,7.33,0,0,0-1.9,2.38,7.33,7.33,0,0,0-1.9-2.38,1.35,1.35,0,0,0,.28-2c-1-1.23-1.09-3.14-.67-3.75,0,0,1,1.28,1.67-1.48l.29-.52.33,1,.33-1,.29.52a4.88,4.88,0,0,0,.38,1.16,8.69,8.69,0,0,1,2.41-2.29,3.36,3.36,0,0,1-.71-5.1,10,10,0,0,0,1-1.68m-14.37,21a27,27,0,0,0,3.79,5.42l-7.27,4.19a3.55,3.55,0,0,0-.79-2.12,6.43,6.43,0,0,1-.7,1.18,1.93,1.93,0,0,0-.39,2L50,92.08l-1.53-.89a2.26,2.26,0,0,1,.32-1s1,1.18,1.83-.25l-.19-.36C49.9,87.25,49,88.34,49,88.34a3.38,3.38,0,0,1,.56-3.19,1.15,1.15,0,0,0-.24-1.74,6.18,6.18,0,0,0,1.61-2,6.11,6.11,0,0,0,1.62,2,1.15,1.15,0,0,0-.25,1.74,3.9,3.9,0,0,1,.75,2.5l.16.29c.06.27.13.51.19.73a3.12,3.12,0,0,1,.31-.49,1.15,1.15,0,0,0-.25-1.74,4.65,4.65,0,0,0,1.39-1.62l-.07-.09c-1.41-1.84-1.62-4.66-1-5.58,0,0,1.55,1.91,2.47-2.19l.42-.77.49,1.41.5-1.41.42.77c.92,4.1,2.47,2.19,2.47,2.19a3.63,3.63,0,0,1,.3,2.21,14,14,0,0,0,1-1.22,5,5,0,0,0-1.47-1.76,1.16,1.16,0,0,0,.25-1.75,3.4,3.4,0,0,1-.57-3.21s.89,1.1,1.42-1.26l.24-.45.29.81.28-.81.25.45c.53,2.36,1.42,1.26,1.42,1.26a3.4,3.4,0,0,1-.57,3.21,1.08,1.08,0,0,0-.08,1.42c.71-1.12,1.17-2,1.17-2M51,89.25v0l-.1.29c0-.08.07-.17.11-.26m14.42-29a19.5,19.5,0,0,1-8,2.2,7.15,7.15,0,0,0,.44.68A2.8,2.8,0,0,1,58.53,65a22.8,22.8,0,0,0,6.14-2.8s0,0,0,0a8.74,8.74,0,0,0,.73-1.87M49.93,1.84A7.61,7.61,0,0,1,51.28,0h-2.7a7.61,7.61,0,0,1,1.35,1.84M33.54,28h0l.38-.48-.05-.13ZM66.62,44s-1.15,2.2-2.2,2.75a1.57,1.57,0,0,1,.33,2.37,5.42,5.42,0,0,0-1,3.28c.79-2.19,1.85-4.87,3.2-7.88l-.3-.52M50.56,5.54s1.61-2,2.56,2.26l.43.8.51-1.46.51,1.46L55,7.8c1-4.23,2.55-2.26,2.55-2.26.63-.91.45-3.65-.87-5.54H51.43c-1.31,1.89-1.5,4.63-.87,5.54"/><path class="cls-3" d="M68.47,58.67a.31.31,0,0,1,0,.44A23,23,0,1,1,68,26l.34.33a.33.33,0,0,1-.43.5A19.75,19.75,0,1,0,68,58.62a.31.31,0,0,1,.44.05m2.35-22a105.81,105.81,0,0,0-8.94,21.39c.11.34.36.94.84,1.1H60.81l-.24-.86H55.06l-.24.86h-1.9c.67-.22.89-1.34.89-1.34C45,48.8,46.87,36.05,46.87,36.05a2.35,2.35,0,0,0,.18-2.13c-.61-.39-1-.67-1-.67l.56-5.14c1.44,2.79,3.73,5,8.47,5l.06,0v0A25.8,25.8,0,0,0,62.09,32c9.73-2.68,8.73,4.7,8.73,4.7m-14.9,18.9L50.75,37.7C48.43,50.51,55.6,56.41,55.6,56.41c.11-.27.21-.53.32-.79M57,53.19,52,35.86c-.28,0-.55-.11-.8-.18-.09.36-.17.72-.25,1.07L56.19,55c.26-.6.52-1.19.79-1.76M58.1,51,53.81,36a11.18,11.18,0,0,1-1.33-.11l4.79,16.65c.27-.55.55-1.09.83-1.63m1.17-2.07L55.54,36a11,11,0,0,1-1.27.1l4.14,14.34c.28-.52.57-1,.86-1.51m1.2-2L57.21,35.6a11.24,11.24,0,0,1-1.22.28l3.59,12.47c.3-.49.6-1,.89-1.42m1.24-1.84L58.81,35l-.63.25-.54.19,3.16,11c.3-.46.61-.91.91-1.34M63,43.35l-2.56-8.88c-.38.12-.78.25-1.18.4L62,44.62,63,43.35m1.29-1.65L62.05,34l-1.21.33,2.47,8.57c.33-.42.64-.82,1-1.2m1.32-1.57-1.87-6.47q-.59.09-1.23.24l2.13,7.37c.33-.41.66-.79,1-1.14m1.33-1.49-1.48-5.13a9.71,9.71,0,0,0-1.27.09l1.77,6.13c.35-.41.68-.77,1-1.09m-1-5.12,1.37,4.74c.81-.86,1.31-1.32,1.31-1.32.72-2.27-.45-3.32-2.68-3.42"/></g></g></svg>