<svg width="400" height="433" fill="none" xmlns="http://www.w3.org/2000/svg"><path fill-rule="evenodd" clip-rule="evenodd" d="M166.56 30.147C95.35 101.82 2.94101 203.858 2.94101 210.814c0 13.523 9.63599 25.544 76.02099 94.839 36.644 38.252 77.853 81.746 91.574 96.654 28.852 31.346 30.228 31.741 45.753 13.155 6.409-7.672 32.829-35.796 58.711-62.497 133.916-138.154 127.015-130.219 123.333-141.82C393.167 194.869 209.625 2.941 199.226 2.941c-3.2 0-17.321 11.761-32.666 27.206zm79.028 88.103c24.265 42.258 44.447 77.609 44.85 78.557.402.947-19.855 11.224-45.016 22.838l-45.748 21.115-44.617-20.552c-24.539-11.304-45.147-21.083-45.796-21.731-1.451-1.451 88.444-157.348 90.637-157.181.865.066 21.426 34.695 45.69 76.954zm-111.986 4.603l-40.31 70.51-34.1 9.002c-18.755 4.95-34.365 8.736-34.689 8.412-.536-.536 20.306-23.157 115.203-125.039 17.794-19.103 32.77-34.432 33.279-34.064.51.368-17.213 32.399-39.383 71.179zm189.42 31.397c29.648 31.633 53.471 57.486 52.941 57.45-6.189-.413-68.481-17.755-70.265-19.561-1.322-1.338-18.514-30.831-38.204-65.539-19.69-34.709-37.773-66.473-40.185-70.588-4.831-8.241 14.837 11.945 95.713 98.238zm-180.189 76.304l46.873 21.731.789 71.558c.472 42.776-.281 70.413-1.872 68.711-1.463-1.567-37.223-39.155-79.465-83.531-42.243-44.375-76.805-81.613-76.805-82.751 0-1.764 51.366-16.344 60.48-17.166 1.719-.155 24.219 9.496 50 21.448zm197.639-12.595c15.755 3.701 29.134 7.067 29.73 7.479.596.413-18.623 20.998-42.71 45.744-24.087 24.747-60.311 62.359-80.496 83.582-20.186 21.224-37.695 38.76-38.908 38.971-1.213.21-2.206-31.172-2.206-69.738v-70.121l47.794-22.439c26.287-12.342 50.125-21.937 52.973-21.323 2.848.614 18.068 4.144 33.823 7.845z" fill="#000"/></svg>
