<svg width="400" height="424" fill="none" xmlns="http://www.w3.org/2000/svg"><path fill-rule="evenodd" clip-rule="evenodd" d="M135 23.3L78.3 42 55.8 72c-12.3 16.4-30 40.8-39.1 54.2L0 150.6V214c0 59.8.4 63.9 7.3 73.8 4 5.8 21.6 29.7 39 53.1l31.4 42.6 58.7 18.8c69 22.2 57.9 22 119.3 2.6 70.4-22.2 65-18.4 107.2-76.4l37.1-51.1V150.6l-16.7-24.5c-9.1-13.4-26.8-37.8-39.1-54.1l-22.5-29.7L262 22.8c-70-22.9-56.7-23-127.1.5zm55.6 48l-1 41.5-41.8 30.4-41.7 30.4L68 161c-24-7.9-37.6-14-36.6-16.4.8-2.2 13.9-21 29-41.8l28.4-39c1-1.5 95-33.1 99.5-33.5 2.1-.2 3 14.9 2.3 41zm70.4-25a865 865 0 0 1 50.3 17.5l28.3 39a689.2 689.2 0 0 1 29 41.8c1 2.5-12.5 8.5-36.6 16.4l-38 12.6-41.8-30.4-41.8-30.4-1-41.4c-.6-22.8-.3-41.4.6-41.4 1 0 23.9 7.4 51 16.3zM218 139.1l41 30 24 17.5-16 47.5-15.8 47.6H149L133 234l-16-47.7 24-17.3 40.5-29.8c20.5-15 16-15 36.4-.2zM98.8 191.2c2 2.1 10.8 25 19.3 51l15.6 47.3-23.8 32.8A503 503 0 0 1 85 355c-.6 0-14.7-18.7-31.4-41.6l-30.3-41.6v-108l35.9 11.9c19.7 6.5 37.5 13.5 39.6 15.5zm277.9 26.3v54.3l-30.3 41.6a676.6 676.6 0 0 1-31.6 41.6c-.7 0-12-14.8-25-32.8l-23.5-32.8 15.6-47.2c19-57.7 14-53.5 94-78.6.4-.1.8 24.1.8 54zm-102 112.3c12 16.4 22.2 31.5 22.7 33.7.6 2.3-18.7 10.2-48.2 19.8L200 399.2l-49.2-16c-29.5-9.5-48.8-17.4-48.2-19.7.5-2.2 10.7-17.3 22.7-33.7l21.9-29.8h105.6l21.9 29.8z" fill="#000"/></svg>
