<svg width="400" height="449" fill="none" xmlns="http://www.w3.org/2000/svg"><g clip-path="url(#clip0)"><path fill-rule="evenodd" clip-rule="evenodd" d="M110 50c-46 27-89 54-95 59l-12 9 1 104c1 101 1 104 9 115 7 10 100 66 163 99l27 13 15-8c115-66 161-94 168-103l9-11 1-106 1-106-13-8C337 78 201 0 198 0l-88 50zm159 16c78 45 93 54 93 60 0 2-22 17-49 33-127 73-102 71-198 17-75-44-82-49-73-57 10-11 150-88 158-88 5 0 36 16 69 35zM107 190c37 21 71 42 76 47l8 8 1 80c2 105 9 100-79 49-96-55-87-41-88-134-1-78 1-94 11-91l71 41zm265-35c3 5 4 34 3 85l-1 78-10 9c-23 20-147 88-152 83-5-4-5-16-4-85l1-80 8-8c8-8 144-88 149-89 2 0 4 3 6 7z" fill="#000"/></g><defs><clipPath id="clip0"><path fill="#fff" d="M0 0h400v448H0z"/></clipPath></defs></svg>
