<svg viewBox="0 0 60 100" xmlns="http://www.w3.org/2000/svg"><g fill="#00040C" fill-rule="nonzero"><path d="M28 13.178C28.634 8.802 29.04 4.376 29.703 0c.663 4.376 1.07 8.802 1.703 13.178.713 1.832 1.574 3.604 2.327 5.416.198.594.88.693 1.356.99 1.01.523 2.056.977 3.129 1.357 1.534.257 3.06.623 4.594.831 1.485-.366 2.881-.99 4.356-1.435-.406 1.98-.92 3.96-1.297 5.94.1 1.248.485 2.456.693 3.693.179 1.852 1.604 3.208 2.466 4.763 1.188.99 2.614 1.752 3.89 2.663 1.684 1.406 3.961 1.248 6 1.871-1.415.99-3.247 1.317-4.445 2.624-1.505 1.416-3.099 2.743-4.544 4.208a309.258 309.258 0 0 0-3.06 7.782c-.089 1.772 0 3.565 0 5.347.287 1.782.822 3.524 1.149 5.297-2.347-3.139-4.565-6.386-6.852-9.565 6.555-6.514 7.367-17.712 2.12-25.247A15.98 15.98 0 0 0 33.05 22.88a25.02 25.02 0 0 0-4.476-.218 14.99 14.99 0 0 0-9.158 3.406 18.653 18.653 0 0 0-6.248 10.347 20.109 20.109 0 0 0 5.04 18.525c-2.287 3.178-4.505 6.425-6.852 9.564.327-1.772.862-3.515 1.149-5.297 0-1.782.119-3.574 0-5.347-.99-2.604-1.98-5.208-3.06-7.782-1.445-1.465-3.04-2.792-4.544-4.208-1.198-1.307-3.03-1.643-4.446-2.623 1.98-.624 4.317-.466 6-1.872 1.248-.871 2.575-1.633 3.793-2.544.802-1.179 1.594-2.377 2.287-3.614.346-1.614.722-3.228.99-4.852-.347-2.04-.901-4.04-1.307-6.069 1.445.416 2.822.99 4.267 1.426 1.327-.11 2.634-.485 3.96-.683 1.327-.198 2.684-.99 4.01-1.565.436-.227.99-.346 1.208-.88.753-1.813 1.614-3.585 2.327-5.417"/><path d="M29.149 30.406c.217-.881.316-1.802.554-2.683.238.881.337 1.802.554 2.683 1.257.195 2.49.527 3.674.99.89-.713 1.465-1.752 2.307-2.525-.238 1.139-.703 2.198-.99 3.307a13.861 13.861 0 0 1 2.802 2.832c1.138-.366 2.257-.802 3.415-1.08-.802.902-1.812 1.585-2.653 2.456.459 1.187.762 2.428.9 3.693 1.189.188 2.36.466 3.506.832-1.188.228-2.386.455-3.565.752a12.04 12.04 0 0 1-.99 3.476c.852.99 1.98 1.752 2.882 2.722-1.288-.346-2.525-.851-3.812-1.178a13.337 13.337 0 0 1-2.624 2.495c.337 1.208.891 2.367 1.129 3.594-.931-.831-1.545-1.98-2.505-2.762a4.277 4.277 0 0 0-1.515.386c-.09 1.644 0 3.287-.08 4.95 0 .585-.85.793-.742 1.416l.475 32.09c-.079 1.564 1.218 2.811 1.149 4.386 0 1.336.099 2.673.089 4.02-.693.485-1.436.9-2.129 1.395a2.05 2.05 0 0 1-2.495 0c-.693-.495-1.435-.91-2.129-1.396 0-1.346.08-2.683.09-4.02-.07-1.574 1.227-2.821 1.148-4.386.149-10.732.327-21.465.465-32.198 0-.564-.722-.752-.732-1.306-.07-1.634 0-3.278-.08-4.951a4.277 4.277 0 0 0-1.504-.426c-.99.782-1.565 1.98-2.505 2.763.237-1.228.792-2.386 1.128-3.594a13.02 13.02 0 0 1-2.614-2.495c-1.297.326-2.534.831-3.821 1.178.9-.99 1.98-1.713 2.89-2.723a11.752 11.752 0 0 1-1.019-3.515c-1.178-.297-2.376-.525-3.564-.752A23.762 23.762 0 0 1 19.743 40c.14-1.268.442-2.512.9-3.703-.841-.861-1.85-1.545-2.653-2.446 1.159.278 2.277.713 3.416 1.08a13.861 13.861 0 0 1 2.802-2.832c-.327-1.109-.792-2.168-.99-3.307.832.792 1.445 1.792 2.307 2.555a14.703 14.703 0 0 1 3.673-.99"/></g></svg>
