<svg viewBox="0 0 61 100" xmlns="http://www.w3.org/2000/svg"><path d="M17.794 77.098a1.676 1.676 0 0 1-1.46-.147 16.127 16.127 0 0 1-4.295-2.588 9.235 9.235 0 0 0-.853-.5 1.863 1.863 0 0 1-.402-.334c-.627-.725-.568-1.068.245-1.549l.265-.176a2.686 2.686 0 0 0-1.647-.52c-.306.03-.615.03-.922 0a16.324 16.324 0 0 1-2.176-.392 3.441 3.441 0 0 1-2.402-1.716 1.49 1.49 0 0 1-.176-.784 2.049 2.049 0 0 1 1.333-1.96c.314-.108.598-.265.98-.452-.392-.353-.706-.666-1.049-.98-.764-.618-1.568-1.167-2.294-1.824a6.647 6.647 0 0 1-1.96-3.313 3.696 3.696 0 0 1-.089-2.138c.11-.337.248-.665.412-.98a.569.569 0 0 1 .392-.225 9.284 9.284 0 0 1 1.275-.089c.44 0 .666-.156.578-.558A13.03 13.03 0 0 1 4 50.275a9.637 9.637 0 0 1 1.118-3c.252-.425.679-.716 1.166-.795 1.432-.304 2.294.56 3.089 1.51.254.373.477.767.666 1.177.392.696.794 1.382 1.167 2.088.167.314.274.647.431.98.087.177.196.341.324.49.333.383.559.363.814 0 .094-.148.18-.302.254-.46a1.216 1.216 0 0 1 2.177-.304c.43.577.716 1.25.833 1.96.27.843.33 1.738.177 2.608a24.412 24.412 0 0 0-.392 2.54c-.033.205-.009.415.068.607.186.412.333.442.735.236.402-.206.579-.334.883-.451a1.373 1.373 0 0 1 1.863.98 4.196 4.196 0 0 1-.98 3.824c-.207.245-.432.47-.609.725a2.225 2.225 0 0 0-.215.52l2.058-.432c.373-.078.51.05.608.412.116.499.082 1.02-.098 1.5a5.04 5.04 0 0 1-1.96 2.941c-.111.085-.213.18-.304.285-.314.372-.255.696.215.774.47.079.461.294.47.608.01.314 0 .55 0 .814-.006.592.15 1.176.452 1.686.468.84.434 1.87-.088 2.677l.5.43a.824.824 0 0 0 .323 1.06 7.088 7.088 0 0 0 3.275 1.96v-2.45c0-.814-.089-1.795-.108-2.697 0-2.127-.079-4.264-.118-6.392 0-.49-.137-.98-.108-1.46.098-1.775 0-3.53 0-5.295 0-2.853.098-5.696.157-8.549a.853.853 0 0 1 .118-.44c.354-.488.734-.956 1.137-1.403.268-.24.557-.457.863-.647 0-.912-.059-1.96-.128-3.01a1.167 1.167 0 0 0-.666-.911c-.794-.471-1.569-.98-2.383-1.383a24.059 24.059 0 0 1-3.921-2.47c-1.098-.883-2.206-1.765-3.206-2.745a17.088 17.088 0 0 1-3.05-4.216 22.176 22.176 0 0 1-1.96-5.373 18.863 18.863 0 0 1-.323-5.039c.036-2.58.53-5.133 1.46-7.54a25.275 25.275 0 0 1 3.726-6.44 28.431 28.431 0 0 1 5.882-5.569 36.833 36.833 0 0 1 3.922-2.363 27.931 27.931 0 0 1 5.157-1.931 26.225 26.225 0 0 1 3.627-.637 32.225 32.225 0 0 1 5.99-.285c2.631.086 5.252.361 7.843.824 1.304.247 2.59.574 3.853.98.781.325 1.538.705 2.265 1.138.784.392 1.559.813 2.343 1.176a10.186 10.186 0 0 1 3.314 2.48c.412.471.892.883 1.343 1.324v.137c-.41.007-.82-.02-1.225-.078-1.275-.294-2.53-.637-3.804-.98-1.275-.344-2.363-.53-3.55-.795-1.401-.313-2.578-.46-4-.676a24.098 24.098 0 0 0-3.352-.147c-.537.063-1.077.1-1.618.108-1.647.117-3.206.176-4.843.343-1.277.17-2.543.409-3.794.715-1.13.22-2.243.515-3.334.883-1.308.44-2.577.987-3.794 1.637a22.892 22.892 0 0 0-4.186 2.892 19.333 19.333 0 0 0-3.127 3.667 21.412 21.412 0 0 0-2.755 5.882 14.912 14.912 0 0 0-.628 3.804 13.52 13.52 0 0 0 .353 3.255 16.794 16.794 0 0 0 3.686 7.235c.754.813 1.581 1.555 2.471 2.216 1.186.98 2.412 1.873 3.608 2.824.232.21.542.31.853.274.51-.059.98 0 1.53 0 .548 0 .793.245.98.755.221.63.269 1.307.137 1.96-.108 1.05-.177 2.109-.275 3.158-.098 1.049-.176 1.794-.245 2.598.403.312.775.663 1.108 1.049.238.326.377.714.402 1.117.003.92-.042 1.84-.137 2.755a10.784 10.784 0 0 0 0 2.941 11 11 0 0 1 0 2.05V65.117c0 .784-.088 1.568-.108 2.353-.01 2.196-.01 4.362-.01 6.52-.011.286.046.572.167.833.104.376.124.771.059 1.156 0 .765-.108 1.52-.098 2.285 0 1.068.058 2.147.107 3.225 0 .49.108.98.108 1.461 0 .755-.078 1.52-.068 2.274.01.755.078 1.785.127 2.814a12.5 12.5 0 0 0 1.559-1.274 7.265 7.265 0 0 0 1.578-2.245c0-.138.216-.226.275-.363a.784.784 0 0 0 0-.47 2.225 2.225 0 0 1 .216-2.07c.34-.593.48-1.28.402-1.96a3.088 3.088 0 0 1 0-.52.47.47 0 0 1 .43-.52c.51-.127.57-.401.217-.793a1.51 1.51 0 0 0-.255-.246 5.265 5.265 0 0 1-2.098-3.46V74c-.167-.98.137-1.333 1.098-1.206.52.106 1.035.244 1.539.412.196-.255 0-.441-.177-.628-.46-.529-.882-1.089-1.264-1.676a3.824 3.824 0 0 1-.324-2.843 1.49 1.49 0 0 1 2.324-.775c.078.05.147.138.235.167.088.03.54.235.686.147a.745.745 0 0 0 .324-.863 8.235 8.235 0 0 1-.265-1.078 18.04 18.04 0 0 1-.235-2.04 7.324 7.324 0 0 1 .843-3.607c.168-.288.404-.53.686-.706.785-.5 1.285-.353 1.736.46.098.167.176.344.274.51.275.451.52.471.843.05.203-.289.38-.594.53-.912.205-.402.382-.814.588-1.206.441-.804.892-1.608 1.343-2.402a4.51 4.51 0 0 1 2.274-1.765c.8-.142 1.61.19 2.079.853.379.66.681 1.36.902 2.088.336 1.29.591 2.6.765 3.922.068.813.048 1.632-.06 2.441-.048.588 0 .696.638.667.196-.015.392-.015.588 0 .932.078 1.206.363 1.432 1.294a4.54 4.54 0 0 1-.187 2.48 5.451 5.451 0 0 1-1.176 2.187c-.608.637-1.275 1.215-1.96 1.794-.5.431-.981.823-1.55 1.235-.186.137-.392.255-.588.382l.117.206c.304.137.618.304.932.412a2.069 2.069 0 0 1 1.304 1.794 1.784 1.784 0 0 1-.834 1.775c-.69.593-1.56.938-2.47.98-.54.061-1.073.18-1.588.353a1.5 1.5 0 0 1-.628 0c-.615 0-1.218.177-1.735.51.274.176.45.313.647.412a.549.549 0 0 1 .255.784 2.51 2.51 0 0 1-1.216 1.225c-.24.127-.468.271-.686.432a16.833 16.833 0 0 1-4.402 2.539c-.647.265-.863.176-1.402-.392l-1.324 2.049c-.215.059-.402.059-.5.147-.813.794-1.617 1.598-2.421 2.412a1.03 1.03 0 0 0-.294.892c.01.858.172 1.708.48 2.51.16.554.16 1.142 0 1.696a10.96 10.96 0 0 1-.559 2.725 2.853 2.853 0 0 1-3.049 1.96c-.459-.045-.922.002-1.362.138a3.745 3.745 0 0 1-1.746 0c-.274-.059-.539-.441-.696-.725a2.235 2.235 0 0 0-1.225-1.255 6.284 6.284 0 0 1-2.069-1.598.775.775 0 0 1-.147-.53c-.01-1.1.04-2.2.147-3.294.128-.912.265-1.96 1.343-2.333a4.176 4.176 0 0 0 .98-1.96c.07-1.207 0-2.422.06-3.638-.002-.39.021-.78.068-1.167.098-.637 0-.745-.53-1.127a15.294 15.294 0 0 1-1.362-1.167c-.059-.059-.098-.137-.167-.167-1.058-.578-1.686-1.637-2.637-2.323a3.814 3.814 0 0 1-.549-.559zm17.824 6.755c-.06 0-.089-.078-.138-.088-.049-.01-.058 0-.058.078a.422.422 0 0 0 0 .128l.196-.118z" fill="#00040C" fill-rule="nonzero"/></svg>
