<svg viewBox="0 0 107 100" xmlns="http://www.w3.org/2000/svg"><g fill="#00040C" fill-rule="nonzero"><path d="M2.447 1.532C3.01 1.18 3.51.766 4.127.468c.876.982 1.5 2.16 1.82 3.436C7.383 5.32 9.17 6.383 10.543 7.936c3.191 3.287 6.319 6.596 9.51 9.851.15-.49.234-1.01.34-1.51.607-.075 1.405.276 1.852-.298a58.436 58.436 0 0 0 3.989-4.894c.426-.713 1.33-.68 2.053-.808.34 1.055.567 2.142.681 3.244-1.01.202-2.372-.255-3.042.756-.99 1.244-2.128 2.35-3.086 3.638.275.83.632 1.633 1.064 2.394.458-.096.915-.224 1.373-.34 1.978 2.265 4.117 4.393 6.17 6.595.33.308.276.776.287 1.191v9.628c-4.074-3.851-8.191-7.723-12.223-11.638.085-.436.17-.883.234-1.33a13.68 13.68 0 0 0-2.351-1.064c-1.288.958-2.394 2.128-3.65 3.117-1 .68-.5 2.032-.744 3.032a29.904 29.904 0 0 1-3.191-.606c0-.766 0-1.724.797-2.128a56.734 56.734 0 0 0 4.883-4c.543-.447.192-1.192.213-1.777a7.298 7.298 0 0 1 1.521-.319c-.138-.415-.532-.638-.819-.936-2.978-2.862-5.936-5.745-8.904-8.606a31.064 31.064 0 0 1-2.904-3.362c-.532-.596-.936-1.383-1.798-1.575A5.617 5.617 0 0 1 0 4.596C.713 3.51 1.245 2.128 2.447 1.532M86.362 7.574c.276-.234.521-.489.798-.734.914.777 1.723 1.67 2.563 2.532-.946.788-1.744 2.543-.5 3.405a22.415 22.415 0 0 0 10.054 6.478c1.223.32 2.446.66 3.691.905 1.245.244 2.266-.213 3.415-.117a41.49 41.49 0 0 1-5.766 10.946 35.255 35.255 0 0 1-4.532 4.468c-2.83 2.128-5.479 4.628-8.691 6.192-2.288.628-4.5 1.628-6.883 1.766 2.276-1.926 3.468-4.67 4.744-7.245.636-3.082.47-6.276-.478-9.276-1.681-2.043-2.99-4.373-4.734-6.383-.745.595-1.756.595-2.5 1.149-3.192 3.074-6.192 6.266-9.373 9.297v-4.691c0-.51.394-.83.702-1.16 2-1.957 3.958-3.957 5.958-5.925.713-.67.542-1.82 1.244-2.5l8.447-8.447c.49-.51 1.33-.18 1.862-.638M32.351 16.223c1.543.98 2.915 2.213 4.458 3.192 2.936 1.628 6.808 2.394 9.83.564 1.755-.458 2.244-2.383 3.276-3.65.745.969 1.287 2.128 2.128 3.033.893.553 1.904.925 2.85 1.393a11 11 0 0 0 6.49-.542c2.298-.894 4.053-2.702 6.096-4.01 0 19.857-.053 39.747-.16 59.67-.33 2.318-.542 4.68-1 6.989-1.255 1.595-2.649 3.106-3.979 4.66-2.446 2.223-5.372 3.925-7.585 6.382a52.223 52.223 0 0 0-4.819 5.564 69.66 69.66 0 0 0-6.383-7.128c-1.936-1.585-3.936-3.074-5.862-4.649-1.308-1.404-4.308-5-4.33-5.425-.276-2.298-.648-4.596-.904-6.894 0-14.266 0-28.542-.106-42.798 0-5.468-.064-10.946 0-16.414M15.872 78.064c5.15-5.436 10.639-10.532 15.862-15.873a41.064 41.064 0 0 1 0 5.118c-2.394 2.52-4.968 4.872-7.287 7.446a2753.593 2753.593 0 0 0-18.245 18.16c-.787.957-.925 2.521-2.255 2.979a3.298 3.298 0 0 1-3.32-3.426c.586-1.425 2.341-1.436 3.31-2.457 3.964-3.98 7.942-7.961 11.935-11.947M68.16 65.287s14.574 15.362 21.883 23.01c.46.464.88.966 1.255 1.5 1.808 2.575 3.702 5.107 5.5 7.692-2.617-1.861-5.202-3.766-7.82-5.627a14.096 14.096 0 0 1-1.744-1.575L68.085 72.096l.075-6.809z"/></g></svg>
