<?xml version="1.0" encoding="UTF-8"?>
<svg width="50px" height="100px" viewBox="0 0 50 100" version="1.1" xmlns="http://www.w3.org/2000/svg" xmlns:xlink="http://www.w3.org/1999/xlink">
    <!-- Generator: Sketch 53.2 (72643) - https://sketchapp.com -->
    <title>ClassIcon/Monk</title>
    <desc>Created with Sketch.</desc>
    <g id="ClassIcon/Monk" stroke="none" stroke-width="1" fill="none" fill-rule="evenodd">
        <g fill="#00040C" fill-rule="nonzero">
            <path d="M23.91,0.66 C26,0.44 28.17,0.23 30.29,0 C30.69,3.8 30.35,7.66 30.47,11.48 C30.31,15.84 29.86,20.17 29.53,24.48 C27.04,25.17 24.53,25.77 22.04,26.48 C24.87,26.36 27.7,26.11 30.54,25.92 C30.8852932,25.2728388 31.1089922,24.5678479 31.2,23.84 C31.46,16.96 31.79,10.08 32.06,3.2 C33.77,3.57 35.59,3.68 37.13,4.58 C38.32,5.22 39.56,5.78 40.75,6.42 C41.43,6.76 41.24,7.65 41.3,8.27 C41.2,11.02 41.12,13.76 40.95,16.5 C40.42,19.88 39.87,23.25 39.28,26.62 C37.56,26.73 35.84,26.62 34.12,26.75 C36.25,27.21 38.4,27.55 40.55,27.92 C41.2,22.71 42.04,17.52 42.74,12.32 C45.15,12.51 47.21,13.78 49.3,14.87 C49.37,19.32 49.84,23.77 49.49,28.21 C49.31,31.7 49.08,35.21 48.91,38.68 C48.942083,39.80239 48.7969673,40.9228183 48.48,42 C47.58,44.68 46.83,47.41 45.89,50.07 C44.89,51.26 43.45,51.94 42.36,53.01 C42.2,53.2 42.26,53.48 42.25,53.71 C43.0966667,65.59 43.9433333,77.4733333 44.79,89.36 C44.91,90.42 44.06,91.19 43.62,92.07 C43.3265231,92.7340893 42.8603333,93.3073301 42.27,93.73 C39.09,95.53 35.9166667,97.3433333 32.75,99.17 C31.8513688,99.7837756 30.7604079,100.050297 29.68,99.92 C28.06,99.82 26.33,100.31 24.79,99.58 C20.79,97.94 16.71,96.47 12.73,94.79 C11.73,93.63 10.56,92.28 10.78,90.65 C11.06,78.29 11.26,65.93 11.52,53.57 C11.65,52.72 10.76,52.35 10.23,51.89 C7.23,49.67 4.68,46.89 1.91,44.39 C1.54,44.02 1.03,43.67 1.01,43.1 C0.82,37.05 0.6,31 0.39,25 C0.468205566,24.1421275 0.727222518,23.3105468 1.15,22.56 C1.37,22.05 1.59,21.38 2.25,21.34 C7.07,20.34 11.88,19.21 16.74,18.34 C17.2579719,20.3314636 17.6586603,22.3516011 17.94,24.39 C16.12,27.05 13.49,29.17 12.06,32.12 C14.5,30.07 16.73,27.77 19.06,25.65 C19.36,25.34 19.84,25.04 19.75,24.54 C19.48,22.7 19.2,20.85 18.93,19 C18.72,17.83 19.99,17.17 20.8,16.6 C20.7,11.92 20.55,7.26 20.43,2.6 C21.59,1.88 22.53,0.74 23.91,0.66 M47.64,28.83 C46.05,29.83 44.18,29.02 42.47,28.88 C44.27,29.56 46.1,30.19 47.94,30.75 C48.1,28.81 48.34,26.88 48.36,24.94 C48.04,26.22 48.08,27.58 47.64,28.83 M20.37,39.6 C22.48,41.32 24.59,43.06 26.73,44.77 C27.0528053,44.9734898 27.274415,45.3040878 27.34,45.68 C27.64,49.13 27.72,52.6 28.1,56.04 C28.78,52.77 29.1,49.44 29.74,46.15 C29.7912333,45.8317607 29.981937,45.55304 30.26,45.39 C32.19,44.1 34.18,42.9 36.07,41.54 C33.92,42.23 31.8,43.04 29.68,43.81 C29.18,43.97 28.6,44.35 28.11,43.97 C25.7,42.3 23.3,40.61 20.88,38.97 L20.37,39.63" id="Shape"></path>
            <path d="M15.6,4.62 C16.8518853,4.47993809 18.1142917,4.45984674 19.37,4.56 C19.37,8.42 19.37,12.29 19.28,16.16 C18.6797093,16.7854429 17.7756101,17.0143779 16.95,16.75 C13.95,17.11 10.89,17.65 7.85,18.06 C8.22,14.7 8.72,11.36 9.25,8.06 C9.25,7.53 9.85,7.38 10.25,7.17 C12.05,6.37 13.81,5.46 15.61,4.66" id="Path"></path>
        </g>
    </g>
</svg>