<svg viewBox="0 0 66 100" xmlns="http://www.w3.org/2000/svg"><path d="M11.733 4.119c.297-1.357.317-2.763.594-4.119.06 1.861.267 3.723.208 5.574a28.495 28.495 0 0 1-1.248 5.693c-.673 2.139-1.91 4.149-1.93 6.436a11.03 11.03 0 0 0-.06 3.02c.446 2.89 1.09 5.752 1.753 8.594 1.336 1.742 2.86 3.356 4.277 5.05 1.346.93 3.079.791 4.623.583.545-.435.911-1.059 1.406-1.534.684.574 1.317 1.218 1.98 1.802a26.426 26.426 0 0 1 2.476-3.426c1.455-1.505 2.9-3.04 4.356-4.544a4.376 4.376 0 0 0 1.198-1.753c.529-.985.94-2.028 1.228-3.109h.228c.187.857.5 1.681.93 2.446.247.712.604 1.38 1.06 1.98 1.752 1.802 3.475 3.624 5.218 5.436.752.91 1.307 1.98 1.98 2.92.673-.554 1.277-1.178 1.98-1.742.683.574 1.07 1.782 2.149 1.604 1.534.198 3.485.128 4.435-1.287.911-1.07 1.901-2.198 2.812-3.297a3.386 3.386 0 0 0 1.07-1.654c.554-2.97 1.366-5.851 1.683-8.842 0-1.306-.169-2.613-.327-3.91-.862-2.822-2.366-5.456-2.654-8.436-.683-2.495-.217-5.06-.118-7.604.247 1.356.277 2.752.574 4.109.554 1.218 1.277 2.346 1.881 3.544.693 1.723 2.683 2.317 3.782 3.703.654 1.367 1.218 2.763 1.862 4.13a2.356 2.356 0 0 1 0 1.583c-.515 2.505-.99 5.02-1.505 7.535a3.218 3.218 0 0 0 0 1.564c.99-2.643 1.416-5.495 2.217-8.208.486 2.575 1.515 5.02 2.228 7.535.239.541.334 1.134.277 1.723-.623 3.614-1.772 11.465-1.841 11.881.93-1.525 1.683-3.139 2.634-4.634-.11 2.773-.357 5.545-.535 8.317-.822 2.644-2.713 4.733-4.307 6.93 1.129-.603 2.198-1.316 3.307-1.98-.317 1.496-.723 2.971-1.06 4.466-.079.287-.118.634-.405.782-1.763.99-3.585 1.862-5.327 2.891 1.604-.148 3.168-.515 4.772-.683-.792 1.317-1.703 2.545-2.525 3.842-.188.237-.326.604-.683.604-1.455.089-2.97.099-4.386.208a22.93 22.93 0 0 0 3.257 1.376c-1.544.841-3.148 1.574-4.722 2.346-.99-1.079-1.891-2.227-2.862-3.316-.485-.466-.208-1.179-.208-1.763 0-1.871.555-3.792 0-5.634-.297-1.277-.574-2.554-.87-3.831a6.02 6.02 0 0 0-3.318 1.327c.317 5.574.683 11.148.99 16.722-.089.792.515 1.396.862 2.04.485.91 1.623 1.04 2.326 1.703.495.495 1.248.386 1.892.485 1.148.198 2.198-.455 3.306-.653-1.683 1.594-3.584 2.97-5.257 4.574-2.287 3.435-4.525 6.93-6.802 10.366-1.683 2.357-2.634 5.119-3.96 7.683a44.307 44.307 0 0 0-2 5.743c-.179-6.93-.258-13.802-.406-20.703 0-2.525-.485-5.04-.218-7.564.634-2.278.673-4.703 1.564-6.931a47.465 47.465 0 0 0 5-8.465c-1.218.049-2.425.178-3.643.247-.713 0-1.188.594-1.743.99-1.099.852-2.287 1.614-3.346 2.515-.515.99-.634 2.158-1.11 3.178-.653-.99-.593-2.317-1.277-3.287-1.475-1.089-2.97-2.228-4.445-3.247-1.376-.248-2.792-.258-4.188-.367a38.248 38.248 0 0 0 4.128 7.139c1.98 2.327 1.664 5.574 2.505 8.346a25.98 25.98 0 0 1-.198 5.189c-.158 7.663-.257 15.326-.445 22.99-.634-1.624-.99-3.367-1.703-4.95-1.465-2.872-2.525-5.941-4.416-8.625l-5.851-8.91a8.98 8.98 0 0 0-1.139-1.575c-1.634-1.426-3.347-2.762-4.95-4.237 1.108.198 2.158.851 3.306.653.644-.099 1.396 0 1.891-.485.713-.663 1.842-.792 2.327-1.703.335-.473.611-.985.822-1.525.307-5.733.713-11.465.99-17.208a6.515 6.515 0 0 0-3.416-1.356c-.376 1.703-.812 3.396-1.128 5.109 0 1.812.237 3.623.326 5.435 0 .357-.227.614-.435.862-.921.99-1.783 2.119-2.713 3.138-1.574-.772-3.178-1.505-4.723-2.346a22.93 22.93 0 0 0 3.257-1.376c-1.455-.11-2.97-.12-4.386-.208-.356 0-.495-.367-.683-.604-.822-1.297-1.733-2.525-2.525-3.842 1.604.168 3.169.535 4.773.683-1.743-.99-3.565-1.9-5.327-2.89-.287-.15-.327-.496-.406-.783-.337-1.495-.743-2.97-1.06-4.465 1.11.614 2.179 1.326 3.307 1.98a48.782 48.782 0 0 1-3.178-4.475c-.416-.99-1.178-1.822-1.178-2.97-.129-2.615-.396-5.228-.485-7.852.99 1.495 1.703 3.109 2.634 4.634-.07-.406-1.297-8.456-1.872-12.189.664-3.02 1.98-5.88 2.584-8.91.802 2.712 1.238 5.564 2.218 8.207a2.97 2.97 0 0 0 .05-1.386c-.574-2.821-1.119-5.633-1.683-8.445-.044-.485.078-.97.346-1.376.564-1.189 1.05-2.416 1.624-3.604 1.099-1.387 3.089-1.98 3.782-3.703.604-1.198 1.327-2.327 1.881-3.545" fill="#00040C" fill-rule="nonzero"/></svg>
