<svg viewBox="0 0 56 100" xmlns="http://www.w3.org/2000/svg"><g fill="#00040C" fill-rule="nonzero"><path d="M.158 4.446C.298 3.283.504 2.13.772.99c.604 1.802.99 3.683 1.664 5.465 1.396 2.763 2.623 5.624 4.118 8.347C10.04 20 13.485 25.248 16.96 30.436A498.816 498.816 0 0 0 27.13 42.109c-2.258 2.356-4.436 4.802-6.614 7.238-3.04-1.98-5.723-4.436-8.545-6.703-1.643-1.179-2.663-2.97-3.96-4.466a11.545 11.545 0 0 1-1.713-3.218 90.584 90.584 0 0 1-3.238-8.91c-.712-3.307-1.712-6.575-1.98-9.97A127.373 127.373 0 0 1 .15 4.415"/><path d="M54.683.99c.267 1.109.446 2.238.604 3.366-.119 4.842-.653 9.674-1.247 14.486-.387 1.851-.832 3.693-1.238 5.544a64.178 64.178 0 0 1-2.139 6.832c-.623 1.98-1.594 3.871-2.406 5.802a56.772 56.772 0 0 1-3.643 4.663 105.04 105.04 0 0 1-12.792 9.743c-1.475 1.109-2.852 2.326-4.268 3.505a439.318 439.318 0 0 0-5.148 6.218c-1.713 2.683-3.366 5.396-5.04 8.099-1.237 2.455-2.406 4.95-3.614 7.425-1.346 3.129-2.564 6.317-3.851 9.466-.812 2.257-1.485 4.564-2.257 6.831-.466 1.317-.307 2.743-.634 4.09-.545.663-1.614.99-1.574 1.98-1.297-.268-2.406 1.643-3.555.613.713-1.87-2.356-2.772-1.554-4.603 0-.872.93-1.149 1.475-1.654l-.416-.772c.436-1.208.881-2.416 1.347-3.614.435-.99-.278-1.901-.436-2.842a4.01 4.01 0 0 1 2.505-.742c.153-.94.368-1.87.644-2.782 1.326-3.278 2.633-6.545 3.96-9.822.366-.872.406-1.822.693-2.703.317-.555.99-.713 1.515-.99A9.901 9.901 0 0 0 14 66.91c.881-.713.396-1.98.455-2.97-.277-.446-.91-.565-1.346-.852 1.238-2.485 2.851-4.772 4.267-7.158a62.376 62.376 0 0 1 5.505-8.07c1.832-1.98 3.485-4.02 5.446-5.821 3.465-3.832 6.831-7.763 10.188-11.684 3.168-4.683 6.247-9.425 9.396-14.128 1.98-2.802 3.178-6.08 4.772-9.12.99-1.98 1.297-4.148 1.98-6.197"/><path d="M31.812 52.297c.91-.673 1.92-1.178 2.881-1.762 2.277 3.604 4.475 7.257 6.743 10.89.366.565.594 1.189.93 1.763a8.05 8.05 0 0 0-1.336.762c-.1.826-.1 1.66 0 2.486a30.277 30.277 0 0 0 2.089 2.277c.663.653 1.822.673 2.277 1.544.194 1.082.489 2.143.881 3.169 1.238 3.069 2.466 6.138 3.713 9.198a20 20 0 0 1 .663 2.861 4.02 4.02 0 0 1 2.515.743 11 11 0 0 0-.584 2.346c.446 1.386.99 2.733 1.495 4.11l-.416.771c.545.505 1.436.783 1.476 1.654.792 1.832-2.268 2.733-1.565 4.594-1.148.99-2.247-.871-3.544-.604 0-.99-.99-1.347-1.575-1.98-.326-1.347-.168-2.772-.633-4.09-.782-2.267-1.456-4.574-2.258-6.831-1.287-3.129-2.505-6.287-3.831-9.406-1.218-2.495-2.396-5.02-3.654-7.495-1.637-2.64-3.287-5.28-4.95-7.92-1.535-1.981-3.188-3.842-4.743-5.793 1.119-1.089 2.277-2.138 3.416-3.198M23.92 71.287a2.871 2.871 0 0 1 1.981-1.445 3.248 3.248 0 0 0-.356 2.188c.237.465.752.732.93 1.237a21.505 21.505 0 0 1 1.248 5.07c-.139 1.594-.396 3.188-.574 4.782-.901.178-1.852.802-2.743.277-1.198-.247-1.753-1.386-2.515-2.208a2.673 2.673 0 0 1-.772-1.208 19.129 19.129 0 0 1 .168-5.525c.832-1.089 2.06-1.87 2.663-3.138M30.525 69.871c.673.268 1.485.466 1.822 1.169.613 1.495 2.168 2.307 2.9 3.663a17.634 17.634 0 0 1 0 5.634c-.99 1.158-1.792 2.782-3.415 3.148-.842.376-1.674-.237-2.495-.366-.188-1.594-.446-3.188-.585-4.782a21.505 21.505 0 0 1 1.198-5.07c.179-.505.694-.772.931-1.237a3.198 3.198 0 0 0-.356-2.188M17.545 79.584a4.95 4.95 0 0 1 2.05-2.287 5.842 5.842 0 0 0 1.197 5.218c.457.775.791 1.617.99 2.495a4.05 4.05 0 0 1 .07 2.97c-.793 1.386-2.377 2.852-4.08 2.169a9.683 9.683 0 0 1-2.485-3.317 4.277 4.277 0 0 1 .129-3.317 21.545 21.545 0 0 1 2.138-3.891M36.842 77.297a4.733 4.733 0 0 1 1.98 2.228A22.238 22.238 0 0 1 41 83.485a4.277 4.277 0 0 1 .129 3.317 9.683 9.683 0 0 1-2.456 3.297c-1.683.673-3.237-.752-4.04-2.099-.722-1.644.15-3.327.674-4.881 1.178-1.683 2.257-3.723 1.535-5.832"/><path d="M24.07 86.228c1.92-.99 4.247-1.634 6.346-.792.782.406 1.98.386 2.297 1.316.653 1.278 1.327 2.545 1.98 3.793.842 1.297 2.366 1.762 3.733 2.267.603.27 1.105.724 1.435 1.297a9.129 9.129 0 0 1-3.584 3.792 3.198 3.198 0 0 1-2.267.109c-2.386-.505-4.753-1.475-7.218-1.07-1.752.397-3.475.872-5.228 1.228-1.455.139-2.475-.99-3.505-1.831a12.07 12.07 0 0 1-1.544-2.228c.99-1.881 3.653-1.505 4.89-3.198.991-1.456 1.654-3.188 2.635-4.683"/></g></svg>
