<svg viewBox="0 0 82 100" xmlns="http://www.w3.org/2000/svg"><path d="M39.495.267a4.95 4.95 0 0 1 3.139 0c.168 1.594.287 3.188.406 4.783.168.99-1.238 1.356-1.367 2.257.644 1.267 1.98 2.307 1.614 3.891 1.467.03 2.933-.087 4.376-.347 3.664-2.158 7.317-4.33 10.96-6.514a8.614 8.614 0 0 1 2.347-.545c.822-.109 1.723-.495 2.476 0 2.811 1.158 5.683 2.149 8.524 3.267 2.97.911 5.94 1.713 8.911 2.594a33.842 33.842 0 0 0-2.841 2.228c-2.337 2.277-4.693 4.535-7.02 6.812a4.743 4.743 0 0 1-2.268.891c-1.722.466-3.465.881-5.168 1.386-3.604 1.327-7.198 2.674-10.792 4.01a4.356 4.356 0 0 1-3.426-.475c-1.841-.99-3.564-2.356-5.673-2.733 0 .891.109 1.792.06 2.693-.387 3.882-.892 7.753-1.228 11.644.93-.07 1.851-.198 2.772-.287 1.772-.149 3.356-1.09 5.099-1.396a33.337 33.337 0 0 1-2.208 4.703c-.653-.555-1.138-1.287-1.832-1.792a5.475 5.475 0 0 0-2.287.277c.12 1.208.248 2.406.377 3.614 0 .623.772.99.653 1.663-.248 1.743-.09 3.505-.228 5.258-.455 13.782-.99 27.564-1.515 41.346-.524 3.198-1.158 6.376-1.802 9.555-.712-3.149-1.336-6.327-1.92-9.505-.555-12.06-1.126-24.12-1.713-36.179-.139-3.594-.238-7.198-.505-10.772 1.079-1.416.703-3.317.99-4.95a11.119 11.119 0 0 0-2.129-.288c-.812.446-1.287 1.297-1.98 1.892a41.119 41.119 0 0 1-2.238-4.664c1.525.238 2.921.99 4.426 1.238 1.149.138 2.307.257 3.465.317-.346-3.773-.86-7.426-1.336-11.179a24.07 24.07 0 0 1 0-3.584 19.713 19.713 0 0 0-6.525 2.97 4.485 4.485 0 0 1-4.366.307c-3.38-1.254-6.756-2.501-10.129-3.742a285.202 285.202 0 0 0-6.346-1.683c-.99-.238-1.555-1.198-2.307-1.812C6.079 14.85 3.564 11.792.307 9.653L5.94 8.04C9.9 6.99 13.723 5.337 17.584 3.9c.881-.653 1.98-.228 2.921-.08.767.052 1.519.244 2.218.565 3.218 1.98 6.445 3.832 9.673 5.763.609.49 1.343.799 2.119.89 1.495 0 2.97.15 4.465.199a8.05 8.05 0 0 1 .11-1.624c.356-.881 1.158-1.505 1.494-2.396-.356-.842-1.614-1.188-1.455-2.238.148-1.564.218-3.148.396-4.713M21.89 12.97c-1.267.644-2.584 1.169-3.822 1.862 2.97 1.04 5.94 1.98 8.911 2.97a6.653 6.653 0 0 0 3.09 0c-2.347-1.614-4.872-3.08-7.298-4.653-.257-.169-.584-.377-.89-.179m37.108-.099c-2.614 1.664-5.267 3.258-7.841 4.95a6.554 6.554 0 0 0 3.217 0c2.911-1.049 5.94-1.89 8.783-2.97-1.377-.693-2.783-1.306-4.159-1.98" fill="#00040C" fill-rule="nonzero"/></svg>
