<svg viewBox="0 0 42 100" xmlns="http://www.w3.org/2000/svg"><g fill="#00040C" fill-rule="nonzero"><path d="M3.81 37.77a5.9 5.9 0 0 1 .9-.22 4.48 4.48 0 0 0 2-.82 1.51 1.51 0 0 0 .62-1.21v-.87c.253-.02.507-.02.76 0a4.92 4.92 0 0 0 1.83-.1 12.69 12.69 0 0 0 3.17-1.22 7.14 7.14 0 0 0 1.11-.7c.72-.53 1.43-1.07 2.13-1.63.32-.26.6-.56.9-.84a1.81 1.81 0 0 1 .32-.16c0 .26-.06.45-.08.63 0 .45.1.63.55.61.169.004.336-.03.49-.1A6.72 6.72 0 0 0 21 29.56a6.77 6.77 0 0 0 2.44 1.57.83.83 0 0 0 .35.1c.48.06.85 0 .71-.73v-.43a.9.9 0 0 1 .68.42 17 17 0 0 0 2.91 2.32 10.72 10.72 0 0 0 3.31 1.57 5.1 5.1 0 0 0 2.68.26 1.86 1.86 0 0 1 .41 0h.22v.54a1.84 1.84 0 0 0 1 1.78c.741.338 1.52.586 2.32.74l.22.07a6.75 6.75 0 0 0-1.2.38 38.29 38.29 0 0 0-5.24 3.18c-1.28 1-2.533 2.03-3.76 3.09a6.2 6.2 0 0 0-1 1.2.77.77 0 0 1-.85.46 3.31 3.31 0 0 0-3.07 1.36 1.15 1.15 0 0 1-.77.48c-.51.07-.72.48-.85 1s-.31.53-.72.4a.55.55 0 0 1-.26-.24 2.43 2.43 0 0 1-.13-.38 1.1 1.1 0 0 0-.93-.77.85.85 0 0 1-.48-.28 3.56 3.56 0 0 0-3.49-1.51c-.1 0-.21-.06-.31-.1a.24.24 0 0 1-.09-.11c-.73-1.5-2.14-2.35-3.35-3.35A27.91 27.91 0 0 0 6 38.73a1.32 1.32 0 0 1-.2-.12 3.27 3.27 0 0 0-2-.73l.01-.11zM21 43.27c-.53-1.33-1-2.59-1.51-3.86a.8.8 0 0 1 0-.48c.18-.72.37-1.43.56-2.18a26.53 26.53 0 0 0-3.7-1.11.56.56 0 0 0-.7.33 6 6 0 0 0-.61 3.73 5.68 5.68 0 0 0 1.82 3.4 6 6 0 0 0 9.48-7c-.23-.46-.32-.52-.82-.4-.69.17-1.37.37-2 .57-.63.2-1.06.34-1.59.52.15.56.28 1.07.44 1.57a2.46 2.46 0 0 1-.08 1.77c-.46.98-.84 2.03-1.29 3.14zM17.26 53.17l3.52-.94a.78.78 0 0 1 .4 0l3.6 1c-.12.62-.22 1.22-.33 1.82-.3 1.52-.6 3-.89 4.55-.2 1-.39 2-.58 3a7.62 7.62 0 0 0-.14.94c-.05.91-.06 1.82-.1 2.73-.08 1.5-.18 3-.26 4.49 0 .71-.08 1.42-.1 2.13-.07 1.58-.13 3.15-.2 4.73 0 1.12-.11 2.24-.17 3.36-.08 1.45-.18 2.9-.26 4.35 0 .71-.07 1.42-.1 2.14-.07 1.55-.13 3.11-.19 4.67-.06 1.17-.13 2.33-.18 3.5-.07 1.39-.12 2.79-.19 4.18a1 1 0 0 1-.09.18v-.42c-.07-1.7-.12-3.39-.19-5.09-.07-1.7-.18-3.63-.27-5.44-.06-1.23-.12-2.46-.19-3.68-.07-1.22-.11-2.39-.18-3.59-.08-1.42-.18-2.84-.26-4.26 0-1.12-.06-2.25-.12-3.37-.06-1.28-.16-2.56-.24-3.85 0-.63-.07-1.27-.1-1.9 0-.9 0-1.79-.1-2.69a25.73 25.73 0 0 0-.51-4.62c-.38-1.63-.63-3.3-.95-5-.16-.85-.35-1.7-.52-2.55-.1-.08-.1-.22-.11-.37zM18.32 25.73c.12-.69.23-1.34.35-2 .23-1.24.47-2.48.7-3.72.23-1.24.46-2.47.68-3.71.18-.887.29-1.786.33-2.69 0-1.58.16-3.15.25-4.72v-.26c.06-1.47.13-2.94.18-4.41 0-1.21.07-2.43.11-3.64V0H21c.028.085.048.172.06.26 0 1.2.06 2.4.1 3.6.06 1.66.12 3.33.2 5 0 1.12.1 2.24.17 3.35a29.26 29.26 0 0 0 .51 4.67c.35 1.55.57 3.13.85 4.69.23 1.23.47 2.45.7 3.67 0 .15 0 .3.05.5a18.15 18.15 0 0 0-1.8.79 1.6 1.6 0 0 1-1.72 0c-.53-.31-1.12-.53-1.8-.8zM33.16 73.93l-7.34-18.45.31-.19 3.19-1.68c.4-.2.61-.11.69.34.14.82.26 1.64.39 2.45.17 1.05.35 2.1.52 3.16l.48 3c.17 1 .35 2.08.52 3.11l.39 2.5.51 3.06c.13.82.27 1.63.4 2.45.005.07.005.14 0 .21l-.06.04zM8.78 73.91c.07-.5.14-1 .22-1.49.17-1.06.35-2.11.52-3.16.17-1.05.32-2 .49-3l.51-3.15c.17-1 .35-2 .52-3.07l.48-3c.16-1 .31-2 .48-3 .09-.49.28-.58.71-.35l3.5 1.83-7.35 18.41-.08-.02zM32.79 49.36l2 1.59L38 53.43c.15.12.264.28.33.46a554.408 554.408 0 0 1 3.25 8.91 1.54 1.54 0 0 1 0 .19c-.27-.3-.5-.54-.72-.8-1.13-1.3-2.25-2.61-3.38-3.92L34.8 55.2c-1-1.14-2-2.29-3-3.42a.39.39 0 0 1-.07-.48c.19-.41.32-.85.52-1.25a4.79 4.79 0 0 1 .54-.69zM.4 62.91c.39-1.08.78-2.16 1.18-3.24.66-1.84 1.36-3.68 2-5.54.154-.41.434-.76.8-1l4.56-3.57c.09-.07.18-.11.26-.17.54.31.6.92.89 1.38.39.64.12 1.05-.31 1.52-1 1.09-1.95 2.23-2.93 3.35-.71.82-1.44 1.63-2.16 2.45L2.5 60.62c-.49.57-1 1.13-1.49 1.7l-.54.62-.07-.03zM13.25 29c-.63-.13-1.26-.24-1.89-.38-1.11-.25-2.21-.53-3.32-.78a.52.52 0 0 1-.44-.34c-.75-2.24-1.5-4.48-2.2-6.77l7.92 8.12-.07.15zM36.68 20.72L35.6 23.9c-.38 1.13-.77 2.26-1.13 3.4a.66.66 0 0 1-.55.5c-1.48.32-2.94.69-4.41 1-.27.06-.55.06-.82 0l7.93-8.13.06.05z"/></g></svg>
