<svg viewBox="0 0 60 100" xmlns="http://www.w3.org/2000/svg"><g fill="#00040C" fill-rule="nonzero"><path d="M18.376 96.713l.268.307a.792.792 0 0 1-.941 0c-1.772-.832-3.535-1.673-5.327-2.456-3.861-1.713-7.742-3.386-11.624-5.079L0 89.178l.287-.346c.485-.555.99-1.1 1.465-1.644.307-.337.634-.663.99-.99a6 6 0 0 0 1.486-2.04c.722-1.693 1.475-3.376 2.188-5.069a.683.683 0 0 1 .624-.505 6.713 6.713 0 0 0 1.089-.158 5.782 5.782 0 0 0 3.88-3.06c.318-.594.595-1.208.912-1.871l.643.168a29.594 29.594 0 0 0 5.248 1.327.525.525 0 0 0 .564-.218 3.03 3.03 0 0 1 1.277-.99c.188-.075.364-.175.525-.297.129-.109.287-.307.268-.435a2.317 2.317 0 0 1 .673-1.842c.307-.385.594-.785.861-1.198a.871.871 0 0 1 .673-.406c.545-.08 1.09-.149 1.634-.248.377-.07.745-.179 1.1-.326 1.801-.792 3.603-1.624 5.405-2.426.355-.152.65-.417.842-.753.752-1.247 1.505-2.504 2.326-3.722.674-.99 1.456-1.921 2.159-2.901.584-.822 1.099-1.693 1.683-2.515.584-.822 1.267-1.703 1.901-2.545.178-.227.396-.435.554-.683.345-.525.87-.905 1.476-1.07.534-.167 1.06-.395 1.594-.593.534-.198.416-.119.732.198a1.09 1.09 0 0 1 .12 1.445c-.694 1.307-1.328 2.654-1.931 3.96-.229.581-.417 1.177-.565 1.783-.112.35-.179.712-.198 1.08.084-.078.164-.161.238-.248.475-.644.99-1.288 1.416-1.98.232-.33.43-.681.594-1.05.584-1.307 1.128-2.624 1.713-3.96a.99.99 0 0 0 0-.842 2.277 2.277 0 0 1-.09-1.663c.416-1.08.783-2.179 1.11-3.278a8.327 8.327 0 0 1 1.148-2.05c.525-.84 1.129-1.633 1.624-2.484.73-1.219 1.7-2.277 2.851-3.11l.891.783a9.109 9.109 0 0 0-.683 2.119l.852-1.317c.495-.772.99-1.584 1.504-2.307.472-.472.986-.9 1.535-1.277a.396.396 0 0 1 .357 0c.336.128.663.287 1.059.465-.535 1.287-1.257 2.456-1.832 3.693-.574 1.238-1.178 2.426-1.693 3.763.129-.1.287-.179.406-.288.792-.792 1.604-1.564 2.357-2.386.396-.435.772-.158 1.158-.089.386.07.337.357.376.644.077.47-.03.952-.297 1.346a25.238 25.238 0 0 0-2.881 5.723c-.614 1.762-1.198 3.545-1.98 5.248-.99 2.297-2.188 4.544-3.297 6.811-.693 1.406-1.436 2.802-2.119 4.228a8.812 8.812 0 0 0-.535 1.664 1.475 1.475 0 0 1-.425.742c-.387.376-.753.762-1.149 1.109-.178.156-.387.27-.614.337a23.77 23.77 0 0 1-1.703.425 6.93 6.93 0 0 0-2.128.822c-1.654.99-3.327 1.921-4.951 2.97a15.97 15.97 0 0 0-1.98 1.406 10.891 10.891 0 0 1-2.644 1.555l-.524.257.237.535c-.336.327-.99.08-1.109.693.456.07.683.743 1.367.416.007.092.007.185 0 .277a.99.99 0 0 0 .297 1.149c.237.227.366.465.059.772v-.198c0-.267-.248-.357-.465-.396-.218-.04-.337.198-.386.386a29.98 29.98 0 0 1-1.456 3.772 1.98 1.98 0 0 1-.643.812 6.465 6.465 0 0 0-1.872 2.198 16.248 16.248 0 0 0-1.98 5.228c-.131.77-.214 1.547-.248 2.327.024.605.097 1.208.218 1.802.08.485 0 .722-.495.841s-.99.218-1.544.307c-.16.03-.325.03-.485 0a19.238 19.238 0 0 1-4.268-1.861c-.297-.179-.624-.307-.93-.456l-.07.04zM33.545 50.01c.13.179.246.367.346.564.06.129.366.327 0 .426l.1.356c-.377.288-.377.288 0 .99l-.298.515a2.634 2.634 0 0 1-1.129-1.079 3.743 3.743 0 0 1-.514-1.89c.066-1.961.4-3.903.99-5.773.215-.587.533-1.13.94-1.604.315-.462.54-.98.664-1.525.282-1.4.398-2.83.346-4.257a2.891 2.891 0 0 0-.307-1.436 5.683 5.683 0 0 0-1.98-2.386c-.495-.317-.92-.733-1.416-1.05-.495-.316-.99-.534-1.485-.821a2.446 2.446 0 0 1-.673-.456 4.644 4.644 0 0 0-1.525-1.06l-1.248-.574a3.515 3.515 0 0 1-1.712-1.712c-.317-.644-.664-1.268-.931-1.931a4.08 4.08 0 0 1-.327-1.327c-.08-1.534-.168-3.07-.119-4.604a7.861 7.861 0 0 1 1.683-4.792 5.743 5.743 0 0 1 1.347-1.505c.238-.138.465-.287.693-.435.35-.19.682-.412.99-.664a3.257 3.257 0 0 1 1.218-.663 12.733 12.733 0 0 1 4.158-.703c.911 0 1.832 0 2.743.07.63.03 1.239.232 1.762.583.693.466 1.377.99 2.05 1.466.49.366.863.869 1.07 1.445l.88 2.584c.062.132.115.268.159.406.09.292.136.596.138.901 0 .584-.148 1.159-.208 1.743a7.614 7.614 0 0 1-.752 2.832c-.238.455-.535.87-.812 1.297-.036.043-.07.09-.099.138a3.594 3.594 0 0 1-1.98 1.673c-.08.05-.188.11-.257.09-.357-.1-.585.138-.852.287-.267.148-.515.356-.752 0 0-.05-.169 0-.258 0h-.604a4.535 4.535 0 0 1-3.505-1.386 3.455 3.455 0 0 0-.485-.446 2.584 2.584 0 0 1-.99-1.98 4.683 4.683 0 0 1 1.762-4.327c.278-.232.629-.358.99-.356.44-.009.881.018 1.317.079a.99.99 0 0 1 .802.861 3.06 3.06 0 0 1 0 1.525 1.98 1.98 0 0 1-.257.436 1.881 1.881 0 0 0-1.198-.882c-.307-.069-.654-.267-.93.05-.278.317-.902.683-.753 1.366.02.294.02.588 0 .881a1.08 1.08 0 0 0 1.326.822.396.396 0 0 1 .258 0 1.98 1.98 0 0 0 1.277-.208l1.98-.752a.465.465 0 0 1 .149-.06c.623.05.871-.405 1.079-.851a2.97 2.97 0 0 0 .277-1.099c.04-.64.04-1.281 0-1.92a2.485 2.485 0 0 0-1.98-2.615 4.772 4.772 0 0 0-1.178-.227h-3.248a5.762 5.762 0 0 0-3.812 1.574 2.208 2.208 0 0 0-.87.99.05.05 0 0 1 0 .05 2.881 2.881 0 0 0-.694 2.782c.05.406.149.792.168 1.198.127.966.346 1.917.654 2.841.228.756.62 1.453 1.148 2.04.402.523.895.97 1.456 1.317.828.468 1.632.98 2.406 1.534a8.109 8.109 0 0 1 1.92 1.723c.416.555.901 1.05 1.357 1.584.11.121.2.258.267.406.547 1.117.882 2.326.99 3.565 0 1.425.07 2.861.07 4.287 0 .485-.179.99-.218 1.465a5.287 5.287 0 0 1-.792 2.06 2.842 2.842 0 0 1-.396.455c-.693.832-1.386 1.653-2.06 2.505a.99.99 0 0 0-.168 1.346c.107.211.178.439.208.674.109.346.04.435-.366.574z"/><path d="M35.277 60.505c-1.089 1.614-2.168 3.218-3.277 4.812a1.218 1.218 0 0 1-.535.435c-.91.416-1.851.783-2.762 1.218a15.91 15.91 0 0 0-2.04 1.159c-.57.4-1.223.668-1.91.782-.575.07-1.14.218-1.793.346.08-.198.12-.326.179-.455.336-.663.673-1.337.99-1.98.092-.177.213-.337.356-.475.792-.763 1.584-1.525 2.386-2.268a1.98 1.98 0 0 1 .594-.376c.99-.386 1.98-.792 2.97-1.139a33.347 33.347 0 0 0 4.218-1.91l.525-.248.1.099zM32.723 3.406A4.594 4.594 0 0 1 32.673 0c.604.08.594.08.703.683a5.198 5.198 0 0 1 0 2.07c-.079.554-.07.564-.653.653zM17.881 13.861c0 .495-.198.624-.534.456-.337-.168-.99-.406-1.149-.99a.673.673 0 0 1 0-.268c.02-.17.092-.329.208-.455.07-.06.307 0 .426.129.289.193.557.416.802.663.1.145.182.301.247.465zM22.06 3.267a2.426 2.426 0 0 1 1.306 1.575c.06.247.139.584-.208.762-1.03-.753-1.435-1.644-1.099-2.337zM43.564 3.139c.614.673.198 1.683-.841 2.069a1.683 1.683 0 0 1 .841-2.07zM47.94 12.188c-.237-.634-.128-.99.377-1.168.269-.09.543-.163.822-.218.336.515.287.842-.189 1.06a6.01 6.01 0 0 1-1.01.326z"/></g></svg>
