<svg id="Adventurers_League_Season_Icons" data-name="Adventurers League Season Icons" xmlns="http://www.w3.org/2000/svg" viewBox="0 0 100 100"><defs><style>.cls-1{fill:#00040c;}</style></defs><title>AL06 Tales from the Yawning Portal</title><g id="_06_Tales_of_the_Yawning_Portal" data-name="06 Tales of the Yawning Portal"><polygon class="cls-1" points="35.42 16.19 43.57 8.03 27.27 8.03 35.42 16.19"/><rect class="cls-1" x="55.99" y="26.26" width="14.82" height="14.82" transform="translate(-5.24 54.7) rotate(-45)"/><polygon class="cls-1" points="69.19 8.04 51.74 8.04 37.18 22.6 45.93 31.36 69.19 8.04"/><polygon class="cls-1" points="19.13 8.03 73.88 62.78 73.88 81.41 0.5 8.04 19.13 8.03"/><polyline class="cls-1" points="73.88 59.32 65.14 50.59 65.14 50.59 82.03 33.68 65.13 16.77 65.13 16.77 73.87 8.03 99.5 33.68 73.88 59.32"/><polygon class="cls-1" points="62.23 73.32 73.88 84.97 73.88 91.97 62.23 91.97 62.23 73.32"/><polygon class="cls-1" points="43.59 91.97 31.94 80.31 31.94 43.01 43.59 54.67 43.59 91.97"/></g></svg>