<svg id="Adventurers_League_Season_Icons" data-name="Adventurers League Season Icons" xmlns="http://www.w3.org/2000/svg" viewBox="0 0 100 100"><defs><style>.cls-1{fill:#00040c;}</style></defs><title>AL07 Tomb of Annihilation</title><g id="_07_Tomb_of_Annihilation" data-name="07 Tomb of Annihilation"><path class="cls-1" d="M80.14,23.45c-.14-.5-6.09,4.07-5.82,4.69.87,2.06,1.71,4.17.71,6.42.92,1.15,3.46,4.59,3,6.87C83.58,31.62,82.87,29.74,80.14,23.45Z"/><path class="cls-1" d="M65.3,36.28a3.95,3.95,0,1,1,3.94-3.94A3.95,3.95,0,0,1,65.3,36.28Zm0-5.75a1.81,1.81,0,1,0,1.8,1.81A1.81,1.81,0,0,0,65.3,30.53Z"/><path class="cls-1" d="M19.9,23.45C20,23,26,27.52,25.72,28.14,24.85,30.2,24,32.31,25,34.56c-.92,1.15-3.46,4.59-3,6.87C16.46,31.62,17.17,29.74,19.9,23.45Z"/><path class="cls-1" d="M34.74,36.28a3.95,3.95,0,1,1,3.95-3.94A3.95,3.95,0,0,1,34.74,36.28Zm0-5.75a1.81,1.81,0,1,0,1.81,1.81A1.81,1.81,0,0,0,34.74,30.53Z"/><path class="cls-1" d="M50,95.21a12.82,12.82,0,0,1-5.74,4.29c1.43-2.4,1.32-3.83,1-4.7-.3-.53-6.79-1.11-6.79-4.82,2.79-2.6-1-6.63-6.63-7.88-.56-.13-3.67-3.6-4.06-8.26V72c4.08-5.77-1.2-12.47-3.17-13.29,1.45-.88,3.48-7,3.48-9,0-3.75-4.17-5.67-4.36-7a6.6,6.6,0,0,1,0-3.56c.27-1.51,2.47-3.84,3.06-4.36-1.34-2-.63-5.39,1-8.49.34-.65-1.66-2.29-2.58-2.54v-1c.79-1.22,2.71-2.77,5.65-5.62.38.88,2.79,4.15,5,4.23,1.36,0,3.78-1.38,4.82-4.19a5.58,5.58,0,0,0,5.08-4.86c-1.23,1.64-2.42,3.39-5,3.39-1.44,1.11-3.17,3.73-4.8,3.73-3.09,0-6.28-8.83-12.25-8.82-5.72,0-4.73,7.46-3,10.21-3.47-.27-7.1-5.24-7.1-10,0-5.2,5-10.34,11.49-10.34C29.64.5,37.32,3.78,45,10.05H55C62.68,3.78,70.36.5,74.83.5c6.49,0,11.49,5.14,11.49,10.34,0,4.73-3.63,9.7-7.1,10C81,18.06,82,10.62,76.25,10.6c-6,0-9.16,8.85-12.25,8.82-1.63,0-3.36-2.62-4.8-3.73-2.59,0-3.78-1.75-5-3.39a5.58,5.58,0,0,0,5.08,4.86c1,2.81,3.46,4.19,4.82,4.19,2.24-.08,4.65-3.35,5-4.23,2.94,2.85,4.86,4.4,5.65,5.62v1c-.92.25-2.92,1.89-2.58,2.54,1.64,3.1,2.35,6.54,1,8.49.59.52,2.79,2.85,3.06,4.36a6.6,6.6,0,0,1,0,3.56C76.12,44,72,45.9,72,49.65c0,2,2,8.13,3.48,9-2,.82-7.25,7.52-3.17,13.29v1.89c-.39,4.66-3.5,8.13-4.06,8.26-5.63,1.25-9.42,5.28-6.63,7.88,0,3.71-6.49,4.29-6.79,4.82-.36.87-.47,2.3,1,4.7C53.66,98.88,50,95.19,50,95.21Zm9.92-14.83c-3,2-6.46,4.18-10,4.18s-7-2.14-10-4.18c1.4,3.31,8.28,6.92,10,6.92S58.51,83.69,59.92,80.38ZM65,63.47V59.11c0-1.81-3.93-11.49-8.64-11.49a15.2,15.2,0,0,0-6.46,1.93,15.2,15.2,0,0,0-6.45-1.93c-4.71,0-8.65,9.68-8.65,11.49v4.36C34.8,69,42,82.56,49.9,82.56S65,69,65,63.47Zm-8.52-18c2,0,2.16,1.56,4.94,1.56,3.31,0,3.88-4.16,3.88-5.38a8.08,8.08,0,0,0-1.4-4c3.83,2.18,8.93-1.59,8.93-4.44V31.39c0-2.37-2.87-5.18-5.39-5.18-3.27,0-8.55,4.64-11.91,4.64,0,1.9,5.34,5.27,6.55,6.47a4.75,4.75,0,0,1,1.06,3.46c0,3.67-1.86,3.86-3.85,3.86.77-.7,1.88-2.74,1.28-3.34-1.8-1.8-3.69,3.34-10.63,3.34S41.11,39.5,39.32,41.3c-.6.6.5,2.64,1.27,3.34-2,0-3.85-.19-3.85-3.86a4.72,4.72,0,0,1,1.07-3.46c1.2-1.2,6.54-4.57,6.54-6.47-3.36,0-8.64-4.64-11.91-4.64a5.63,5.63,0,0,0-5.12,5v1.82c0,2.85,4.83,6.77,8.66,4.59a8.11,8.11,0,0,0-1.39,4c0,1.22.56,5.38,3.87,5.38,2.79,0,3-1.56,4.95-1.56s5.93,2.62,6.53,2.62S54.52,45.5,56.48,45.5Z"/></g></svg>