<svg id="Adventurers_League_Season_Icons" data-name="Adventurers League Season Icons" xmlns="http://www.w3.org/2000/svg" viewBox="0 0 100 100"><defs><style>.cls-1{fill:#fefefc;}.cls-2{fill:#908369;}.cls-3{fill:#808570;}</style></defs><title>Faction -AL08 Waterdeep Adventures</title><g id="_08_Waterdeep" data-name="08 Waterdeep"><path class="cls-1" d="M1.37,81.63c19.45-3.77,19.45-59.13,0-63.26V2.11H98.63V18.37c-19.45,4.13-19.45,59.49,0,63.26V97.89H1.37Z"/><path class="cls-2" d="M100,99.27H0V80.5l1.11-.22c9.09-1.76,13.36-16.56,13.47-29.56.12-13.53-4.05-29-13.49-31L0,19.48V.73H100V19.48l-1.09.23c-9.44,2-13.61,17.48-13.49,31,.11,13,4.38,27.8,13.47,29.56l1.11.22ZM2.75,96.52h94.5V82.71c-9.89-2.9-14.45-17.93-14.58-32C82.54,36.15,87,20.46,97.25,17.31V3.48H2.75V17.31C13,20.46,17.46,36.15,17.33,50.75c-.12,14-4.69,29.06-14.58,32Z"/><path class="cls-3" d="M95.29,94.61H4.71V84.34L5,84.23c10.57-4.39,14.72-22.41,14.09-37.29C18.42,31.09,12.91,19.22,5,16.7l-.32-.1V5.39H95.29V16.6l-.32.1c-7.88,2.52-13.4,14.39-14.06,30.24C80.28,61.82,84.43,79.84,95,84.23l.29.11ZM5.63,93.7H94.37V85C83.6,80.2,79.36,62,80,46.9c.68-16,6.31-28.12,14.38-31V6.3H5.63v9.64c8.07,2.84,13.7,14.93,14.38,31C20.64,62,16.4,80.2,5.63,85Z"/><path class="cls-3" d="M92.55,10.19l-1.24.43C80.65,14.26,77.44,13,75.9,10.06l-.23-.45-.33.39c-6.77,7.81-11,6.42-14.21,4l-.34-.25-.18.39C58,19.78,53.37,22,45.91,21.11L45.13,21l.47.63A70.66,70.66,0,0,0,52,29.44c-.31.41-.61.83-.91,1.25L50.56,30c-6.58-8.4-12.8-16.34-20.09-19l-1.65-.61,1.3,1.18c1.09,1,1,1.32,1,1.35-.53,1.09-8.5-.22-17.74-1.74l-4.93-.8.88.78c.78.7,1.59,1.36,2.38,2,3.83,3.19,7.45,6.2,6.79,10.82l0,.19.16.12c5.66,4.44,6.82,9.65,3.65,16.39l-.09.2.13.17c4.7,5.73,5,11,1.06,16.52l-.1.15.06.16c2.61,7.83,1.53,12.93-3.33,15.6l-.19.11v.22c.51,6-1.64,10.89-6.58,14.88l-1.74,1.41,2.08-.82c9.53-3.75,19.18-3,28.71,2.27l.19.1.18-.13c4.75-3.47,10.78-5.87,22.55,0l.29.15.17-.28c3.11-5.44,10-5.65,20.33-.63l1.89.92-1.5-1.47c-3.25-3.18-4.75-5.82-4.47-7.83a4.41,4.41,0,0,1,2.6-3.14L85,79l-.44-.32c-5.31-3.78-7.59-8.55-6.77-14.16l.12-.78-.65.45c-3.3,2.28-6.58,4.12-13.46,3.45l-.19,0-.12.15c-3.57,4.77-6.26,7.07-8,6.83-.77-.11-1.39-.76-1.84-1.94l-.11-.28-.29.07c-2.05.47-3.77,0-4.71-1.29a4.46,4.46,0,0,1,.16-4.92l.66-1.11-1.12.63c-2.12,1.2-3.18,2.93-3,4.88.29,2.72,3.05,5.3,7.08,6.58,5.29,1.09,10.45-2,15.85-5.33.09,0,2.4-.72,3.23,1.17a5.19,5.19,0,0,1,0,4.3C70.6,79,68.69,80.44,67,81.65c-7.29,4.47-24.44-.17-31-5.36-.62-.45-.57-3-.54-5.07v-.45c0-2.77.68-3.63.82-3.78a15.34,15.34,0,0,0,4.85-3.07,53.9,53.9,0,0,0,6.16-7.19c1.06-1.74,2.57-2.29,4.87-1.8.36.11,8.57,2.59,14.09-.27a6.23,6.23,0,0,1-2.65,2.93l.35.58a6.48,6.48,0,0,0,3.26-4.35c.92-4.55-3.11-10.1-4.63-12.19l-.36-.49-.06-.1L62,41c-.65-.19-.7-.62-.78-2.24l0-.44a.39.39,0,0,0-.4-.37h0l-.46,0,.1.41c.38,1.64-.35,1.87-1.45,2.22a2.87,2.87,0,0,0-2.09,1.49s0,.06-.19.13a1.88,1.88,0,0,0-.36.2,11.2,11.2,0,0,1,.14-1.24c.07-.38.1-.63-.2-.72l-.3,0-.12.26c-1.59,3.37-1.93,5.12-1.23,6.22.58.88,1.82,1.26,4.07,1.24.27,0,.53.2.69.4a4.36,4.36,0,0,1,.71,1.57c-1-1.28-2.88-1.32-4.31-1.35-1.19,0-2.22-.05-2.49-.64-.51-1.07-.42-1.92-.06-5.48l.09-.83v-.34l-.69-.13,0,.37c-.22,1.59-.77,1.8-1.25,2a1.16,1.16,0,0,0-.9,1.05c-.2,4.26,1.45,5.42,3.17,6.11a3.79,3.79,0,0,1-1.93-.67c-1.22-.84-2.06-2.49-2.41-4.75l-.07-.33-.62,0,0,.31a2.2,2.2,0,0,1-.88,1.78,1.33,1.33,0,0,1-.67.26,4.51,4.51,0,0,1-2.42-4.86c.18-.23.66-.79,1.14-1.32.66-.76,1.47-1.68,2.12-2.48l.08-.09v-.12c0-1.77,1.43-4.27,3.18-6.81l0,0L53,29.4l0,0c.46-.62.92-1.23,1.37-1.81,1.06-1.4,2-2.67,2.66-3.66a17.06,17.06,0,0,1-.73,5.5l-.24.37-1.68,2.77,2.23-2.35a2.91,2.91,0,0,0,.27-.41c.16-.25.35-.49.54-.75a10.3,10.3,0,0,0,2-3.77A5.86,5.86,0,0,0,65,28.53c.09,1.85.6,4.13,3.31,4.59-.27,2.05-.1,3.27.51,3.94a1.7,1.7,0,0,0,1.28.54l1.15,1.9A10.88,10.88,0,0,0,73,44.79a17.19,17.19,0,0,1,1.17,2.29,25.07,25.07,0,0,1,1,3.21,57.28,57.28,0,0,1,1,9.39l.09,2.12.58-2a39.89,39.89,0,0,0-1-9.34,20.41,20.41,0,0,0-1.07-3.67C74.29,30.43,86,17.41,91.06,11.85ZM20.5,74l.59,0c3.89,0,9-1.5,13.68-2.9v.11c-.05,2.37-.08,4.45.54,5.34-8,4-14.24,7.44-19.46,10.6A16.5,16.5,0,0,0,20.5,74ZM42.79,90.53A30,30,0,0,0,43,80.84a47.58,47.58,0,0,0,14.36,3.21c3.1,1.92,6.09,4,7.43,6.5C53.6,85.16,47.54,87.22,42.79,90.53ZM83,78.31a48.67,48.67,0,0,0-10.77-1,5.68,5.68,0,0,0,0-3.85A20.62,20.62,0,0,1,77,65.17C76.49,70.29,78.49,74.7,83,78.31ZM52.48,76.52c-3.74-1.18-6.32-3.53-6.57-6A3.93,3.93,0,0,1,47.51,67a4.77,4.77,0,0,0,.43,4.51,5,5,0,0,0,5.14,1.61,3.06,3.06,0,0,0,2.27,2.1c2,.28,4.77-2,8.45-6.82a8.07,8.07,0,0,0,3.55,3.12C61.34,75.18,57,77.45,52.48,76.52Zm15.39-5.28a7.11,7.11,0,0,1-3.59-2.91c5.32.43,8.58-.7,11.3-2.29A22.17,22.17,0,0,0,72,72.7C71.09,70.82,69,70.89,67.87,71.24ZM72,77.71A45.19,45.19,0,0,1,83.61,79a4.74,4.74,0,0,0-2.4,3.31c-.23,1.66.53,3.57,2.29,5.8-4.06-2.82-9.41-4.83-16-6A13.91,13.91,0,0,0,72,77.71Zm-5,4.73c7.38,1.23,13.24,3.53,17.45,6.83-9.44-4.16-15.84-3.72-19.06,1.33-1.24-2.5-4-4.61-7.06-6.51A17.59,17.59,0,0,0,66.93,82.44ZM42.5,80.64a29.49,29.49,0,0,1-.22,10.1,35,35,0,0,0-16.79-4.53,32.35,32.35,0,0,0-9.71,1.52c5.3-3.22,11.7-6.71,19.87-10.84A29.11,29.11,0,0,0,42.5,80.64ZM36,66.36l-.1,0c-.11.08-1,.87-1.11,4.21C30.14,72,25,73.52,21.14,73.53c4.34-2.88,5.33-7.89,3-15.27a47.43,47.43,0,0,1,16.24,5.4A14.19,14.19,0,0,1,36,66.36Zm4.76-3A47.78,47.78,0,0,0,24,57.78c3.94-5.6,3.69-10.91-.77-16.66,8.61,1.2,16.27,6.22,23.4,15.34A52.33,52.33,0,0,1,40.75,63.33Zm25.79-9.64v0a8.94,8.94,0,0,1-1.74.82,51.31,51.31,0,0,1-2.52-12.16C63.88,44.6,67.36,49.64,66.54,53.69ZM60.19,52l.22,1.4.44-1.35A5.12,5.12,0,0,0,60,48.13a1.45,1.45,0,0,0-1.26-.66c-1.94,0-3-.27-3.45-.93s-.29-1.81.48-3.74a.63.63,0,0,0,.28.46.58.58,0,0,0,.67-.11l.08-.09c.05-.1.13-.13.27-.2a.91.91,0,0,0,.53-.49c.27-.65.95-.87,1.67-1.09a3.8,3.8,0,0,0,1.53-.76,1.41,1.41,0,0,0,1,1.1v0a52.43,52.43,0,0,0,2.62,13,15.85,15.85,0,0,1-4.69.64,29.3,29.3,0,0,0-2.33-5.79C58.72,49.7,59.89,50.2,60.19,52Zm-4.87-.57,1.13-.24-1.07-.42-.68-.24c-1.92-.68-3.73-1.32-3.52-5.71,0-.28.11-.32.46-.46a2.19,2.19,0,0,0,.83-.48c-.25,2.59-.26,3.47.25,4.55s1.73,1,3.09,1l1,0a29,29,0,0,1,2.39,5.82,29.12,29.12,0,0,1-6.75-1c-.15-.82-.4-1.89-.8-3.36A5,5,0,0,0,55.32,51.43ZM43.93,42.74a5.17,5.17,0,0,0,2.82,5.39A1.51,1.51,0,0,0,48,47.9a2.52,2.52,0,0,0,.92-1,6.69,6.69,0,0,0,2.13,3.63c.45,1.62.74,2.79.9,3.66a4.6,4.6,0,0,0-5,1.88C39.65,46.82,31.82,41.76,23,40.62c3-6.56,2-11.74-3.11-16.17,8.73,1.9,17.29,7.38,25.48,16.3l-.12.13C43.94,42.37,43.79,42.54,43.93,42.74Zm3.36-4.22c-.51.61-1.09,1.28-1.62,1.89-8.49-9.25-17.4-14.83-26.5-16.58.58-4.88-3.13-8-7.06-11.24l-1.24-1A93.45,93.45,0,0,1,48.13,35.61,7.94,7.94,0,0,0,47.29,38.52Zm1-3.35A93.76,93.76,0,0,0,12.66,11.7l.57.09c12.29,2,17.74,2.85,18.47,1.36a1.11,1.11,0,0,0-.12-1C38.12,15.19,43.91,22.59,50,30.39l.69.88A32.45,32.45,0,0,0,48.33,35.17ZM59.52,24,59,22.73l-.17,1.36a8.15,8.15,0,0,1-1.52,3.8,25.8,25.8,0,0,0,.26-5.26l-.09-1.45L57,22.52a31.59,31.59,0,0,1-3.2,4.63l-1.31,1.73a69.25,69.25,0,0,1-5.83-7c6.87.63,11.39-1.41,14.09-6.35V26.06A6.73,6.73,0,0,1,59.52,24Zm11,12.89h-.21a1.12,1.12,0,0,1-.94-.31c-.49-.53-.58-1.75-.3-3.72l.05-.35-.35,0c-2-.22-3-1.55-3-4.32v-.34h-.34a5.73,5.73,0,0,1-4.22-1.29V14.89c4.52,3.08,8.9,1.92,14-3.71a238.93,238.93,0,0,0-3.57,27.59Zm3.56,8.4c-.16-.3-.33-.58-.48-.85A10.09,10.09,0,0,1,72,39.79,235.45,235.45,0,0,1,75.68,11c2.12,3.14,6.36,3.33,14.61.65C85.24,17.28,74.3,29.67,74.08,45.3Z"/><path class="cls-3" d="M61.57,32.35c-1.35,1.15-3,2.59-2.92,4.65,0,.1.46.07.46,0-.1-1.83,1.48-3.19,2.75-4.27,1-.86,1.8-1.54,1.63-2.28l-.16-.74-.27.7c-.19.49-.77.58-1.76.68a6.33,6.33,0,0,0-5.2,2.75c-.06.09.31.36.38.26a5.94,5.94,0,0,1,4.86-2.56,5.4,5.4,0,0,0,1.39-.25A10.47,10.47,0,0,1,61.57,32.35Z"/><path class="cls-3" d="M51.59,35.78c-1.73,1.11-2.11,2.49-2.2,4.64l0,.44.37-.23c.14-.1.27-.17.39-.24a4.47,4.47,0,0,0,1.73-1.72c.5-.66.26-2,.08-2.75l-.08-.31Zm-.11,2.62A4,4,0,0,1,49.89,40h0c.11-1.67.46-2.76,1.7-3.66A2.85,2.85,0,0,1,51.48,38.4Z"/><path class="cls-3" d="M45.74,42.76a4,4,0,0,0,0,1.1.72.72,0,0,0,.46,0,3.69,3.69,0,0,0,0-1.1A1,1,0,0,0,45.74,42.76Z"/></g></svg>