<svg xmlns="http://www.w3.org/2000/svg" viewBox="0 0 100 100"><defs><style>.cls-1{fill:#a53722;}.cls-2{fill:#d8b520;}</style></defs><title>Faction -Lords&amp;apos; Alliance - Symbol</title><g id="Faction_Banners" data-name="Faction Banners"><g id="Lords_Alliance" data-name="Lords Alliance"><path class="cls-1" d="M50,2.31A47.69,47.69,0,1,0,97.69,50,47.74,47.74,0,0,0,50,2.31M50,96A46,46,0,1,1,96,50,46,46,0,0,1,50,96M50,4.77A45.23,45.23,0,1,0,95.23,50,45.28,45.28,0,0,0,50,4.77m34.66,64A22.37,22.37,0,0,1,78.17,74a3.75,3.75,0,0,1-1.61.4,2.43,2.43,0,0,1-.73-.11l-.12,0-.06.12c-.1.24-4.32,8.31-4.32,8.31L72.05,57A15.36,15.36,0,0,1,77,58.05l1.15.55a21.54,21.54,0,0,0-.39,2.86,4,4,0,0,0,1.25-4c-7-7.09-19.92-9.66-29-9.69s-22,2.6-29,9.69c-.78,1.84,1,3.77,1.25,4a21.79,21.79,0,0,0-.39-2.86L23,58.05A15.36,15.36,0,0,1,28,57l.45,25.61c-4-8.13-3.61-7.2-4-8.22l-.06-.11-.11,0a2.55,2.55,0,0,1-.74.11,3.78,3.78,0,0,1-1.61-.4,22.37,22.37,0,0,1-6.49-5.17c-1-1.22-3-5-3.21-7.28a13.06,13.06,0,0,1,1.12-6.95l.19-.42a18.09,18.09,0,0,0,1.93-5.66,6.22,6.22,0,0,0-.15-2.35v0l0,0L13.94,42.6,13.72,42l.26-.57c.53-1.2,3.29-7.21,5.26-8.82l2-1.61.52,2.49a20.33,20.33,0,0,0,1.59,4.86c.4.72.75.72.88.72a1.58,1.58,0,0,0,.68-.2A3.43,3.43,0,0,0,25.56,36c-.11-.42-.18-.9-.27-1.45a15.68,15.68,0,0,0-1.55-5.23l-.52-.95.72-.81c.5-.57,5-5.64,7.87-7.25l2.08-1.18.21,2.39a78.08,78.08,0,0,0,1.39,10.81c.19.69.74,2.28,1.7,2.28l.3,0c1.27-.27,2.15-2.63,1.9-4.27-.07-.47-.13-1.11-.21-1.93-.25-2.63-.78-8.09-2.24-9.65L35.2,16.9l2.45-.68c1.53-.42,8.22-4.71,11.47-6.92L50,8.71l.87.59c2.73,1.86,9.92,6.48,11.5,6.92L65,17l-2,1.87c-.28.26-1.73,2-2.36,11.38-.12,1.82.67,4.13,1.88,4.39l.31,0c1,0,1.51-1.59,1.71-2.28A79.49,79.49,0,0,0,65.9,21.54l.21-2.39,2.09,1.18C71,21.94,75.56,27,76.07,27.58l.71.81-.52.95a15.68,15.68,0,0,0-1.55,5.23c-.09.55-.16,1-.27,1.45a3.43,3.43,0,0,0,.69,2.87,1.58,1.58,0,0,0,.69.2c.12,0,.47,0,.87-.72a20.33,20.33,0,0,0,1.59-4.86L78.8,31l2,1.61c2,1.61,4.72,7.62,5.26,8.82l.25.57-.21.58-1.26,3.46h0l0,0a6.25,6.25,0,0,0-.16,2.38,18.09,18.09,0,0,0,1.93,5.66l.19.42a13,13,0,0,1,1.12,6.95c-.23,2.28-2.24,6.06-3.21,7.28"/><path class="cls-2" d="M50,4A46,46,0,1,0,96,50,46,46,0,0,0,50,4m0,91.23A45.23,45.23,0,1,1,95.23,50,45.28,45.28,0,0,1,50,95.23M50,0a50,50,0,1,0,50,50A50.06,50.06,0,0,0,50,0m0,97.69A47.69,47.69,0,1,1,97.69,50,47.74,47.74,0,0,1,50,97.69M86.34,61.35a17.69,17.69,0,0,1-2.88,6.47,21,21,0,0,1-5.95,4.75,2.21,2.21,0,0,1-1,.25.85.85,0,0,1-.29,0,2.22,2.22,0,0,0-.61-.1,1.51,1.51,0,0,0-1.42,1c-.15.35-1.65,4.18-1.65,4.18l.93-19.37a8.06,8.06,0,0,1,2.78.9c-.28,1.06-.23,3.39.57,3.65a1.48,1.48,0,0,0,.48.07c.7,0,1.81-.39,2.62-2.45a7.57,7.57,0,0,0,.5-3.88C75.11,51.08,63.92,46.3,50,46.25S24.9,51.08,19.54,56.83A7.46,7.46,0,0,0,20,60.71c.81,2.06,1.93,2.45,2.62,2.45a1.48,1.48,0,0,0,.48-.07c.8-.26.85-2.59.57-3.65a8.06,8.06,0,0,1,2.78-.9l.93,19.37s-1.5-3.83-1.65-4.18a1.51,1.51,0,0,0-1.41-1,2.23,2.23,0,0,0-.62.1.85.85,0,0,1-.29,0,2.24,2.24,0,0,1-1-.25,21,21,0,0,1-5.95-4.75,17.86,17.86,0,0,1-2.88-6.47,11.52,11.52,0,0,1,1-6.14c.69-1.48,2.06-4.16,2.26-6.6a7.13,7.13,0,0,0-.26-3.08l-1.26-3.46s3-6.79,4.83-8.25A22,22,0,0,0,22,39.13a2.5,2.5,0,0,0,2.22,1.49,3,3,0,0,0,1.46-.41,4.62,4.62,0,0,0,1.4-4.56c-.35-1.4-.42-4.24-2-7,0,0,4.77-5.4,7.47-6.93A78.91,78.91,0,0,0,34,32.77c.42,1.46,1.32,3.4,3.19,3.4a2.74,2.74,0,0,0,.62-.07c2.3-.48,3.44-3.75,3.1-6s-.6-10-2.85-12.4c2.28-.63,11.62-6.92,11.92-7.13.3.21,9.68,6.5,12,7.13-2.06,1.91-2.66,9.6-2.85,12.4-.15,2.27.81,5.52,3.1,6a2.74,2.74,0,0,0,.62.07c1.87,0,2.77-1.94,3.19-3.4a78.91,78.91,0,0,0,1.44-11.1c2.7,1.53,7.48,6.93,7.48,6.93-1.54,2.81-1.62,5.65-2,7a4.64,4.64,0,0,0,1.4,4.56,3,3,0,0,0,1.47.41A2.5,2.5,0,0,0,78,39.13a21.58,21.58,0,0,0,1.76-5.31c1.78,1.46,4.83,8.25,4.83,8.25l-1.26,3.46a7.13,7.13,0,0,0-.26,3.08c.2,2.44,1.57,5.12,2.27,6.6a11.62,11.62,0,0,1,1,6.14"/></g></g></svg>