<svg xmlns="http://www.w3.org/2000/svg" viewBox="0 0 100 100"><defs><style>.cls-1{fill:#7b868c;}.cls-2{fill:#b7c7d3;}</style></defs><title>Faction -Order of the Gauntlet - Symbol</title><g id="Faction_Symbols" data-name="Faction Symbols"><g id="Order_of_the_Gauntlet" data-name="Order of the Gauntlet"><path class="cls-1" d="M63,49.84c0-1.75-1-1.67-1.52-2,1.61-.45.69-3.3,0-3.84A6.91,6.91,0,0,0,59,43.2a6.48,6.48,0,0,0-1.51-.37c.71-2.18-.94-2.83-.94-2.83L55,39.76c0-6.37,0-11,0-11a4.37,4.37,0,0,1,2-3.91c-1.85-.42-2.7-.62-2.7-1.63a.69.69,0,0,1,.75-.58,1.9,1.9,0,0,1,.78.21c1.15.55,4.71.56,7.28.73-.32-.59,1-2.23,1-3.49a9.75,9.75,0,0,1-4,.78c-1.93,0-3.87-.51-4.76-1.87a1.8,1.8,0,0,1-1.09.57.27.27,0,0,1-.15,0c-.53-.64-.47-1.92-.21-3.26A21.07,21.07,0,0,0,52.91,6.7c-.33-.81.55-.84.64-.84h0a1.15,1.15,0,0,0,.07-1.05C53.49,4.42,51.5,0,51.5,0a52.22,52.22,0,0,0-2.13,4.81c-.23.65.72,1.05.72,1.05h0s.33,0,0,.84A21.08,21.08,0,0,0,49,16.25c.27,1.34.33,2.62-.2,3.26a.31.31,0,0,1-.15,0A1.77,1.77,0,0,1,47.58,19c-.89,1.36-2.84,1.87-4.76,1.87a9.75,9.75,0,0,1-4-.78c-.06,1.26,1.32,2.9,1,3.49,2.57-.17,6.13-.18,7.28-.73a1.86,1.86,0,0,1,.78-.21.69.69,0,0,1,.75.58c0,1-.85,1.21-2.7,1.63a4.37,4.37,0,0,1,2,3.91s0,5.25,0,12.2c-.86.59-2.14,1.37-3,1.88a4.69,4.69,0,0,1,.09-.81,7.94,7.94,0,0,1-2.41.24c-1.32,0-2.63-.1-2.63-.1l.06,1.22a7.74,7.74,0,0,1-4.79-3s-2.3,7.48-9.31,10.5c4.91,2,7.11,4.83,8,8.15a14.23,14.23,0,0,1,6.74-2.36h.12l.06,1.13a16.07,16.07,0,0,1,2.8-.28,5.91,5.91,0,0,1,2,.28c-.08-.38-.16-.85-.22-1.4L48.1,57.5c0,8.93.07,16.69.1,17.57.06,2.16.44,5.67-.62,7-.13,2.38,3.92,18,3.92,18,.38-1.48,4-15.58,3.91-18-1-1.3-.67-4.81-.61-7,0-.81.06-7.56.09-15.66h.39a4.41,4.41,0,0,0,1.8-.23c1.43-.34.76-2.19.94-2.64a6.24,6.24,0,0,0,1,.1h.06a.8.8,0,0,0,.33.06,1.44,1.44,0,0,0,.69-.19,2.92,2.92,0,0,0,1.49-1.86,1.68,1.68,0,0,0-.71-2.13,3.39,3.39,0,0,0,1.76-.71c.45-.47.36-1,.36-2"/><path class="cls-2" d="M47.67,11.66a17.52,17.52,0,0,0,.07,4.84,8.43,8.43,0,0,1,.15,1L47.32,17l-.83,1.27c-.53.8-1.9,1.28-3.67,1.28a8.52,8.52,0,0,1-3.41-.66L37.62,18l-.09,2a5.8,5.8,0,0,0,.74,2.64c.08.18.19.42.26.59l-1,1.77,2.35-.15c.59,0,1.22-.07,1.87-.09L43,24.7,45.32,26a3,3,0,0,1,1.36,2.69v.09s0,4.73,0,11.18l-2.1.87a6.67,6.67,0,0,1-1.91.14c-1.25,0-2.52-.09-2.53-.09l-1.49-.11.05.79a5.39,5.39,0,0,1-2.29-1.89l-1.53-2.34L34.1,40c0,.07-2.23,6.95-8.57,9.69l-2.85,1.22,2.87,1.18c4.06,1.68,6.34,4,7.18,7.27l.49,1.89L34.78,60a13.22,13.22,0,0,1,4.85-2l.07,1.28L41.19,59a15.2,15.2,0,0,1,2.53-.25,4.52,4.52,0,0,1,1.52.19l1.56.6c0,9.73.07,14.82.09,15.53,0,.35,0,.75,0,1.17.07,1.48.2,4.23-.37,4.94l-.27.33,0,.42a36.61,36.61,0,0,0,1,6.34,38.41,38.41,0,0,1,.35-76.65M88.42,50A38.49,38.49,0,0,0,55.36,12a16.78,16.78,0,0,1-.11,4.54c-.07.4-.12.73-.15,1l.58-.51.83,1.27c.53.8,1.9,1.28,3.67,1.28a8.52,8.52,0,0,0,3.41-.66L65.38,18l.08,2a5.8,5.8,0,0,1-.73,2.64c-.08.18-.19.41-.26.58l1,1.78-2.35-.15c-.59,0-1.22-.07-1.87-.09L60,24.7,57.68,26a3,3,0,0,0-1.37,2.68v.1s0,4.12,0,9.9l.44.07.15,0,.13.05a3.23,3.23,0,0,1,2,3l.19.06.24.08a5.69,5.69,0,0,0,.58.12,4.93,4.93,0,0,1,2.38.91,4.88,4.88,0,0,1,1.28,4.13,1.6,1.6,0,0,1-.11.39,3.17,3.17,0,0,1,.81,2.34v.39a3.13,3.13,0,0,1-.72,2.46,2.91,2.91,0,0,1-.65.52,3.44,3.44,0,0,1-.1,1.83,4.27,4.27,0,0,1-2.12,2.61,2.77,2.77,0,0,1-1.31.35h-.11a2.47,2.47,0,0,1-1.93,2.45l-.45.12a2.94,2.94,0,0,1-.74.12c0,6.38-.06,13.56-.08,14.42,0,.35,0,.75,0,1.16-.07,1.49-.2,4.24.37,5l.26.33,0,.42a33.1,33.1,0,0,1-1,6A38.47,38.47,0,0,0,88.42,50M55.08,9.82c.08.48.15,1,.21,1.48a39.06,39.06,0,0,1,.32,77.36l-.33,1.5a40.5,40.5,0,0,0-.2-80.34M47.47,89a39.06,39.06,0,0,1,.27-78c.07-.49.14-1,.23-1.46a40.51,40.51,0,0,0-.17,80.91q-.16-.75-.33-1.47"/></g></g></svg>