<svg xmlns="http://www.w3.org/2000/svg" viewBox="0 0 100 100"><defs><style>.cls-1{fill:#1d4a33;}.cls-2{fill:#988312;}.cls-3{fill:#fff;}</style></defs><title>Faction -Emerald Enclave - Banner</title><g id="Faction_Banners" data-name="Faction Banners"><g id="Emerald_Enclave" data-name="Emerald Enclave"><polygon class="cls-1" points="78.94 75.37 50 92.08 21.06 75.37 21.06 0 78.94 0 78.94 75.37"/><polygon class="cls-2" points="50.49 93.42 50 93.7 49.51 93.42 28.65 81.37 28.65 87.67 50 100 71.35 87.67 71.35 81.37 50.49 93.42"/><path class="cls-2" d="M50.62,18.62h0a3.62,3.62,0,0,0,.41,1.54s-1.73-.48-2.54,2.06c0,0-1.21-1.41-.36-4.3.82.24,1.65.47,2.46.69m-2.68-6.55a4.53,4.53,0,0,0,.83,2.15,5.91,5.91,0,0,1,.73-1.55,16.72,16.72,0,0,1-.33,2.16l.38.12-.4,0a11.74,11.74,0,0,1-.63,2c-.05.12-.08.22-.12.33l2.29.64c.08-.71.26-1.59.37-3a7.78,7.78,0,0,0-.11-1.9c-.42-.06-.82-.12-1.17-.2a12.07,12.07,0,0,1-1.84-.66M40.11,8.43a2.81,2.81,0,0,0-.5.75l.35.47A13.18,13.18,0,0,0,43.28,12a11.69,11.69,0,0,1-1.8-2.44,1.55,1.55,0,0,1-1.37-1.15M54.79,72.52a11.83,11.83,0,0,1,.15-5S53.4,66,54.33,63a3.12,3.12,0,0,0,.15-.43h0a2.84,2.84,0,0,0,.08-.66A2.59,2.59,0,0,0,54,60.31a1.93,1.93,0,0,1-1.38.59,1.85,1.85,0,0,1-.66-.13,10.7,10.7,0,0,0-1.31-5.06c0-.22,0-.44.09-.65A2,2,0,0,1,53,53.91c-.84-1.78-.24-2.3,0-5.53a8,8,0,0,0-.39-3.09,1.54,1.54,0,0,1,1.18-.24c-.7-1.47-.2-1.91,0-4.6a7.32,7.32,0,0,0-1.38-4.68,14.22,14.22,0,0,1-.57,5.82c0-.13,0-.26-.07-.38h0c-1.72-4.52.64-6.86.64-6.86a10.52,10.52,0,0,1-.47-3.71,2.8,2.8,0,0,1-1,.24,1.21,1.21,0,0,1-.88-.35c-.51-.49-.63-1.94-.55-3.18a2.64,2.64,0,0,1-1.5.52,3.67,3.67,0,0,1-2.26-1.08A2.22,2.22,0,0,1,45,25.25c-.15.47-.32.94-.51,1.42-.11.24-.19.48-.28.72l0,.08A6.26,6.26,0,0,0,46,29.76l-.38,0A3.15,3.15,0,0,1,43.76,29a7.25,7.25,0,0,0,0,2.76,9.35,9.35,0,0,1,1,1.05,3.18,3.18,0,0,1,1.79-1.89A10,10,0,0,1,46,34.34s2.15,2.13.85,6.25a3.84,3.84,0,0,0-.2.6h0a3.46,3.46,0,0,0-.12.92,3.59,3.59,0,0,0,.75,2.23A2.63,2.63,0,0,1,51,44.26a4,4,0,0,0,.31,2.17,14.62,14.62,0,0,1-1,4.1,9,9,0,0,0-.34.94,6.54,6.54,0,0,1,.32-2.64,2.78,2.78,0,0,0,.17-.51h0a3.18,3.18,0,0,0,.1-.77A3,3,0,0,0,50,45.69a2.25,2.25,0,0,1-1.6.67,2.23,2.23,0,0,1-1.59-.67,3,3,0,0,0-.62,1.86,3.16,3.16,0,0,0,.09.76h0c1.43,3.78-.54,5.74-.54,5.74.9,2.35,0,6.91,0,6.91h0c0,.14,0,.29,0,.44a3.87,3.87,0,0,0,.22,1.28,2.77,2.77,0,0,1-1,.17,2.44,2.44,0,0,1-.48,0c0-.09,0-.19,0-.29a6.73,6.73,0,0,0-1.29-4,3,3,0,0,1,1.36.81,4,4,0,0,0,.83-2.48,4.25,4.25,0,0,0-.13-1h0a10.25,10.25,0,0,1-.68-3,42.21,42.21,0,0,1-1.79,3.91A6.5,6.5,0,0,1,43,58.77c-.2,2.69-.7,3.13,0,4.61a1.58,1.58,0,0,0-1.56.58c1.33,2.79,3.23,6.05,4.71,7.22.31.25.6.51.89.79a14.75,14.75,0,0,0,0-2.17A8.29,8.29,0,0,1,47.42,66a3.45,3.45,0,0,0,.22-.64h0a3.93,3.93,0,0,0,.12-1,3.85,3.85,0,0,0-.32-1.54,1.77,1.77,0,0,1,.93-.27,1.8,1.8,0,0,1,.84.21c-.14.45-.3.9-.49,1.35-1.92,4.59,0,6.8,0,6.8a3.67,3.67,0,0,1,1.85-2.46,17.33,17.33,0,0,1-.23,5h0c0,.12,0,.25,0,.37A3.1,3.1,0,0,0,51.16,76a1.58,1.58,0,0,1,.57-.85,5.1,5.1,0,0,1,.07,3,9.2,9.2,0,0,1,3-5.62m-5.5,1.58s.05.36.08,1A16,16,0,0,1,51,79.46a9.12,9.12,0,0,0-1.71-5.36M36.79,37.55a2,2,0,0,0,.21-.2,4.11,4.11,0,0,1,1.61-1.15,2.57,2.57,0,0,0,1.07-.75l.21-.27c.49-.65.78-1,1.72-1l.72,0h.24a13.8,13.8,0,0,1,.24-2.28,6.06,6.06,0,0,1-1.64-2.25A6.24,6.24,0,0,1,40.93,28,16.82,16.82,0,0,1,39.84,32s0,0,0,0a11.19,11.19,0,0,0-.91-2.55,1.84,1.84,0,0,1,1-.08c-.87-1.83-.25-2.38,0-5.7a1.79,1.79,0,0,0,.27.44,2,2,0,0,1,.92-.52,22.24,22.24,0,0,1,0,2.67,3.52,3.52,0,0,1,1.11-1.81c-.14-.33-.29-.64-.43-.9a1.92,1.92,0,0,1,1,.44l.42-.32a2.74,2.74,0,0,0,.26-1.16,2.84,2.84,0,0,0-.08-.66h0a5.59,5.59,0,0,1-.31-3.41,3.94,3.94,0,0,0,.26.4,2.53,2.53,0,0,1,1.81-.77,2.6,2.6,0,0,1,.56.07,22.09,22.09,0,0,1-.08,3.54l.37-.28-.2,1.71a4,4,0,0,1-.06.47c-.16,1.2-.23,2.09.42,2.63a3,3,0,0,0,1.78.91,1.88,1.88,0,0,0,1.08-.4l1.26-.86-.1,1.52a4.77,4.77,0,0,0,.32,2.6.5.5,0,0,0,.37.14,2.49,2.49,0,0,0,.93-.26l.12-.21a29.39,29.39,0,0,1,.43-3.57h0a4.41,4.41,0,0,0,0-.52,4.23,4.23,0,0,0-1.14-3,2.12,2.12,0,0,1-2.06,1.6,2.07,2.07,0,0,1-1.46-.59,10.69,10.69,0,0,0-1.2-5.11,2.28,2.28,0,0,1,.46.36,3.29,3.29,0,0,0,.55-1.09A23.13,23.13,0,0,1,44,16.47a14.3,14.3,0,0,1-4.54-4.33,11.46,11.46,0,0,1-.18,4.77s1.55,1.54.61,4.52a1.87,1.87,0,0,0-.07.22,9.28,9.28,0,0,0-1.61-3.8,17.18,17.18,0,0,1-1,8c-1.6,3.84,0,5.69,0,5.69A3.84,3.84,0,0,1,38.12,30a19.43,19.43,0,0,1-1.33,7.53h0M42.37,8.81a4.1,4.1,0,0,1-.17.56l.06.07h0a13.5,13.5,0,0,0,4.48,4.45l.42.19a6.9,6.9,0,0,1,0-2.37,26.06,26.06,0,0,1-4.78-2.9M41,60.09a3.25,3.25,0,0,1-1,.3,13.09,13.09,0,0,0,.46,1.28,9.6,9.6,0,0,1,.37-1.11c.07-.15.13-.31.19-.47m3.37-44.28A21.94,21.94,0,0,0,47.69,17c0-.1,0-.19,0-.28a3.45,3.45,0,0,0-.11-.87h0a8.88,8.88,0,0,1-.38-1.26c-2.18-.58-6.92-3.22-7.88-4.52.37,2,3.43,4.94,5,5.72m-16.82-4a2.13,2.13,0,0,0,.14-.35,3.33,3.33,0,0,1,.88,2.31c0,.14,0,.28,0,.41h0a19.69,19.69,0,0,0-.28,5.18,11.27,11.27,0,0,1-.16,7v0a2.46,2.46,0,0,1,0,.28,2.88,2.88,0,0,1-.47,1.57,3.64,3.64,0,0,0,0,.48,5.47,5.47,0,0,0,1.14,3.42,4,4,0,0,1,5.85,0,5.54,5.54,0,0,0,1.14-3.42,5.92,5.92,0,0,0-.17-1.41h0c-.09-.23-.16-.45-.24-.67-.39,0-1.24.13-1.69,1.56,0,0-1.13-1.29,0-4a12,12,0,0,0,.7-5.62A5.73,5.73,0,0,1,35,19.67a7.27,7.27,0,0,1,1.58-3c-.09-.23-.16-.47-.23-.72.88-2.06,2.43-1.63,2.43-1.63-.69-1.45-.4-2.06-.15-4l0-.1-.59-3.16.78,1.06a8.81,8.81,0,0,0-1.66-4.84,16.43,16.43,0,0,1-1,7.71,7.49,7.49,0,0,0-.68,3.37,3.66,3.66,0,0,0-.77,1.42s-1.49-1.73,0-5.29A16,16,0,0,0,35.69,3a7.44,7.44,0,0,1,.84,1.45c.06-.29.09-.46.09-.46h0a7,7,0,0,0,0-.8A6.89,6.89,0,0,0,35.84,0h-1.7a3.25,3.25,0,0,1-2.45,1.11A3.27,3.27,0,0,1,29.24,0h-1.7a6.89,6.89,0,0,0-.78,3.21A7.15,7.15,0,0,0,27,4.89a42.69,42.69,0,0,1,.58,6.89M49.9,85.6a12.58,12.58,0,0,1,1.36,5.75L50,92.08l-1.46-.84A25.86,25.86,0,0,0,49,86.33a4.27,4.27,0,0,0-.68,1.34,4.27,4.27,0,0,1-.67-3.12,4,4,0,0,1-.47.6,2.3,2.3,0,0,0-1.5-1.6,2.56,2.56,0,0,0,.27,1.58s-1.23-.34-1.81,1.46a3.19,3.19,0,0,1-.32-2.83,2.33,2.33,0,0,0-.88,1,18.29,18.29,0,0,0,.58,1.84,1.3,1.3,0,0,0,.1-.15A1.89,1.89,0,0,0,45,87a1.86,1.86,0,0,0,1.37-.59A2.59,2.59,0,0,1,46.87,88a2.46,2.46,0,0,1-.08.67h0a2,2,0,0,1-.15.43,8.86,8.86,0,0,0-.21.9L36.35,84.2a12,12,0,0,0,.25-3.1c.64-1.47,1.76-1.16,1.76-1.16-.61-1.28-.18-1.66,0-4a6.33,6.33,0,0,0-1.2-4,12,12,0,0,1-.7,5.61,6.88,6.88,0,0,0-.35,1.06A7.21,7.21,0,0,0,34.67,76a14.87,14.87,0,0,0,.73-5.09,7.52,7.52,0,0,1-1.64,2.65,4,4,0,0,0-5.38-2.79,4.11,4.11,0,0,1,0-2,1.52,1.52,0,0,1,1.95.21,2.13,2.13,0,0,0,.43-1.29,2.18,2.18,0,0,0-.07-.52h0c-1-2.61.37-4,.37-4-.62-1.62,0-4.76,0-4.76h0c0-.1,0-.2,0-.3a2.47,2.47,0,0,0-.66-1.72,1.23,1.23,0,0,1-2.38,0,2.47,2.47,0,0,0-.66,1.72,3.29,3.29,0,0,0,.07.63,10.36,10.36,0,0,1-.05,4.43,2.76,2.76,0,0,1,.6,1.16,6.28,6.28,0,0,0-.65-1.14,12,12,0,0,1-.7,5.61,4.46,4.46,0,0,0-.26,3.53,4,4,0,0,0-.48,1,3.25,3.25,0,0,0,2.1.78,3.29,3.29,0,0,0,3.18-2.47A6.56,6.56,0,0,1,33,76.28a7,7,0,0,1,0,.8h0s-.08.42-.2,1.13a5.77,5.77,0,0,1,.57,2.89c0,.51-.09.92-.14,1.27L25.65,78a17.28,17.28,0,0,1,.26-2.3h0c0-.1,0-.2,0-.3a2.43,2.43,0,0,0-.65-1.7,1.21,1.21,0,0,1-1.18.92,1.17,1.17,0,0,1-.71-.24,6.21,6.21,0,0,1,1.32-2.49,8.47,8.47,0,0,1-1-4,8.22,8.22,0,0,1,.06-1h-.06a52.52,52.52,0,0,0,.88-10.66.61.61,0,0,0-.07.1,6.64,6.64,0,0,0-.63-.56c-.18,2.06-.55,2.44,0,3.62a1.21,1.21,0,0,0-.73.08,5,5,0,0,1,.17,1.3,5.35,5.35,0,0,1,0,.58h0s-1.19,6.06,0,9.19A6.43,6.43,0,0,0,22,75.93l-1-.56V58.87a2.31,2.31,0,0,0,.67-.65,6.67,6.67,0,0,1,.36-1.14,9,9,0,0,0,.58-2,5.72,5.72,0,0,0-1.61-.44v-14a2.64,2.64,0,0,0,.4.73,3,3,0,0,1,1.37-1.88c-.11.32-.22.64-.35,1-1.52,3.62,0,5.38,0,5.38.57-1.8,1.6-2.1,2.17-2.12A18.85,18.85,0,0,0,25.49,48,10.93,10.93,0,0,0,26,45.54a4.09,4.09,0,0,1,0,2.78,2,2,0,0,0-.12.34h0a2.35,2.35,0,0,0-.06.54,2.07,2.07,0,0,0,.42,1.28,1.52,1.52,0,0,1,2.2,0,2.07,2.07,0,0,0,.43-1.28,1.83,1.83,0,0,0-.07-.53h0c-1-2.6.37-4,.37-4-.62-1.61,0-4.76,0-4.76h0a1.51,1.51,0,0,0,0-.3,2.4,2.4,0,0,0-.66-1.71,1.22,1.22,0,0,1-1.19.92,1.23,1.23,0,0,1-1.19-.92,2.45,2.45,0,0,0-.66,1.71,2.71,2.71,0,0,0,0,.41c-.13-.46-.27-.95-.45-1.44-.05.18-.1.37-.14.57,0-.26.05-.53.07-.83A8.44,8.44,0,0,0,24,33.76a8.57,8.57,0,0,0-1.61-5.13,16,16,0,0,1-.93,7.47,9.21,9.21,0,0,0-.4,1.14V3.19a9.4,9.4,0,0,1,.76,1.44c.09-.26.18-.53.3-.82a14.15,14.15,0,0,0,1-3.81h1.66a7.83,7.83,0,0,1,.06,1.62c-.25,3.29-.86,3.83,0,5.63a2.1,2.1,0,0,0-2.3,1.27v.05c-.11,1.47-.29,2.39-.39,3.12a4.68,4.68,0,0,0,2.75-3.17,6.06,6.06,0,0,1,.47.54,17.74,17.74,0,0,0,0-3.79A9.1,9.1,0,0,1,27,11.09c0,.37-.06.71-.1,1,0,.09,0,.18.08.27a1.65,1.65,0,0,1-.95.3,1.67,1.67,0,0,1-1.61-1.25,3.52,3.52,0,0,0-.78,3.16c.18,1.14.59,4.22-.08,6,0,0,1.67,1.67.66,4.87a2.88,2.88,0,0,0-.16.47h0a3.38,3.38,0,0,0-.09.72,2.77,2.77,0,0,0,.58,1.73,2,2,0,0,1,1.48-.64l.28,0a24,24,0,0,0,.54,4.94,5,5,0,0,0,2.93,1,5,5,0,0,0,3.63-1.54,6.78,6.78,0,0,1,1.42,4.23c0,.24,0,.47,0,.7.14.36.28.76.4,1.19l-.3.08c-.94.25-1.91.51-2,1.42a6.65,6.65,0,0,1-.63,2c-.28.64-.43,1-.32,1.37a1.09,1.09,0,0,0,.56.74l0,0a5.69,5.69,0,0,0,1.22.73l1.27.64a4.86,4.86,0,0,0,.44,3.19,2.21,2.21,0,0,0-1.29.12,8.29,8.29,0,0,0,1.6,2.64,9.94,9.94,0,0,0-.32,1,1.5,1.5,0,0,0-.2-.23,1.49,1.49,0,0,1-2.88,0,2.94,2.94,0,0,0-.8,2.07,3.68,3.68,0,0,0,.09.76c.17,1,.54,3.79-.07,5.37,0,0,1.5,1.49.6,4.37a2.6,2.6,0,0,0-.15.42h0a2.69,2.69,0,0,0-.08.65,2.51,2.51,0,0,0,.52,1.55,1.84,1.84,0,0,1,2.66,0,2.51,2.51,0,0,0,.52-1.55,2.61,2.61,0,0,0-.08-.64h0c-1.2-3.16.45-4.79.45-4.79-.75-2,0-5.76,0-5.76h0c0-.11,0-.24,0-.36a3.25,3.25,0,0,0-.1-.77A21,21,0,0,0,36.65,46l.39.2a10.78,10.78,0,0,1,1.62,6.31c-.3,4-1,4.64,0,6.83a2.23,2.23,0,0,0-1.36.15,3.26,3.26,0,0,0,1.92.88,19.8,19.8,0,0,0,1,2.71,3.27,3.27,0,0,0,.57,2.06c.06-.17.12-.32.18-.46,1.4,2.84,3.29,5.94,4.71,7.06a10.54,10.54,0,0,1,1.24,1.17,11.26,11.26,0,0,1-.73,2.69c-1.3,3.1,0,4.6,0,4.6.45-1.41,1.22-1.74,1.72-1.8.09,1,.21,1.86.3,2.4a4.68,4.68,0,0,1,.13,1.07,15.61,15.61,0,0,0,1-5.14,16.66,16.66,0,0,1,1.15,4.35l.16,1.26A4.46,4.46,0,0,0,51,85.49a1.85,1.85,0,0,0-1.08.11m-6.45,1a.06.06,0,0,0,0,0l0-.06Zm-9.33-3.67,2,1.15a11.1,11.1,0,0,0-2-5.52,20.62,20.62,0,0,1,0,4.37m20.81-9.53c-1.9,1.81-2.3,4.08-2.88,7.4l-.06.36-.26,1.46a8.88,8.88,0,0,0,1.49,3.33,16.58,16.58,0,0,1,1-7.8,7.53,7.53,0,0,0,.68-3.47,3.35,3.35,0,0,0,.1-.79,3.89,3.89,0,0,0,0-.49m-18.14-29c.65-2,1.75-2.55,2.49-2.66.07.67.12,1.43.14,2.19a7.77,7.77,0,0,1,1.14-.72,3.77,3.77,0,0,1,1.28-.45c1,.11,1.21.47,1.21.47a4.84,4.84,0,0,1,2.43.88A32,32,0,0,1,46,39h0a5.49,5.49,0,0,0,0-.58,4.73,4.73,0,0,0-1.27-3.31A2.26,2.26,0,0,1,44,36.22c.54,0,1,.17,1,.59,0,.71-1.26.75-1.74.87a9.72,9.72,0,0,0-1.66.81,3.26,3.26,0,0,1,.66-1.65,2.29,2.29,0,0,1-1-.29,2.28,2.28,0,0,1,1.81-.4,5.84,5.84,0,0,1-.44-1.24h-.28l-.77,0c-.65,0-.7.19-1.34,1-.79,1-1.86.89-2.7,1.91a2.83,2.83,0,0,1-1.16.78c-1.24,3.87.38,5.76.38,5.76m-3.08-4.6c-.05,1.25-1.06,2.82-1,3.12s.16.25.35.4a11.52,11.52,0,0,0,2.16,1.18c.11-.74.24-1.65.33-2.87a9.94,9.94,0,0,0-.17-2.66c-.89.25-1.67.41-1.69.83m7-32.81-.34-1.8.78,1.06a2.1,2.1,0,0,1,1.45-.85A15.13,15.13,0,0,1,42.54,8a22,22,0,0,0,4.8,3A5,5,0,0,1,48,9.73a8.08,8.08,0,0,0-.1,1.5,11.68,11.68,0,0,0,2.08.78c.26.06.54.11.83.15-.05-.18-.1-.35-.16-.52a2.45,2.45,0,0,1,1.65-.25c-1.11-2.35-.32-3,0-7.33A10.53,10.53,0,0,0,51.76,0H50.18a20,20,0,0,1-1.41,6.92,13,13,0,0,0-.67,2c-.77-2.74.14-7.4.14-7.4h0a4.07,4.07,0,0,0,0-.5A4.59,4.59,0,0,0,48.11,0H41.18a13.75,13.75,0,0,1-.65,2c-1.54,3.67,0,5.45,0,5.45a5.76,5.76,0,0,1,.21-.55M41.87,29.4A4.37,4.37,0,0,0,42.93,31c.06-.48.12-1,.17-1.65,0-.31,0-.6,0-.89a3.49,3.49,0,0,1-.44-2.72c0-.18-.1-.35-.16-.52-1.13,1.17-.91,3.43-.65,4.21m-2,25.72a4.67,4.67,0,0,0-.23.66h0a4.34,4.34,0,0,0-.12,1,4.16,4.16,0,0,0,.5,2c.41-.05.79-.16,1.58-1.41l0-.06a14.7,14.7,0,0,0,0-3.27,6.79,6.79,0,0,1,.9,1.64c1.58-3.16,3.24-7.82,2.88-8.79l-.71-.23.38-.76c.34-.7.18-1,.12-1.09-.34-.6-1.62-.88-2.19-.93l-.44,0-.12-.28a2.06,2.06,0,0,0-.58-.15,3.74,3.74,0,0,0-1,.36,6.29,6.29,0,0,0-1.48,1,10.43,10.43,0,0,1-.52,3.3s2.38,2.38.94,7"/><path class="cls-3" d="M66.6,21.12c-.21-.8.29-.37,0-1.06a35,35,0,0,0-3.48-5.33c.07.64.45,1-.36,1.51-.94.08-1.27-.23-2.27-.71a4.57,4.57,0,0,1-1.79-2.82A6.92,6.92,0,0,0,58.25,11a9.64,9.64,0,0,1-2.13,1.51c-1.26.73-4.39.7-6.35.25s-7.06-3.24-8.05-4.57c.38,2,3.43,4.94,5,5.73A19.9,19.9,0,0,0,49.55,15a14.25,14.25,0,0,1-2.13-.29c-2.09-.49-7.07-3.24-8.05-4.57.37,2,3.43,4.94,5,5.72,2.37,1.19,7.78,2.34,9.8,3.08,1.35.5,5.74,3.61,6.05,5.31a2.07,2.07,0,0,1,0,1c-.88.2-2.34,0-2.52-.44s-.12-.34.27-1.08c-1.5.41-1.78,1.68-2.32,3.09-.09-.06-.24-.11-.31-.15-.44-.27-.44-.27,0-1-1.79.85-1.48,2.85-2.89,4.84-1.18.58-1.84.51-2.3.07s-.63-1.94-.55-3.18c-1.57,1.08-2.75.29-3.76-.56S45,24.22,45.13,23c-1.41,1.07-1.19,3.6-.9,4.44A6.26,6.26,0,0,0,46,29.76a3.28,3.28,0,0,1-2.63-1.05c-1.15-1-.75-2.56-.61-3.75-1.42,1.08-1.19,3.6-.91,4.44.66,2,3.54,3,3.44,5.1v0l-.31,0a17.74,17.74,0,0,1-2.62.35c-1.44-.09-1.27-.1-2.11,1s-1.86.89-2.7,1.91c-1,1.27-3.82,1.14-3.86,1.94-.05,1.25-1.06,2.82-1,3.12s.16.25.35.4c.78.58.35.19,4.72,2.53a5.6,5.6,0,0,1,2.76-2.64,3.77,3.77,0,0,1,1.28-.45c1,.11,1.21.47,1.21.47s4.05.3,2.66,3.08c1.66.54-1.81,8.82-3.52,11.53-1.12,1.79-1.72,1.69-2.36,1.79-.19,1,3.72,9.55,6.32,11.6A14.68,14.68,0,0,1,51.26,81c.68-3.86,1.07-6.52,3.7-8.64a19.57,19.57,0,0,0,7.3-13.14,1.44,1.44,0,0,1-2-.55c-2.75-3.92-2.64-8.66-2.91-13.1a24.78,24.78,0,0,1,.37-7.69L60.35,37s1.52-.4,1.52-.88-2.37-.87-2.37-.87-2.91-.47-5.15-.8a34.86,34.86,0,0,0,3.29-4A4.3,4.3,0,0,1,58,29.9a5.22,5.22,0,0,1,4.14-.28c1.21.41.66,1,1.07,1a1.16,1.16,0,0,0,1.07-1c.19-.7.33-1.31.43-1.85.93.4.47.89.86.89a1.13,1.13,0,0,0,1.06-1c1.32-4.78.28-5.46,0-6.57M43.27,37.68a9,9,0,0,0-1.66.81,2.77,2.77,0,0,1,1-2c.62-.36,2.39-.53,2.37.29s-1.26.75-1.74.87"/></g></g></svg>