<svg xmlns="http://www.w3.org/2000/svg" viewBox="0 0 100 100"><defs><style>.cls-1{fill:#a43722;}.cls-2{fill:#d8b520;}.cls-3{fill:#fff;}</style></defs><title>Faction -Lords&amp;apos; Alliance - Banner</title><g id="Faction_Banners" data-name="Faction Banners"><g id="Lords_Alliance" data-name="Lords Alliance"><polygon class="cls-1" points="50.49 93.42 50 93.7 49.51 93.42 28.65 81.37 28.65 87.67 50 100 71.35 87.67 71.35 81.37 50.49 93.42"/><polygon class="cls-1" points="78.94 75.37 50 92.08 21.06 75.37 21.06 0 78.94 0 78.94 75.37"/><path class="cls-2" d="M69.52,4.67l-.2.14L69.43,0h1.2l-.1,3.92h0c-.12,0-.13.16-.29.24s0,0-.17,0,0,0-.24,0l-.13.16-.08.12A.52.52,0,0,0,69.52,4.67ZM78.94,0V2.48l-.67.13L78.09,10l-1,2.63L77.12,17a.81.81,0,0,0-.18.8c.15.49.16.33-.18,1.13s0-.16-.35.79A4.63,4.63,0,0,1,75,21.43l.15-6.27-.09.05-.13.16a.59.59,0,0,1-.07.17l-.07.13-.14.07-.17,0-.11.13s-.13.1-.1.2a.52.52,0,0,1,0,.24v.17l-.08.27-.07,0-.18,7.72.17-.12a.32.32,0,0,1,.07-.16l.07-.1.11-.14a.56.56,0,0,1,.14,0l-.1,4.25L75.72,28c0-.1,0-.19,0-.3,0-.62-.11-.87-.1-1.36s.07-2.84.07-2.84l1-.84.13-.49.53-.5.38-.08.08-3.4.36-1.49.75-1.85V17.5h0s-.21.16-.16.32a.81.81,0,0,1,0,.38v.27l-.12.42-.11.05-.29,12.22.27-.18a.64.64,0,0,1,.12-.27l.11-.16.16-.21h.06V52.11l-.06.07-.08.12a.38.38,0,0,0-.09.2l-.2.14.07-2.93-3.08.63a8.93,8.93,0,0,1,.62,4.42,13.1,13.1,0,0,1-2.21,5,15.41,15.41,0,0,1-4.46,3.56,2.46,2.46,0,0,1-1.08.27,1.93,1.93,0,0,1-.49-.07l-.13,0a.46.46,0,0,0-.07.13c-.08.16-.74,1.85-1.13,2.86L66,67.94l-1.64,4.18.22-4.48.65-13.76-.16.2a1.2,1.2,0,0,0-.21.21L65,49.92l.27-1.13.08-.2A34.91,34.91,0,0,0,50,45.22a37.58,37.58,0,0,0-8.25.92v1.53h.07l.29-.15.14-.28a1.08,1.08,0,0,0,.15-.35l.27-.34.18-.11,0,4.29-3.74.84-.36.35-.09.35-.7.6s0,1.65,0,2,.08.52.08,1,0,.69,0,.69l.17,1-.53,1.39-.18.79,0,5.88.86-.2,0,3.07.22-.15a.43.43,0,0,1,.09-.22l.09-.13.13-.18c.26,0,.09,0,.26,0s0,0,.18,0,.17-.26.3-.26h0V65.12l1.62-.36v-.45l.18-.08.18-.71v-.44a1.38,1.38,0,0,0,0-.62c-.09-.26.26-.52.26-.52l.27-.36.44-.08.36-.17.18-.36a1.38,1.38,0,0,0,.18-.44l.33-.41.23-.14,0,4.2.24-.05v-.22c0-.52.09-.35.09-.35a2.91,2.91,0,0,0,.88-1,2.39,2.39,0,0,1,.17-.43c.18-.43.18-.34.09-.6a.47.47,0,0,1,.09-.44l-.07-2.34.53-1.42V55.94l.44-.1a.63.63,0,0,0,0-.23c-.06-.18.19-.37.19-.37l.18-.24.31-.06.25-.12.12-.25a.92.92,0,0,0,.13-.3l.23-.29.16-.09-.1,15.58h0c-.18,0-.19.24-.43.36s0,0-.25.06,0,0-.36,0l-.19.24a.54.54,0,0,1-.07.11l0,1.44a.63.63,0,0,0-.12.63c.12.38.12.25-.14.88a3.42,3.42,0,0,0-.25.63l-.07.15,2.72-.61v.58c0,.4.09.59.09,1.09v.79L48.81,77l-.61,1.57-.2.91,0,6.7,2.81-.62.1,3.14a.64.64,0,0,0-.13.64c.12.38.12.25-.13.88s0-.13-.26.63a2.94,2.94,0,0,1-.71,1L39.55,86l.1-.43.77-2-.24-1.52v-1c0-.63-.12-.88-.12-1.39s0-1.85,0-2.54l-1,.21,0,2.56-.58,1.57.08,2.58a.49.49,0,0,0-.1.48c.1.28.1.19-.1.66a.77.77,0,0,1-.06.15L30.47,80.8l.24-.6-.19-1.15s0-.29,0-.76-.09-.67-.09-1.05c0-.19,0-.69,0-1.17l-3,.67v-1a4.67,4.67,0,0,1-.57.53s-.1-.19-.1.38v.24l-2.17.49-1.68-1,1.53-.34v-.23c0-.51.09-.34.09-.34a2.82,2.82,0,0,0,.87-1,2.32,2.32,0,0,1,.18-.43c.18-.43.18-.34.09-.6a.47.47,0,0,1,.09-.44l-.07-2.34.53-1.42,0-3.78a.31.31,0,0,1-.09.07c-.21.1,0,0-.21,0s0,0-.32,0l-.16.21-.11.16a.53.53,0,0,0-.11.27l-.27.18,0-4.12-1,.24,0-7.2-.06-.3-.08,0-.2.25a.91.91,0,0,1-.11.27l-.11.21-.21.11-.27,0-.16.21s-.22.16-.17.32a.87.87,0,0,1,0,.38v.27l-.11.43-.11,0,0,5.26-1.3.29V42.44L23,42,23,50.09l.35-.24a.73.73,0,0,1,.13-.34l.14-.2.21-.27c.4,0,.13.07.4,0s0,.07.28-.06.27-.41.47-.41h0l0-7h.08L25,41.29l.12-.27,0-.09c.37-.82,2.27-5,3.62-6.07l.33-.27.94-.78.25,1.2.08.41a14.4,14.4,0,0,0,1.11,3.39c.3.53.57.53.67.53a1,1,0,0,0,.51-.16,2.33,2.33,0,0,0,.51-2c-.08-.3-.13-.65-.19-1a10.83,10.83,0,0,0-1.08-3.63l-.09-.16-.25-.46.35-.38.12-.13s3.37-3.84,5.42-5l.35-.2,1-.56.1,1.14,0,.4a52.61,52.61,0,0,0,1,7.49c.17.61.57,1.63,1.25,1.63l.23,0c1-.21,1.52-2,1.36-3,0-.29-.08-.7-.13-1.17v-.16c-.18-1.82-.55-5.62-1.57-6.71l-.29-.31L39.9,24l1.17-.33.41-.11c1-.28,5.34-3,8-4.79l.14-.1.42-.28.41.28.14.09,0,0h0c1.87,1.25,4,2.6,5.59,3.55v-.6l.15-.06.16-.58v-.36a1.15,1.15,0,0,0,0-.51c-.07-.22.22-.43.22-.43l.23-.28.36-.07.3-.14.15-.28.08-.17v-.1s0-.33,0-.88-.09-.77-.08-1.21c0-.14,0-.45,0-.81L54,16.6l.17-6.83L54,9.83,53.9,10a.48.48,0,0,1-.07.17l-.07.13-.14.07-.17,0-.11.13s-.14.1-.1.2a.5.5,0,0,1,0,.24v.17l-.08.27-.07,0L53,16.8,52,17l.23-9.45.31-1.28.89-2.21-.24-1.68s0-.42,0-1.11A12.16,12.16,0,0,0,53.07,0h7.21l0,1.65.28-.18a.53.53,0,0,1,.11-.27L60.75,1l.16-.21c.33,0,.11.05.33,0s0,.05.22,0,.22-.32.38-.32h0V0h.64l-.1,4.21.17-.11a.44.44,0,0,1,.08-.17l.07-.1.1-.14c.21,0,.07,0,.21,0s0,0,.13,0,.14-.2.24-.2h0L63.51,0h5.43l-.06.22-.64.54,0,1.81c0,.31.06.47,0,.87s0,.63,0,.63l.13.95-.5,1.25L67.7,7l-.06,2.5.07-.28V9a.63.63,0,0,0,0-.29c0-.12.13-.24.13-.24L68,8.32l.2,0,.17-.08.08-.16a.6.6,0,0,0,.09-.2l.16-.19.1-.07-.11,4.52,4.92-1c0-.07,0-.14,0-.21,0-.47.08-.31.08-.31a2.62,2.62,0,0,0,.81-.93c.17-.47,0,0,.17-.39s.17-.31.09-.55a.4.4,0,0,1,.09-.39l0-2.13.51-1.29L75.44,0ZM74.22,41.32l0-.09c-.09-.19-2.15-4.77-3.42-5.81l-.32-.26-.09.41a14.88,14.88,0,0,1-1.19,3.6,1.77,1.77,0,0,1-.78.78l-.11,4.18L68.9,44,69,40.85l.18-.08.19-.7v-.44a1.32,1.32,0,0,0,0-.62c-.09-.27.27-.52.27-.52l.28-.35.44-.07.36-.17.18-.35a1.33,1.33,0,0,0,.19-.44l.34-.41.23-.14-.16,6.91L73.59,43ZM62.91,25.16l.27-.18a.53.53,0,0,1,.11-.27l.12-.16.16-.21c.32,0,.11.06.32,0s0,0,.22-.05.22-.32.38-.31h0l.33-13.66-.14.09-.21.24a.8.8,0,0,1-.11.27l-.12.21-.21.11-.27,0-.17.21s-.22.16-.17.32a.81.81,0,0,1,0,.38v.26l-.12.43-.11,0Zm-3.25,4.51-.06,2.56h0c-.2,0-.2.27-.48.4s0,0-.27.06,0,0-.4,0l-.21.26-.14.2-.06.11L58,35.74a1.22,1.22,0,0,0,.69.49.83.83,0,0,0,.22,0c.68,0,1.07-1,1.25-1.63a52.61,52.61,0,0,0,1-7.49l0-.4.1-1.14.37.2.09-3.94-.09.05-.13.16a.51.51,0,0,1-.07.16l-.07.14-.14.06-.17,0-.1.14s-.14.09-.11.2a.52.52,0,0,1,0,.24v.16l-.07.27-.07,0-.15,6Zm-31.89,32v-.21c-.32-.28-.61-.55-.87-.8l0,1.19Zm6.91,5.42-.12,0v.21l.15.38Zm.22,5.84V70.21l-.36-.93v.38l-.45,1.21.07,2a.34.34,0,0,0-.1.21Zm1-6.1-.45.1,0,.74v.21ZM65.57,47.91,66,46.83l-.21-1.49s0-.37,0-1-.1-.87-.09-1.37c0-.15,0-.47,0-.85-.21.19-.35.57-.8.79-.63.29,0,0-.63.14s0,0-.93,0l-.48.61-.32.46a1.48,1.48,0,0,0-.33.77l-.79.53.35-14.73.31-.13.34-1.24v-.2l-.87.18a36.9,36.9,0,0,1-.8,5.55c-.27,1-.84,2.16-2,2.16a1.69,1.69,0,0,1-.38,0,1.65,1.65,0,0,1-.67-.31c-.13.07-.18.28-.42.39s0,0-.29.06,0,0-.44,0l-.22.29-.15.21a.83.83,0,0,0-.16.36l-.37.25.37-15.06c-2.5-1.44-6-3.76-6-3.79l-.14-.1-.15.1c-1.7,1.15-6.86,4.53-8.16,4.89l-.41.11.29.31c1.19,1.28,1.55,5,1.76,7.15,0,.54.1,1,.14,1.29.21,1.37-.45,3.54-1.94,3.86a1.69,1.69,0,0,1-.38,0c-1.11,0-1.68-1.17-2-2.16a51.27,51.27,0,0,1-1-7.63l0-.4-.34.2c-1.89,1.07-5.11,4.69-5.24,4.85l-.12.13.08.16A11.39,11.39,0,0,1,33.71,36c.06.36.1.68.17.93A2.94,2.94,0,0,1,33,39.82a1.89,1.89,0,0,1-.88.25,1.5,1.5,0,0,1-1.31-.9,14.88,14.88,0,0,1-1.19-3.6l-.09-.41-.32.26c-1.27,1-3.33,5.62-3.42,5.81l0,.09,0,.07.45-.1v1.32l.44,1.21a4.89,4.89,0,0,1,.16,2,8.74,8.74,0,0,1-.64,2.47l0,3.89a.79.79,0,0,0,.09-.24l.2-.25.14-.09v2.46l.07-.13.15-.22.22-.29c.43,0,.14.08.43,0s0,.07.29-.07a.52.52,0,0,0,.22-.19l0,3-1.12,3,0,.37a11,11,0,0,0,.91.92V58.81l.29-1.33.89-2.3-.28-1.74s0-.43,0-1.15-.14-1-.14-1.59,0-3.32,0-3.32l1.16-1,.08-.3,0,4.07.34-.24a.73.73,0,0,1,.13-.34l.14-.2.21-.27c.41,0,.13.07.41,0s0,.07.27-.06.27-.41.48-.41h0l0-3.72,9.94-2.21,0,2.7A39,39,0,0,1,50,44.48,35.89,35.89,0,0,1,65.57,47.91Zm9.19,2.58-.54.11-.34.32-.08.31-.65.54s0,1.5,0,1.81.07.48.06.87,0,.63,0,.63l.14,1-.24.59L71.18,57l-.05,2h0c-.26,0-.27.34-.63.51s0,0-.35.08,0,0-.53,0l-.27.35-.19.26a.85.85,0,0,0-.18.43l-.45.3.08-3.4-1.48.3.12-5.15a3.81,3.81,0,0,0-.55-.16l0,.07a1.51,1.51,0,0,1-.2.47l-.2.38-.25.12-.68,14.11.57-1.46c.36-.91,1.06-2.69,1.14-2.88a.8.8,0,0,1,.74-.57,1.48,1.48,0,0,1,.35.05.82.82,0,0,0,.28,0,1.89,1.89,0,0,0,.76-.19,15,15,0,0,0,4.21-3.36,12.6,12.6,0,0,0,2-4.61A8.3,8.3,0,0,0,74.76,50.49ZM73.65,29.41l0,1.51h0c-.18,0-.19.24-.44.35s0,0-.24.06,0,0-.36,0l-.19.24-.13.18a.56.56,0,0,0-.12.29l-.31.21.06-2.47-1.69.35-.36.35-.1.34L69,31.4s0,1.65,0,2,.07.52.06,1S69,35,69,35l.15,1.05-.55,1.37-.19.79,0,.75.12-.19a14.4,14.4,0,0,0,1.11-3.39l.08-.41.25-1.2.94.78.33.27c1.43,1.17,3.53,5.87,3.62,6.07l0,.09.12.27-.1.29-.47,1.29.46-.09v-.23c0-.52.1-.34.1-.34a2.87,2.87,0,0,0,.89-1c.18-.52,0,0,.18-.43s.18-.34.1-.6a.45.45,0,0,1,.1-.44l0-2.34L76.79,36,77,28.73ZM78.94,10V6c0,.94-.07,2.62-.08,3.08A5.4,5.4,0,0,0,78.94,10Z"/><path class="cls-3" d="M66,52.45h.25a5.77,5.77,0,0,1,2,.65l.19.1,0,.2c-.21.79-.08,2.12.22,2.22a1.06,1.06,0,0,0,.26,0c.36,0,1-.2,1.57-1.53a4.77,4.77,0,0,0,.33-2.49C66.73,47.32,58.57,44.51,50,44.48s-16.72,2.84-20.81,7.16a4.77,4.77,0,0,0,.33,2.49c.53,1.33,1.21,1.53,1.57,1.53a.89.89,0,0,0,.25,0c.31-.1.44-1.43.23-2.22l0-.2.19-.1a5.77,5.77,0,0,1,2-.65H34l.73,15.22-.57-1.46s-1-2.65-1.14-2.88a.8.8,0,0,0-.74-.57,1.48,1.48,0,0,0-.35.05.82.82,0,0,1-.28,0,1.89,1.89,0,0,1-.76-.19,15,15,0,0,1-4.21-3.36,12.6,12.6,0,0,1-2.05-4.61,8.23,8.23,0,0,1,.7-4.38l.14-.28a13.14,13.14,0,0,0,1.4-4.2,4.89,4.89,0,0,0-.16-2l-.91-2.5,0-.09c.09-.19,2.15-4.77,3.42-5.81l.32-.26.09.41a14.88,14.88,0,0,0,1.19,3.6,1.5,1.5,0,0,0,1.31.9,1.89,1.89,0,0,0,.88-.25A2.94,2.94,0,0,0,33.88,37c-.07-.25-.11-.57-.17-.93a11.39,11.39,0,0,0-1.17-3.88L32.46,32l.12-.13c.13-.16,3.35-3.78,5.24-4.85l.34-.2,0,.4a51.27,51.27,0,0,0,1,7.63c.27,1,.84,2.16,2,2.16a1.69,1.69,0,0,0,.38,0c1.49-.32,2.15-2.49,1.94-3.86,0-.3-.09-.75-.14-1.29-.21-2.19-.57-5.87-1.76-7.15l-.29-.31.41-.11c1.3-.36,6.46-3.74,8.16-4.89l.15-.1.14.1c.07,0,6.65,4.46,8.19,4.89l.45.12-.34.32c-.64.59-1.49,2.53-1.89,8.4-.09,1.38.46,3.57,1.94,3.88a1.69,1.69,0,0,0,.38,0c1.11,0,1.68-1.17,2-2.16a50.63,50.63,0,0,0,1-7.63l0-.4.35.2c1.88,1.07,5.1,4.69,5.23,4.85l.12.13-.09.16A11.64,11.64,0,0,0,66.29,36c-.06.36-.11.68-.17.93A3,3,0,0,0,67,39.82a2,2,0,0,0,.89.25,1.5,1.5,0,0,0,1.31-.9,14.88,14.88,0,0,0,1.19-3.6l.09-.41.32.26c1.27,1,3.33,5.62,3.42,5.81l0,.09-.91,2.49a5,5,0,0,0-.16,2,13.14,13.14,0,0,0,1.4,4.2l.14.28a8.33,8.33,0,0,1,.7,4.38,12.6,12.6,0,0,1-2,4.61,15,15,0,0,1-4.21,3.36,1.89,1.89,0,0,1-.76.19.82.82,0,0,1-.28,0,1.48,1.48,0,0,0-.35-.05.8.8,0,0,0-.74.57c-.08.19-.78,2-1.14,2.88l-.57,1.46Z"/></g></g></svg>