<svg xmlns="http://www.w3.org/2000/svg" viewBox="0 0 100 100"><defs><style>.cls-1{fill:#1d1d1b;}.cls-2{fill:#bba86f;}.cls-3{fill:#fff;}</style></defs><title>Faction -The Zhentarim - Banner</title><g id="Faction_Banners" data-name="Faction Banners"><g id="Zhentarim"><polygon class="cls-1" points="50.49 93.42 50 93.7 49.51 93.42 28.65 81.37 28.65 87.67 50 100 71.35 87.67 71.35 81.37 50.49 93.42"/><polygon class="cls-2" points="78.94 75.37 50 92.08 21.06 75.37 21.06 0 78.94 0 78.94 75.37"/><path class="cls-1" d="M28.57,39.69a3,3,0,0,0,.23-1.44s-.08-1.43-.55-1.67a4.21,4.21,0,0,1,1.93,2.35l-.64.26A.79.79,0,0,0,29,40C28.86,39.92,28.72,39.8,28.57,39.69ZM51.71,9.79a5.27,5.27,0,0,0-.33-.74,6.06,6.06,0,0,1,0,1.21Zm-.05,3.68A6.87,6.87,0,0,0,52,11c-.24-.2-.47-.38-.67-.52,0,.22-.07.43-.12.64A11.78,11.78,0,0,1,51.66,13.47Zm6.12,37.82a2.15,2.15,0,0,0,0,.61l.17-.23A1.31,1.31,0,0,0,57.78,51.29Zm18-15.64c.09.17.18.35.26.53a7.24,7.24,0,0,1,1.39-2C76.93,34.26,76.32,34.89,75.73,35.65Zm-4.37,5.43a7.09,7.09,0,0,1-.77,1.32,14.31,14.31,0,0,0,1.46,2.79,18.55,18.55,0,0,0,1.62-2.95c-.25.15-.32.46-.52.66.49-1.27,1.24-3.06,1.84-4.5a6.87,6.87,0,0,1-.37-1.16c-.48.75-.82,1.33-.83,1.33h0A8,8,0,0,1,71.36,41.08ZM48.13,55.75c-.38-.22-.75-.41-1.07-.6.46,2.2,3,3.75,3.47,6.29.37-1.95,1.95-3.32,2.87-4.85-.74-.07-.35-2-.4-2.19a16.38,16.38,0,0,1-1.25,1.25,8.27,8.27,0,0,0-.09-.89,2.39,2.39,0,0,1-1.13.71s-1.94-.38-1.77-3c0,0,.1-1.66.64-1.94a4.88,4.88,0,0,0-2.17,2.49q.27.83.57,1.68C47.93,55.12,48,55.45,48.13,55.75ZM31.61,53.31l0-.45.37-.23,0,0a20.16,20.16,0,0,0-1.67-2.46,22.31,22.31,0,0,1-1.38-2c-.08-.14-.2-.32-.33-.55a35.53,35.53,0,0,1-3.19-5.8l-.38-1.64L23.93,37.3l0,0A10.06,10.06,0,0,0,22.1,34l-1-1v1.81s.05.1.07.14l-.07.05v6c.22-.38.46-.75.71-1.11V40c-.08,2.86,1.12,5.32,2.73,7.69a2.77,2.77,0,0,1-1.83,1.59,2.74,2.74,0,0,1-1.61-1.17v5.06a8.09,8.09,0,0,1,1.61,3.27c.48-2.51,2.63-4.22,3.68-6.23.72.95,1.47,1.9,2.17,2.88h0A1.64,1.64,0,0,1,27.37,55a1.64,1.64,0,0,1-1.15-1.92s.06-1.08.41-1.26a3,3,0,0,0-1.56,2.48C25,56,27,57,27.37,58.86c.32-1.68,2-2.7,2.27-4.17a17.17,17.17,0,0,1,2.59,6.08,16.23,16.23,0,0,1,2-5.08C31.65,53.86,31.63,53.65,31.61,53.31ZM29.82,39.87c-.22.09.14.67.27,1.23a4.58,4.58,0,0,0,.15-.49A3.8,3.8,0,0,1,29.82,39.87Zm-8.52,3.5-.24.14v.09A.86.86,0,0,1,21.3,43.37Zm25,6.55a19.39,19.39,0,0,0,1.43-2.09s0,0,0,.07,0-.11,0-.16.2-.37.29-.56A17.3,17.3,0,0,0,51,51.86c-.73-2.6-1.53-4.61-1.29-8.62C50,38.73,55.34,31,53.82,25.35c-1.13-4.12-2.55-5.37-2.73-8.08a4.64,4.64,0,0,1-1.67,1.89c.36,2.47,1.37,4.19,1.95,7.58C52.1,31,46,38,45.67,43.22A21.76,21.76,0,0,0,46.31,49.92ZM26.11,38h0s-2.28-4.23-3.49-4.48a10.18,10.18,0,0,1,2,3.5c.61,1.51,1.52,3.8,2.07,5.32-.2-.2-.26-.51-.5-.67.21.92,2.75,5,3.43,6.13,1.07,1.78,3,3.71,3.59,5.71a2.33,2.33,0,0,1-.83-.23,11,11,0,0,0,2.24,1.81c.43-.7.89-1.38,1.37-2.05-.75-1.42-2.19-2.46-2.15-4a3.27,3.27,0,0,1,1.58-2.65l0,0a3.06,3.06,0,0,0-.34,1.27,1.83,1.83,0,0,0,1.27,2.13,1.58,1.58,0,0,0,.82-.52c1.59,2.14,3.51,4.26,4,7a9,9,0,0,1,.55-1.8,8.78,8.78,0,0,1,.72,2.17A9.33,9.33,0,0,1,43,55a13.16,13.16,0,0,1-1.26-2.75,3.14,3.14,0,0,0,.07-1.18c-.14.21-.14.56-.42.75-2.61-2-4.17-7.1-4.17-7.1s0,.1,0,.15a2.85,2.85,0,0,1-.18.53.33.33,0,0,1-.21.06,9.52,9.52,0,0,1-3.35-1.71s-.34-.29-.82-.7a4.1,4.1,0,0,1-.4.11,6.54,6.54,0,0,1-2.54-1.29,3.53,3.53,0,0,0,.28-.5A8,8,0,0,1,26.11,38Zm44.71,8.1a1,1,0,0,1,.38.48l.11-.17A3.94,3.94,0,0,0,70.82,46.07ZM25.9,15.79l0,0,0,0ZM57.38,34.32l-.3.39c-.06.34-.08.64-.08.64-.14,2.16,1.48,2.47,1.48,2.47A2.07,2.07,0,0,0,60,35.5h0A7.39,7.39,0,0,1,57.38,34.32Zm19,2.76A12.81,12.81,0,0,1,77,39.22a14.59,14.59,0,0,1,2-4.84V33.7l-1,1A7.5,7.5,0,0,0,76.37,37.08ZM78.92,8.33h0V22.73a5.05,5.05,0,0,0-1.7-1.59c.52.27.62,1.91.62,1.91C78,25.6,76.11,26,76.11,26s-1.91-.37-1.75-2.92a7.54,7.54,0,0,1,.12-.85,5.86,5.86,0,0,0,1.36.94,9.91,9.91,0,0,1-.33-2.8c0-.09,0-.18,0-.27-.61-2-2.45-3.37-3.11-5.09-.06.49-.08.82-.08.82a7.74,7.74,0,0,0,1.74,6,4.34,4.34,0,0,0-1.46,3.1A4,4,0,0,0,73.24,27c.05.29.07.52.07.52A2.12,2.12,0,0,1,71.83,30a2.11,2.11,0,0,1-1.48-2.48s.08-1.38.53-1.61a3.87,3.87,0,0,0-2,3.18c0,2.2,2.52,3.53,3,5.89.44-2.34,3-3.68,3-5.85a6.75,6.75,0,0,1,1.32,2.7C76.47,30,78,28.6,78.94,27.11v6l-1.69.31a3.64,3.64,0,0,0-1.89,1.49c-.27-.48-.56-.95-.86-1.41-.06.51-.09.86-.09.86a11.63,11.63,0,0,0,0,1.79c-.33.5-.7,1.06-1.09,1.71l-.06.1-.12.18a8.14,8.14,0,0,1-1.52,1.77c0-.11,0-.23,0-.34a4.58,4.58,0,0,0-2.38-3.76c.53.26.63,1.9.63,1.9.16,2.55-1.75,2.93-1.75,2.93s-1.92-.38-1.75-2.93c0,0,.09-1.64.62-1.9a4.56,4.56,0,0,0-2.37,3.76c0,1.37.79,2.46,1.67,3.6-.09.06-.16.13-.25.2a3.11,3.11,0,0,0-.25.2h0A12,12,0,0,1,63.26,45L63,41.31l-1.19,3.51c0,.12-.07.25-.1.38a13.71,13.71,0,0,1-1.28,3,1.89,1.89,0,0,1-.37-.94,9.51,9.51,0,0,1-1,2,5.39,5.39,0,0,0,.3.52,11,11,0,0,1-1,1.09l-1-1.54-.34,1.81a3.33,3.33,0,0,0,0,1.24.59.59,0,0,0,0,.08c-.1.25-.25.65-.45,1.07a10.31,10.31,0,0,0-.68,1.22,2.31,2.31,0,0,1-.28.33,3.2,3.2,0,0,1-.41.24l-.3.16a.42.42,0,0,1,0-.1l-.08.17a1.6,1.6,0,0,0-.61.6l-.12-.41-.38.07a5.81,5.81,0,0,1,0-1,2.89,2.89,0,0,0,0-.58l-.27-1.42-1,1-.18.2-.09-.4s0-.08,0-.13l-.09-.13c-.23-1-.48-1.91-.73-2.77a18.93,18.93,0,0,1-1-7.38,24.17,24.17,0,0,1,1.87-6.19c1.5-3.88,3.21-8.28,2.22-11.94a27.29,27.29,0,0,0-1.62-4.35,9.15,9.15,0,0,1-1.1-3.91,9.34,9.34,0,0,1,.49-3,10.3,10.3,0,0,0,.43-2.21,8.67,8.67,0,0,1,2.49,5.59,4.4,4.4,0,0,1,1.52-1.43c-.47.24-.55,1.67-.55,1.67-.15,2.23,1.53,2.56,1.53,2.56a1.91,1.91,0,0,0,.84-.47A6.54,6.54,0,0,1,57.42,16a7.39,7.39,0,0,1,3.84-6.08c-.85.43-1,3.08-1,3.08C60,17.1,63.08,17.7,63.08,17.7a3.4,3.4,0,0,0,1.17-.55c-1-1.45-2.33-2.71-2.28-4.41a4.24,4.24,0,0,1,1.4-3A11.84,11.84,0,0,1,62.4,8a7.78,7.78,0,0,0-.6,1.86,11.29,11.29,0,0,0-2.25-4.56h0a4.75,4.75,0,0,1,.39,1.76c.08,3-3.4,4.79-4,8C55.45,12.6,53.25,11,52.33,9l-.12.15c-.06-.13-.1-.26-.17-.39l-1.6-3.07.21,3.45A7.53,7.53,0,0,1,50.2,12,15,15,0,0,0,48.11,17a16.37,16.37,0,0,0-2.93-6.34,9,9,0,0,0-.55,2.22A7.42,7.42,0,0,1,46.86,18a5.91,5.91,0,0,1-.08,1.12,4.38,4.38,0,0,0,1.33.6,3.37,3.37,0,0,0,.63-.21,21.81,21.81,0,0,0,.83,3.16,27.55,27.55,0,0,1,1.08,4.18c.34,2-1.17,5-2.63,7.86s-2.93,5.8-3.09,8.44a23,23,0,0,0,.81,7.49,24,24,0,0,0-2.38,3.53,14.07,14.07,0,0,1-.85-1.94.25.25,0,0,0,0-.07,3.42,3.42,0,0,0,0-1.24l-.3-1.81-1,1.52h0c-2-2.1-3.26-6.1-3.28-6.14l-1-3.15-.47,3.26v0a11.5,11.5,0,0,1-2.55-1.45L33.69,43l-.29-.24a7.88,7.88,0,0,0,.85-.49c-.92-1.56-2.46-2.78-2.45-4.5a5,5,0,0,0-.8,1.8c-.43-2.29-2.92-3.59-2.87-5.72a3.76,3.76,0,0,1,1.95-3.09c-.43.22-.51,1.57-.51,1.57A2,2,0,0,0,31,34.71a2,2,0,0,0,1.44-2.4s-.08-1.35-.51-1.57a3.78,3.78,0,0,1,2,3.09,3,3,0,0,1-.06.61l.06,0-.07,0a3.53,3.53,0,0,1-.41,1.06,4.2,4.2,0,0,0-.07.57c-.15,2.23,1.53,2.56,1.53,2.56s1.67-.33,1.53-2.56c0,0-.09-1.44-.55-1.67A4.32,4.32,0,0,1,37.47,36a12.58,12.58,0,0,0,0-1.62,17,17,0,0,0-.85-4.32,9.18,9.18,0,0,0-2,3.83c-.48-2.49-2.52-4.22-3.66-6.17-1.33,1.73-2.75,3.5-3.17,5.76A8.57,8.57,0,0,0,27.33,32,20.1,20.1,0,0,0,27,34.42a10.76,10.76,0,0,0,.47,4.19,9.78,9.78,0,0,1-.74-1l-.11-.18-.06-.1c-1.74-3-2.84-4.33-3.79-4.53l-1.71-.36V20.84a2.94,2.94,0,0,0,.32-.37,8,8,0,0,0-.32-.94V10.34a3.27,3.27,0,0,0,.47.15A3.93,3.93,0,0,0,23,9.79c-.66-.85-1.31-1.7-1.9-2.55V0H24a6.22,6.22,0,0,0,.92,1.33A3.76,3.76,0,0,1,25.27,0h1.17A2.16,2.16,0,0,0,28,2.41,2.16,2.16,0,0,0,29.51,0H45.76l-.07.1a5.71,5.71,0,0,0,2.42,1.29A5.85,5.85,0,0,0,50.65,0H67.76A2.38,2.38,0,0,0,69.5,2.41,2.11,2.11,0,0,0,70,2.2c-.47-.76-1-1.49-1.52-2.2h7.31a11.51,11.51,0,0,0-.55,2.85A6.54,6.54,0,0,0,76,6.57a4.15,4.15,0,0,1,2-2.47c-.46.23-.54,1.67-.54,1.67C77.24,8,78.92,8.33,78.92,8.33ZM23.64,26.43a11.53,11.53,0,0,1-1.21-2.15c-.29.39-.6.78-.89,1.18a4.44,4.44,0,0,1,.74,2.37,3.1,3.1,0,0,1-.08.81A3,3,0,0,0,23.64,26.43Zm2.87,3.94c-.28-.45-.59-.89-.9-1.32a9.24,9.24,0,0,1-1.36,2.36,6.61,6.61,0,0,1,.38.89A14.46,14.46,0,0,1,26.51,30.37Zm2.86-7.46c-.66-1.94-2.72-3.17-2.68-5.09a3.34,3.34,0,0,1,.4-1.49,17.86,17.86,0,0,0-.78-1.66,1.51,1.51,0,0,0,0-.37,3.34,3.34,0,0,0-1.72-2.73c.38.2.45,1.39.45,1.39.12,1.85-1.27,2.12-1.27,2.12S22.4,14.81,22.52,13c0,0,.08-1.19.46-1.39a3.34,3.34,0,0,0-1.73,2.73,2.89,2.89,0,0,0,.46,1.54,5.82,5.82,0,0,1,2.24,3,8.48,8.48,0,0,1,1.39-2.19,9.36,9.36,0,0,0-.44,2.29c-.27,4.22,2.9,4.84,2.9,4.84A3.7,3.7,0,0,0,29.37,22.91Zm.85-1.16a6.32,6.32,0,0,0-.33.56A3.31,3.31,0,0,0,30.22,21.75Zm.35-3.85,0-.21a22,22,0,0,0-1.6-2.34,13.86,13.86,0,0,0-.77,1.91,1.87,1.87,0,0,0,1.34,1.42A1.79,1.79,0,0,0,30.57,17.9Zm5-12.21A6.45,6.45,0,0,1,36.78,8.5a5.67,5.67,0,0,1,2-2.67,17,17,0,0,1-2-3A12.45,12.45,0,0,1,35.52,5.69Zm4.1,13a4.1,4.1,0,0,1,.54-1.94,27,27,0,0,0-2.31-3.33,11,11,0,0,0-.16,1.31c-.18,2.77,1.05,4.07,2,4.66A4.05,4.05,0,0,1,39.62,18.74Zm-8-7.63a3.67,3.67,0,0,0,2.55-3.37C33.37,8.86,32.49,10,31.63,11.11Zm5.22,12.27C35.61,21.72,34.58,20,34.63,18a7.49,7.49,0,0,1,2.62-5.47,5.4,5.4,0,0,1-.6-1.38c-.75,2.4-3,4.35-4.34,6.83a.71.71,0,0,1,0,.14A6.82,6.82,0,0,1,33.59,22a6.16,6.16,0,0,1-.77,3,2.86,2.86,0,0,0,1.81,1.44A3,3,0,0,0,36.85,23.38Zm2.81,8.42a9.72,9.72,0,0,1,.62-3.18,13.06,13.06,0,0,0-1.34-2.43A9.71,9.71,0,0,1,37,29.61a15.3,15.3,0,0,1,2.67,2.48Zm3.21-24s0-.08,0-.2c-.25-.33-.5-.65-.74-1a7.86,7.86,0,0,0-1.36,3A8.78,8.78,0,0,0,39,6a6.68,6.68,0,0,0-.34,1.74c-.2,3.09,2.12,3.54,2.12,3.54S43.07,10.87,42.87,7.78Zm1.51,33.46c-.59-.78-1.19-1.54-1.75-2.3,0,.33.06.67.07,1a10.9,10.9,0,0,1-1.16,5,2.61,2.61,0,0,0,.09.58A4.42,4.42,0,0,0,44.38,41.24ZM44.2,24.65a14.36,14.36,0,0,0-.5,2.87c-.38,5.89,4,6.76,4,6.76l.21-.06a10.82,10.82,0,0,1-.2-2.44,10.57,10.57,0,0,1,.07-1.14A20.27,20.27,0,0,0,44.2,24.65ZM45,10.42l0,0v0ZM57.75,6.56A22.76,22.76,0,0,0,55.9,3.91a28,28,0,0,1-1.79,2.7,2.62,2.62,0,0,0,1.81,1.72A2.64,2.64,0,0,0,57.75,6.56ZM51.61,41.7l-.4-.57c-.09.12-.18.23-.26.35a2,2,0,0,0,0,.24,8.54,8.54,0,0,0,0,.87A7.21,7.21,0,0,1,51.61,41.7ZM65.45,13.81a1.84,1.84,0,0,0,.46-.18c0-.16,0-.32,0-.5-.68-1-1.44-1.92-2.13-2.85-.05.34-.07.61-.07.61C63.55,13.43,65.45,13.81,65.45,13.81ZM59.18,27.12a2.87,2.87,0,0,0,1.45.93A2.92,2.92,0,0,0,62.7,26a12.12,12.12,0,0,0-1.49-2.71A9.56,9.56,0,0,1,59.18,27.12Zm-3.26-3.29a3.49,3.49,0,0,0,1-.44,17.67,17.67,0,0,1-2.06-3.12,13.69,13.69,0,0,0-.68,2.46A3.5,3.5,0,0,0,55.92,23.83Zm-.68,22.68c-.88-1.19-1.8-2.36-2.68-3.52a.5.5,0,0,1,0,.11A4.23,4.23,0,0,0,54,47l.08,0A3.78,3.78,0,0,0,55.24,46.51Zm5.27-1.18-.08.05v0Zm5.51-20a24.18,24.18,0,0,0-.41-3c-.44.59-.88,1.18-1.27,1.81a5.24,5.24,0,0,1,.73,2.54c.08,3.11-3.35,5.07-4.28,8.26a4.84,4.84,0,0,0-.5-.57,14.09,14.09,0,0,0-2.06-3.25A3,3,0,0,0,57,29.77c.32.17.38,1.17.38,1.17.1,1.56-1.07,1.78-1.07,1.78s-1.17-.22-1.07-1.78c0,0,.06-1,.39-1.17a2.8,2.8,0,0,0-1.46,2.3c0,1.26,1.13,2.13,1.77,3.28a3.4,3.4,0,0,0-.41,1.57c-.06,2.19,2.51,3.53,3,5.89.45-2.36,3-3.7,3-5.89a3.5,3.5,0,0,0-.51-1.74C62.77,34.41,66.46,32,66,25.34Zm1.66-4.62a11.92,11.92,0,0,1,.14-1.51,14,14,0,0,1-1,1.59c.31.26.62.56.94.88A7.55,7.55,0,0,1,67.68,20.72ZM68.84,6.59C68,5.12,66.65,3.92,66.18,2.45c-.39.59-.83,1.17-1.28,1.76a3.86,3.86,0,0,0,2.78,2.92A3.48,3.48,0,0,0,68.84,6.59Zm4.25,4.53a10.62,10.62,0,0,1-.88-1.75c-1.11,1.71-2.65,3.31-3.65,5.22A7.42,7.42,0,0,1,68.74,16c0,.11,0,.22,0,.33a12.79,12.79,0,0,1,4.13-4.85Zm2.59,3.58c-.6-.79-1.21-1.57-1.77-2.35a2.38,2.38,0,0,0,1.74,2.36Zm1.89,24.46a4.1,4.1,0,0,0,1,2.55,5.8,5.8,0,0,1-3.15-2.46c-.2.49-.42,1-.62,1.51l-.43,1.66a18.23,18.23,0,0,1-1.88,3.44c.49.69,1,1.38,1.54,2.07a3,3,0,0,0,.23-1.46s-.09-1.44-.55-1.67a4,4,0,0,1,2.08,3.29,3.19,3.19,0,0,1-.41,1.61,28.39,28.39,0,0,1,1.92,2.93,1.51,1.51,0,0,1-1.09,1.14,1.66,1.66,0,0,1-1.16-1.94s.06-1.09.41-1.26a3,3,0,0,0-1.57,2.49c-.05,1.72,2,2.77,2.32,4.62.25-1.33,1.35-2.24,1.94-3.28a12.07,12.07,0,0,1,.68,2.26c0-.14.06-.29.1-.43V36.37A3.76,3.76,0,0,0,77.57,39.16ZM75.91,0a14.27,14.27,0,0,1,2.93,5.81,3.06,3.06,0,0,1,.1-.41V0ZM62.52,45.06c0,.1-.06.21-.08.31a.65.65,0,0,1,0,.13l.31.24A1.89,1.89,0,0,1,62.52,45.06Zm3.78-.89a9.52,9.52,0,0,1-3.37,1.64.34.34,0,0,1-.22-.06,3.16,3.16,0,0,1,1.1,1.89l.09-.13c.47.65,1,1.3,1.46,2a5.06,5.06,0,0,0-.16,1.14,5.84,5.84,0,0,0,1.44,3.59c.39-.3.61-.5.56-.53a.32.32,0,0,1-.19,0c-.14,0-.29,0-.41,0h0a9.83,9.83,0,0,1,1.47-2.66,3.24,3.24,0,0,1-.72-1.89c1.07-1.55,2.49-2.87,2.44-4.66a4.81,4.81,0,0,0-.11-.88,7,7,0,0,0-1.5,2.94,5.46,5.46,0,0,0-.72-1.78,2.28,2.28,0,0,1-1.22.8,2,2,0,0,1-.68-.31c.33-.43.66-.87,1-1.3Zm-5,4.66a1.82,1.82,0,0,0,1.26-2.12,4,4,0,0,0-.22-1.08A14.69,14.69,0,0,1,61,48.71,1.34,1.34,0,0,0,61.32,48.83ZM58.5,51.77A16.88,16.88,0,0,1,59.93,56a16.9,16.9,0,0,1,1.16-3.65,9.73,9.73,0,0,0-1.28-1.94A11.13,11.13,0,0,1,58.5,51.77Zm13.39-4.93q-.21.31-.42.66a7.35,7.35,0,0,1,.11.89c.2,3.1-2.13,3.55-2.13,3.55a2.55,2.55,0,0,1-.84-.39,11.88,11.88,0,0,0-1,1.56l.35.24,0,.43c0,.23,0,.4-.86,1a10.38,10.38,0,0,1,2.37,4.28c.65-3.38,4.34-5.3,4.26-8.46A5.25,5.25,0,0,0,71.89,46.84ZM54.1,57.68c0-.07,0-.14,0-.21L54,57.38C54.05,57.48,54.08,57.58,54.1,57.68Zm1.1-1.21h0a.24.24,0,0,1,.06.08,3.89,3.89,0,0,1,.12-.49l-.26.15Z"/><path class="cls-3" d="M51.2,73.75a2,2,0,1,1-2-2A2,2,0,0,1,51.2,73.75ZM75.32,37.63c-.64,1.5-1.58,3.76-2.17,5.27.2-.2.27-.51.52-.66-.24.92-2.88,4.95-3.58,6C69,50,67.23,51.72,66.59,53.71c.2,0,.45.1.61,0,.26.18-7.56,5.32-8.71,5.84-.68.31-3.11,1.9-3.81,1.46,1-.79-1.21-2.52-2.13-2.41a.77.77,0,0,0-.79.72h0l-.07,1.16s-.31,2.24-.32,2.3a4.74,4.74,0,0,0,0,1.8,1.4,1.4,0,0,1,0,.86c-.25.56-.45.57-.61.95a2,2,0,0,0-.09.3,2.65,2.65,0,0,0,.67,1.93s.13-.07.14-.37a3.18,3.18,0,0,1,0,2.34,2.9,2.9,0,0,0-.1-.35c-.22-.17.11,0-.66-.15,0,0,.11-.06.21-.11a.39.39,0,0,0,.13,0c.07-.06,0-.17,0-.23s-.42,0-.52,0,.32-.21.36-.27c-.26-.16-.06,0-.22-.31-.07-.12-.24-.1-.3-.09.25-.26,0-.35-.13-.38a.29.29,0,0,0,.1-.28c-1-1.42-1.38-.66-1.86-.33-.09.14-.24,0-.32.38s-.13.57-.26.87c-.47,1.07,0,1.22.65,1.67a2.79,2.79,0,0,1-1.36-.41,1,1,0,0,1-.79.19,7.7,7.7,0,0,1-.25-2,4.56,4.56,0,0,1,.72-1.65c.8-1,.93-2.25,1.33-3.42.1-.29.35-1.91.35-1.91.06-.4.06-1.59.05-2.44-.13-.54-.48-.63-1.21-.73-.92-.13-3.67,1.48-2.7,2.3-.71.42-3.11-1.23-3.78-1.55-1.14-.54-8.83-5.88-8.56-6a2.33,2.33,0,0,0,.83.23c-.6-2-2.52-3.93-3.59-5.71-.68-1.12-3.22-5.21-3.43-6.13.24.16.3.47.5.67-.55-1.52-1.46-3.81-2.07-5.32a10.18,10.18,0,0,0-2-3.5c1.22.25,3.48,4.54,3.49,4.48a8.12,8.12,0,0,0,4,3.48c0-.65-.58-1.47-.31-1.58.65,1.59,3.66,3.85,3.63,3.88.62.53,3.12,2,3.56,1.65a2.85,2.85,0,0,0,.18-.53s0-.1,0-.15,1.56,5.1,4.17,7.1c.28-.19.28-.54.42-.75a3.14,3.14,0,0,1-.07,1.18,10.49,10.49,0,0,0,1.61,3.18c.31.33,1.11.55,1.28.93l-.39,0c-.86.89,1.06,2,1.68.16.93.2.53-1.51.58-1.75a7.67,7.67,0,0,0,1.64,1c-.09-.3-.2-.63-.33-1-1.33-3.86-2.4-7.09-2.13-11.51C46,38,52.1,31,51.37,26.74s-2.09-5.84-2.08-9.51c0-2.57,2.3-4.78,2.09-8.18,1.61,3.08-.38,4.6-.31,7.86.07,3,1.57,4.13,2.75,8.44C55.34,31,50,38.73,49.71,43.24c-.31,5.34,1.19,7.12,1.95,11.5a9,9,0,0,1,.09.91A16.38,16.38,0,0,0,53,54.4c0,.25-.4,2.36.55,2.19.57,1.86,2.51.8,1.67-.12l-.39,0c.19-.38,1-.58,1.31-.9a10.68,10.68,0,0,0,1.69-3.14,3,3,0,0,1,0-1.18c.14.22.12.57.4.76a13.66,13.66,0,0,0,4.26-6.68c0-.1.05-.21.08-.31a2.3,2.3,0,0,0,.19.69c.43.37,3-1.06,3.59-1.58,0,0,3-2.21,3.73-3.79.26.12-.34.93-.35,1.58a8.15,8.15,0,0,0,4.11-3.39c0,.07,2.36-4.17,3.59-4.39A10.32,10.32,0,0,0,75.32,37.63ZM47,68.8l-.1-.3a2.78,2.78,0,0,1-.07-.45,1.15,1.15,0,0,0-.34.77,2,2,0,0,0,.12.46l.1.07c0-.06,0-.14,0-.14C47,69.13,47,68.8,47,68.8Z"/></g></g></svg>