<svg xmlns="http://www.w3.org/2000/svg" viewBox="0 0 100 100"><defs><style>.cls-1{fill:#00040c;}</style></defs><title>Faction -The Harpers - Icon</title><g id="Faction_Icons" data-name="Faction Icons"><path id="The_Harpers" data-name="The Harpers" class="cls-1" d="M90.05,84.39a.71.71,0,0,1,0,1,50,50,0,1,1-1.09-71.89l.72.71a.7.7,0,0,1,0,1,.72.72,0,0,1-1,.12,42.82,42.82,0,1,0,.36,69A.71.71,0,0,1,90.05,84.39Zm5.08-47.57A229.76,229.76,0,0,0,75.76,83.17c.23.75.78,2,1.8,2.39H73.44l-.52-1.86H61l-.52,1.86H56.32c1.46-.48,2-2.91,2-2.91-19.17-19.65-15-47.29-15-47.29a5.09,5.09,0,0,0,.38-4.62,20.8,20.8,0,0,1-2.08-1.44l1.21-11.16C45.86,24.2,50.83,28.9,61.09,29l.15,0V29a56.75,56.75,0,0,0,15-2.35C97.31,20.81,95.13,36.82,95.13,36.82Zm-32.3,41L51.63,39c-5,27.76,10.51,40.55,10.51,40.55C62.37,78.92,62.6,78.34,62.83,77.78Zm2.31-5.27L54.31,34.94c-.6-.1-1.18-.23-1.74-.37-.19.78-.37,1.54-.52,2.3L63.42,76.34C64,75,64.55,73.76,65.14,72.51Zm2.43-4.84L58.25,35.35a26.62,26.62,0,0,1-2.88-.24L65.77,71.2C66.36,70,67,68.82,67.57,67.67Zm2.53-4.51L62,35.15a23.91,23.91,0,0,1-2.76.2l9,31.1C68.84,65.33,69.47,64.23,70.1,63.16Zm2.61-4.22L65.63,34.39A24.94,24.94,0,0,1,63,35l7.79,27C71.42,61,72.06,59.94,72.71,58.94Zm2.67-4L69.09,33.14c-.45.16-.91.34-1.37.52s-.78.3-1.17.43L73.4,57.87C74.07,56.86,74.73,55.9,75.38,55Zm2.74-3.77L72.57,31.93c-.84.27-1.69.55-2.56.87L76.1,53.94C76.78,53,77.46,52.06,78.12,51.18Zm2.8-3.58L76.11,30.92c-.85.22-1.72.45-2.61.72l5.36,18.58C79.56,49.3,80.25,48.43,80.92,47.6Zm2.84-3.4-4-14c-.85.13-1.74.3-2.66.51l4.6,16C82.39,45.8,83.1,45,83.76,44.2ZM86.66,41,83.45,29.85a25.25,25.25,0,0,0-2.76.2l3.83,13.28C85.3,42.45,86,41.66,86.66,41Zm-2.19-11.1,3,10.28c1.77-1.86,2.85-2.85,2.85-2.85C91.83,32.38,89.3,30.09,84.47,29.87Z"/></g></svg>