<?xml version="1.0" encoding="UTF-8"?>
<svg width="54px" height="100px" viewBox="0 0 54 100" version="1.1" xmlns="http://www.w3.org/2000/svg" xmlns:xlink="http://www.w3.org/1999/xlink">
    <!-- Generator: Sketch 53.2 (72643) - https://sketchapp.com -->
    <title>ClassIcon/Barbarian</title>
    <desc>Created with Sketch.</desc>
    <g id="ClassIcon/Barbarian" stroke="none" stroke-width="1" fill="none" fill-rule="evenodd">
        <g transform="translate(1.000000, 0.000000)" fill="#00040C" fill-rule="nonzero" id="Barbarian">
            <path d="M5.76,8.16 C7.79185545,5.2497884 10.0702518,2.51972757 12.57,0 C12.57,1.53 12.21,3.05 12.31,4.58 C12.61,6.38 12.5,8.28 13.31,9.96 C13.59,10.61 13.7,11.42 14.31,11.82 C15.1703806,12.538555 16.0719092,13.2063539 17.01,13.82 C18.2477672,14.3948023 19.572501,14.75978 20.93,14.9 C21.11,15.59 21.25,16.3 21.43,16.99 L22.49,17.17 C22.6,16.08 22.62,14.98 22.75,13.89 C23.68,13.69 24.06,12.76 24.62,12.09 C25.35,11.25 25.32,10.09 25.62,9.09 C26.5733333,9.03 27.51,9 28.43,9 C28.76,10 28.73,11.2 29.43,12 C29.99,12.67 30.37,13.6 31.3,13.8 C31.43,14.89 31.46,15.99 31.56,17.08 L32.65,17 C32.84,16.31 32.97,15.6 33.15,14.91 C33.8329064,14.9114215 34.5104528,14.7894631 35.15,14.55 C36.2279656,14.2728519 37.2451714,13.7981558 38.15,13.15 C39.08,12.29 40.48,11.76 40.72,10.37 C41.3281236,8.74252806 41.6659175,7.02653516 41.72,5.29 C42.02,3.53 41.55,1.78 41.54,0.02 C44.3885906,2.91324349 46.9598279,6.06702678 49.22,9.44 C49.96,10.91 50.75,12.36 51.43,13.87 C52,16 52.49,18.21 53,20.39 C53.23,21.99 53.34,23.61 53.52,25.22 C51.79,25.9 50.02,26.44 48.3,27.12 C50.06,27.47 51.82,27.77 53.58,28.12 C53.4,30.12 53.29,32.04 53.04,33.99 C52.38,36.36 51.75,38.74 51.04,41.09 C49.93,43.18 48.82,45.27 47.62,47.31 C45.62,49.62 43.69,52.08 41.52,54.26 C41.38,52.61 42.26,51.06 42,49.41 C41.83,48.15 41.86,46.85 41.59,45.6 C41.13,44.41 40.74,43.2 40.22,42.04 C39.53,41.04 38.79,40.04 38.05,39.04 C36.69,38.04 34.95,38.35 33.39,38.33 C33.17,37.92 32.94,37.52 32.7,37.12 C31.9376214,38.2597374 31.3258787,39.4933063 30.88,40.79 C30.58,41.53 29.73,41.96 29.58,42.79 C29.64,47.48 29.74,52.16 29.79,56.85 C29.7,57.85 30.79,58.26 31.34,58.94 C31.03,59.6 30.34,60.14 30.34,60.94 C30.26,62.52 30.07,64.1 30.11,65.68 C30.05,76.02 30.02,86.35 29.96,96.68 C29.96,97.25 30.4,97.68 30.69,98.07 C30.2751307,98.1373189 29.8692139,98.2513782 29.48,98.41 C29.1,98.8 28.99,99.41 28.58,99.76 C27.6409616,100.019556 26.6534126,100.050417 25.7,99.85 C24.94,99.76 24.95,98.76 24.41,98.37 C24.0382702,98.2408656 23.6571419,98.1405686 23.27,98.07 C23.55,97.63 24.03,97.25 23.99,96.68 C23.9966667,87.0866667 23.9766667,77.48 23.93,67.86 C23.9652545,65.4229888 23.8651002,62.9859007 23.63,60.56 C23.3830888,60.001657 23.081625,59.469071 22.73,58.97 C23.27,58.29 24.38,57.89 24.28,56.88 C24.28,52.19 24.43,47.51 24.49,42.82 C24.34,42.01 23.49,41.58 23.19,40.82 C22.7482656,39.5215786 22.1362622,38.2874839 21.37,37.15 C21.01,37.63 20.87,38.56 20.09,38.38 C18.5,38.28 16.36,38.17 15.47,39.81 C14.641121,40.7773545 13.9665131,41.8668463 13.47,43.04 C13.07,44.3 12.35,45.49 12.33,46.85 C12.26,48.04 12.07,49.21 12.06,50.4 C12.3381607,51.6737347 12.5120695,52.9680173 12.58,54.27 C10.77,52.51 9.25,50.46 7.58,48.59 C6.21091154,46.9557525 5.08280399,45.133943 4.23,43.18 C5.01,41.32 6.17,39.62 7,37.78 C5.55,38.44 4.16,39.24 2.72,39.93 C2.06,37.22 0.91,34.59 0.83,31.76 C0.71,30.1 0.5,28.44 0.43,26.76 C0.63,24.68 0.83,22.6 1.07,20.53 C1.51,18.7 1.93,16.86 2.43,15.05 C3.87,14.89 5.32,14.77 6.76,14.58 C5.95,13.3 5.04,12.07 4.22,10.79 C4.62611578,9.83492244 5.16108358,8.93994485 5.81,8.13"></path>
        </g>
    </g>
</svg>