<svg viewBox="0 0 400 462" fill="none" xmlns="http://www.w3.org/2000/svg"><g clip-path="url(#clip0)"><path fill-rule="evenodd" clip-rule="evenodd" d="M105.2 53c-46.8 29.9-90.3 59.2-96.8 65l-11.6 10.7V333L11 343.8c15.4 11.6 33.2 23 123.7 79.8C202.3 466 193 463 213.2 450l95.7-60.6c43.9-27.7 80.8-52 82.1-54 1.3-2 2.4-50 2.4-106.7l.1-103-20.3-14.5C330.6 81 199-1.6 193.7-1.5 191.8-1.5 152 23 105.2 53zm82.7 21l-.9 46.4-53.7.8a4399 4399 0 0 0-74 1.6c-11.1.5-20.2.1-20.2-.8.2-2 143.7-93.8 147.2-94 1.4-.2 2 20.6 1.6 46zm87.2-.8c39 25 72.2 45.6 73.6 45.6 1.4 0 2.5 1 2.5 2.4 0 2.7-114.1 1.9-135.7-1l-13.9-1.8V73c0-24.9.6-45.3 1.3-45.3.7 0 33.2 20.5 72.2 45.5zM132.7 218.8L83 303.3c-.8 1-60.3-159.2-60.2-162.4 0-3 29-4.4 101.4-5.2l57.6-.7-49 83.8zM366 138.9c1.7 1.8-57.6 162-60 162-1.6-.1-49.6-80.7-87.8-147.5l-11-19.4L286 136c43.3 1 79.3 2.4 80 3zm-119.5 90.4l48.6 83-99.2.8c-54.6.5-99.8.4-100.5-.2-.6-.7 21.2-39.4 48.5-86 27.3-46.7 50.6-84 51.8-82.7 1.2 1.2 24 39.5 50.8 85.1zM45.7 244.8c28.2 76.3 28.7 70.9-6.9 72.8l-21 1.2-.7-72.9c-.4-40 .2-71.8 1.4-70.7 1.2 1.2 13.4 32.6 27.2 69.6zm324.3 74a305 305 0 0 1-49.7-5.5c-.9-.8 9.8-32.4 23.6-70.1l25.2-68.6.9 71.7c.5 39.5.5 72.1 0 72.5zm-256 47.7c20.4 21.7 35.4 38.9 33.3 38.2C140 402 29.6 333.2 29.5 331c0-1.3 14.7-1 25-1.7 10.3-.6 19.5-1.4 20.6-1.8 1-.3 18.6 17.2 39 39zm175.4-37.6c0 2.3-94.8 106-95.8 104.6-.7-1-72-79.4-87.5-96l-9.8-10.6h96.6c53 0 96.5.9 96.5 2zM339 330c41.5.1 20.4 1.7-29 32.6-77.8 48.4-74.6 47.4-43.3 13.5 15.2-16.5 31.3-34.4 35.7-39.7 5.7-6.8 10.2-9.3 14.7-8.1 3.6 1 6.4 1.7 22 1.7z" fill="#000"/></g><defs><clipPath id="clip0"><path fill="#fff" d="M0 0h400v461.8H0z"/></clipPath></defs></svg>
