<svg viewBox="0 0 400 354" width="400" height="354" fill="none" xmlns="http://www.w3.org/2000/svg"><path fill-rule="evenodd" clip-rule="evenodd" d="M188.633 6.569c-6.305 5.664-171.73 288.563-184.95995 316.307-4.548001 9.538-4.491001 10.403 1.199 18.024l5.97695 8.005h378.302l5.932-7.945c7.62-10.207 15.254 4.886-88.938-175.852C223.106 21.063 209.565 0 200 0c-2.23 0-7.345 2.956-11.367 6.569zm100.525 168.613c46.834 81.095 86.323 148.88 87.753 150.634 1.43 1.754 1.736 4.053.679 5.11-2.78 2.779-357.826 2.37-356.665-.412 1.039-2.491 139.826-242.508 163.852-283.365 7.886-13.411 15.439-23.265 16.783-21.898 1.345 1.368 40.764 68.837 87.598 149.931z" fill="#000"/></svg>
