<svg viewBox="0 0 400 476" fill="none" xmlns="http://www.w3.org/2000/svg"><g clip-path="url(#clip0)"><path fill-rule="evenodd" clip-rule="evenodd" d="M104 66C-13 151 0 129 0 237c0 109-2 101 33 127l95 68c36 25 68 47 72 47 3 0 50-32 103-70l97-70v-93c0-113 6-100-68-153l-94-69c-18-13-35-24-38-24s-46 30-96 66zm180 111l83 145c1 2-64 3-167 3-92 0-168-1-168-2 0-4 166-287 168-287 1 0 39 63 84 141zM172 51L98 177 26 300l-1-74v-74l73-53c67-49 83-59 74-48zm131 50c82 59 72 43 71 129l-1 71-50-87a39495 39495 0 0 0-94-165l74 52zm-24 296l-79 57-76-54-79-58c-2-1 68-3 155-3h158l-79 58z" fill="#000"/></g><defs><clipPath id="clip0"><path fill="#fff" d="M0 0h400v479H0z"/></clipPath></defs></svg>
